G04 #@! TF.GenerationSoftware,KiCad,Pcbnew,8.0.5*
G04 #@! TF.CreationDate,2024-11-25T19:05:47-05:00*
G04 #@! TF.ProjectId,Neo7SegmentMini,4e656f37-5365-4676-9d65-6e744d696e69,rev?*
G04 #@! TF.SameCoordinates,Original*
G04 #@! TF.FileFunction,Soldermask,Top*
G04 #@! TF.FilePolarity,Negative*
%FSLAX46Y46*%
G04 Gerber Fmt 4.6, Leading zero omitted, Abs format (unit mm)*
G04 Created by KiCad (PCBNEW 8.0.5) date 2024-11-25 19:05:47*
%MOMM*%
%LPD*%
G01*
G04 APERTURE LIST*
G04 Aperture macros list*
%AMRoundRect*
0 Rectangle with rounded corners*
0 $1 Rounding radius*
0 $2 $3 $4 $5 $6 $7 $8 $9 X,Y pos of 4 corners*
0 Add a 4 corners polygon primitive as box body*
4,1,4,$2,$3,$4,$5,$6,$7,$8,$9,$2,$3,0*
0 Add four circle primitives for the rounded corners*
1,1,$1+$1,$2,$3*
1,1,$1+$1,$4,$5*
1,1,$1+$1,$6,$7*
1,1,$1+$1,$8,$9*
0 Add four rect primitives between the rounded corners*
20,1,$1+$1,$2,$3,$4,$5,0*
20,1,$1+$1,$4,$5,$6,$7,0*
20,1,$1+$1,$6,$7,$8,$9,0*
20,1,$1+$1,$8,$9,$2,$3,0*%
G04 Aperture macros list end*
%ADD10R,2.800000X1.800000*%
%ADD11O,2.800000X1.800000*%
%ADD12RoundRect,0.250000X-0.650000X0.325000X-0.650000X-0.325000X0.650000X-0.325000X0.650000X0.325000X0*%
%ADD13R,1.500000X0.900000*%
%ADD14R,1.700000X1.700000*%
%ADD15O,1.700000X1.700000*%
%ADD16C,3.200000*%
%ADD17RoundRect,0.250000X-0.312500X-0.625000X0.312500X-0.625000X0.312500X0.625000X-0.312500X0.625000X0*%
G04 APERTURE END LIST*
D10*
X195500000Y-59000000D03*
D11*
X195500000Y-56460000D03*
X195500000Y-53920000D03*
D12*
X165500000Y-94625000D03*
X165500000Y-97575000D03*
D13*
X183400000Y-83650000D03*
X183400000Y-80350000D03*
X178500000Y-80350000D03*
X178500000Y-83650000D03*
D10*
X150500000Y-59000000D03*
D11*
X150500000Y-56460000D03*
X150500000Y-53920000D03*
D13*
X191400000Y-75650000D03*
X191400000Y-72350000D03*
X186500000Y-72350000D03*
X186500000Y-75650000D03*
D14*
X150500000Y-94000000D03*
D15*
X150500000Y-96540000D03*
D12*
X190000000Y-94500000D03*
X190000000Y-97450000D03*
D13*
X167400000Y-59650000D03*
X167400000Y-56350000D03*
X162500000Y-56350000D03*
X162500000Y-59650000D03*
X191400000Y-83650000D03*
X191400000Y-80350000D03*
X186500000Y-80350000D03*
X186500000Y-83650000D03*
X183400000Y-67650000D03*
X183400000Y-64350000D03*
X178500000Y-64350000D03*
X178500000Y-67650000D03*
D12*
X185156250Y-94500000D03*
X185156250Y-97450000D03*
D13*
X175400000Y-59650000D03*
X175400000Y-56350000D03*
X170500000Y-56350000D03*
X170500000Y-59650000D03*
X167400000Y-75650000D03*
X167400000Y-72350000D03*
X162500000Y-72350000D03*
X162500000Y-75650000D03*
X175400000Y-83650000D03*
X175400000Y-80350000D03*
X170500000Y-80350000D03*
X170500000Y-83650000D03*
D12*
X180312500Y-94500000D03*
X180312500Y-97450000D03*
D13*
X183400000Y-75650000D03*
X183400000Y-72350000D03*
X178500000Y-72350000D03*
X178500000Y-75650000D03*
D16*
X173000000Y-51600000D03*
D13*
X191400000Y-59650000D03*
X191400000Y-56350000D03*
X186500000Y-56350000D03*
X186500000Y-59650000D03*
X167400000Y-83650000D03*
X167400000Y-80350000D03*
X162500000Y-80350000D03*
X162500000Y-83650000D03*
X191400000Y-67650000D03*
X191400000Y-64350000D03*
X186500000Y-64350000D03*
X186500000Y-67650000D03*
X191400000Y-91650000D03*
X191400000Y-88350000D03*
X186500000Y-88350000D03*
X186500000Y-91650000D03*
X183400000Y-91650000D03*
X183400000Y-88350000D03*
X178500000Y-88350000D03*
X178500000Y-91650000D03*
D12*
X155812500Y-94625000D03*
X155812500Y-97575000D03*
D13*
X159400000Y-83650000D03*
X159400000Y-80350000D03*
X154500000Y-80350000D03*
X154500000Y-83650000D03*
X159400000Y-91650000D03*
X159400000Y-88350000D03*
X154500000Y-88350000D03*
X154500000Y-91650000D03*
X175400000Y-67650000D03*
X175400000Y-64350000D03*
X170500000Y-64350000D03*
X170500000Y-67650000D03*
X159400000Y-75650000D03*
X159400000Y-72350000D03*
X154500000Y-72350000D03*
X154500000Y-75650000D03*
D14*
X195500000Y-94000000D03*
D15*
X195500000Y-96540000D03*
D13*
X183400000Y-59650000D03*
X183400000Y-56350000D03*
X178500000Y-56350000D03*
X178500000Y-59650000D03*
D16*
X173000000Y-97600000D03*
D13*
X159400000Y-67650000D03*
X159400000Y-64350000D03*
X154500000Y-64350000D03*
X154500000Y-67650000D03*
X175400000Y-75650000D03*
X175400000Y-72350000D03*
X170500000Y-72350000D03*
X170500000Y-75650000D03*
X167400000Y-67650000D03*
X167400000Y-64350000D03*
X162500000Y-64350000D03*
X162500000Y-67650000D03*
X167400000Y-91650000D03*
X167400000Y-88350000D03*
X162500000Y-88350000D03*
X162500000Y-91650000D03*
X175400000Y-91650000D03*
X175400000Y-88350000D03*
X170500000Y-88350000D03*
X170500000Y-91650000D03*
D17*
X154575000Y-53000000D03*
X157500000Y-53000000D03*
D12*
X160656250Y-94625000D03*
X160656250Y-97575000D03*
D13*
X159400000Y-59650000D03*
X159400000Y-56350000D03*
X154500000Y-56350000D03*
X154500000Y-59650000D03*
M02*
