G04 #@! TF.GenerationSoftware,KiCad,Pcbnew,8.0.5*
G04 #@! TF.CreationDate,2024-11-25T19:05:47-05:00*
G04 #@! TF.ProjectId,Neo7SegmentMini,4e656f37-5365-4676-9d65-6e744d696e69,rev?*
G04 #@! TF.SameCoordinates,Original*
G04 #@! TF.FileFunction,Copper,L2,Bot*
G04 #@! TF.FilePolarity,Positive*
%FSLAX46Y46*%
G04 Gerber Fmt 4.6, Leading zero omitted, Abs format (unit mm)*
G04 Created by KiCad (PCBNEW 8.0.5) date 2024-11-25 19:05:47*
%MOMM*%
%LPD*%
G01*
G04 APERTURE LIST*
G04 #@! TA.AperFunction,ComponentPad*
%ADD10R,2.800000X1.800000*%
G04 #@! TD*
G04 #@! TA.AperFunction,ComponentPad*
%ADD11O,2.800000X1.800000*%
G04 #@! TD*
G04 #@! TA.AperFunction,ComponentPad*
%ADD12R,1.700000X1.700000*%
G04 #@! TD*
G04 #@! TA.AperFunction,ComponentPad*
%ADD13O,1.700000X1.700000*%
G04 #@! TD*
G04 #@! TA.AperFunction,SMDPad,CuDef*
%ADD14R,2.500000X2.500000*%
G04 #@! TD*
G04 #@! TA.AperFunction,ViaPad*
%ADD15C,0.600000*%
G04 #@! TD*
G04 #@! TA.AperFunction,Conductor*
%ADD16C,0.355600*%
G04 #@! TD*
G04 #@! TA.AperFunction,Conductor*
%ADD17C,2.000000*%
G04 #@! TD*
G04 APERTURE END LIST*
D10*
X195500000Y-59000000D03*
D11*
X195500000Y-56460000D03*
X195500000Y-53920000D03*
D10*
X150500000Y-59000000D03*
D11*
X150500000Y-56460000D03*
X150500000Y-53920000D03*
D12*
X150500000Y-94000000D03*
D13*
X150500000Y-96540000D03*
D12*
X195500000Y-94000000D03*
D13*
X195500000Y-96540000D03*
D14*
X195400000Y-67500000D03*
X189000000Y-77500000D03*
D15*
X154500000Y-62000000D03*
X159250000Y-52750000D03*
X153000000Y-53000000D03*
X195300000Y-71800000D03*
X195300000Y-74533332D03*
X196600000Y-75900000D03*
X196600000Y-73166666D03*
X196600000Y-81333334D03*
X195300000Y-77266666D03*
X195300000Y-79966666D03*
X196600000Y-78633334D03*
X165000000Y-79000000D03*
X169000000Y-87000000D03*
X188900000Y-87000000D03*
X165000000Y-54000000D03*
X161000000Y-63000000D03*
X173000000Y-63000000D03*
X158500000Y-99000000D03*
X165000000Y-87000000D03*
X185000000Y-54000000D03*
X173000000Y-87000000D03*
X185000000Y-87000000D03*
X191500000Y-99000000D03*
X189000000Y-63000000D03*
X177000000Y-54000000D03*
X157000000Y-87000000D03*
X181000000Y-54000000D03*
X181000000Y-79000000D03*
X169000000Y-71000000D03*
X161000000Y-71000000D03*
X165000000Y-63000000D03*
X185000000Y-79000000D03*
X192000000Y-54000000D03*
X177000000Y-63000000D03*
X169000000Y-54000000D03*
X172900000Y-71000000D03*
X169000000Y-63000000D03*
X195500000Y-99000000D03*
X161000000Y-79000000D03*
X167000000Y-99000000D03*
X177000000Y-87000000D03*
X173000000Y-79000000D03*
X150000000Y-99000000D03*
X183500000Y-99000000D03*
X180900000Y-71000000D03*
X181000000Y-87000000D03*
X157000000Y-63000000D03*
X185000000Y-63000000D03*
X177000000Y-79000000D03*
X161000000Y-54000000D03*
X187500000Y-99000000D03*
X156900000Y-71000000D03*
X185000000Y-71000000D03*
X169000000Y-79000000D03*
X154250000Y-99000000D03*
X189000000Y-54000000D03*
X161000000Y-87000000D03*
X164900000Y-71000000D03*
X177000000Y-71000000D03*
X162750000Y-99000000D03*
X151000000Y-80500000D03*
X179500000Y-99000000D03*
X181000000Y-63000000D03*
X193250000Y-65250000D03*
X193250000Y-58250000D03*
X152500000Y-74500000D03*
X152500000Y-66000000D03*
X194000000Y-82000000D03*
X194000000Y-74000000D03*
X152500000Y-86500000D03*
X153500000Y-93700000D03*
X193000000Y-70000000D03*
X191500000Y-86000000D03*
X186500000Y-70000000D03*
D16*
X159250000Y-52750000D02*
X159250000Y-54250000D01*
X157500000Y-56000000D02*
X157500000Y-59000000D01*
X159250000Y-54250000D02*
X157500000Y-56000000D01*
X157500000Y-59000000D02*
X154500000Y-62000000D01*
X153000000Y-55000000D02*
X151500000Y-56500000D01*
X151500000Y-56500000D02*
X150000000Y-56500000D01*
X153000000Y-53000000D02*
X153000000Y-55000000D01*
D17*
X195250000Y-67250000D02*
X195000000Y-67500000D01*
X149750000Y-75750000D02*
X149750000Y-59750000D01*
X195000000Y-67500000D02*
X192000000Y-67500000D01*
X151000000Y-77000000D02*
X149750000Y-75750000D01*
X195250000Y-59250000D02*
X195250000Y-67250000D01*
X192000000Y-67500000D02*
X182500000Y-77000000D01*
X195500000Y-59000000D02*
X195250000Y-59250000D01*
X182500000Y-77000000D02*
X151000000Y-77000000D01*
X149750000Y-59750000D02*
X150500000Y-59000000D01*
X150500000Y-53920000D02*
X150500000Y-50500000D01*
D16*
X193250000Y-65250000D02*
X193250000Y-58250000D01*
X152500000Y-66000000D02*
X152500000Y-74500000D01*
X194000000Y-82000000D02*
X194000000Y-74000000D01*
X153000000Y-87000000D02*
X152500000Y-86500000D01*
X153500000Y-93700000D02*
X153000000Y-93200000D01*
X153000000Y-93200000D02*
X153000000Y-87000000D01*
X195500000Y-56460000D02*
X192290000Y-56460000D01*
X190000000Y-58750000D02*
X186500000Y-62250000D01*
X193000000Y-84500000D02*
X191500000Y-86000000D01*
X192290000Y-56460000D02*
X190000000Y-58750000D01*
X193000000Y-70000000D02*
X193000000Y-84500000D01*
X186500000Y-62250000D02*
X186500000Y-70000000D01*
G04 #@! TA.AperFunction,Conductor*
G36*
X193332739Y-68824985D02*
G01*
X193378494Y-68877789D01*
X193389700Y-68929300D01*
X193389700Y-69006463D01*
X193390572Y-69029733D01*
X193391966Y-69048265D01*
X193391967Y-69048270D01*
X193420082Y-69155965D01*
X193449570Y-69219307D01*
X193449571Y-69219309D01*
X193481492Y-69272988D01*
X193565032Y-69350610D01*
X193565034Y-69350611D01*
X193624082Y-69387953D01*
X193624090Y-69387957D01*
X193627484Y-69389477D01*
X193704688Y-69424056D01*
X193999766Y-69508363D01*
X194058818Y-69545707D01*
X194088306Y-69609049D01*
X194089700Y-69627592D01*
X194089700Y-73268922D01*
X194070015Y-73335961D01*
X194017211Y-73381716D01*
X193981886Y-73391861D01*
X193862986Y-73407515D01*
X193841985Y-73410280D01*
X193841984Y-73410280D01*
X193694739Y-73471271D01*
X193682586Y-73480597D01*
X193617417Y-73505791D01*
X193548972Y-73491753D01*
X193498983Y-73442939D01*
X193483100Y-73382221D01*
X193483100Y-70406817D01*
X193502785Y-70339778D01*
X193508715Y-70331342D01*
X193528728Y-70305262D01*
X193589720Y-70158015D01*
X193610523Y-70000000D01*
X193589720Y-69841985D01*
X193528728Y-69694739D01*
X193477205Y-69627592D01*
X193431706Y-69568296D01*
X193431705Y-69568295D01*
X193305262Y-69471272D01*
X193305261Y-69471271D01*
X193305259Y-69471270D01*
X193158015Y-69410280D01*
X193158013Y-69410279D01*
X193000001Y-69389477D01*
X192999999Y-69389477D01*
X192841986Y-69410279D01*
X192841984Y-69410280D01*
X192694739Y-69471271D01*
X192568295Y-69568295D01*
X192471271Y-69694739D01*
X192410280Y-69841984D01*
X192410279Y-69841986D01*
X192389477Y-69999998D01*
X192389477Y-70000001D01*
X192410279Y-70158013D01*
X192410280Y-70158015D01*
X192471270Y-70305259D01*
X192471271Y-70305261D01*
X192471272Y-70305262D01*
X192491275Y-70331331D01*
X192516470Y-70396498D01*
X192516900Y-70406817D01*
X192516900Y-84248530D01*
X192497215Y-84315569D01*
X192480581Y-84336211D01*
X191446059Y-85370732D01*
X191384736Y-85404217D01*
X191374566Y-85405990D01*
X191341984Y-85410280D01*
X191341983Y-85410280D01*
X191194739Y-85471271D01*
X191068295Y-85568295D01*
X190971271Y-85694739D01*
X190910280Y-85841984D01*
X190910279Y-85841986D01*
X190889477Y-85999998D01*
X190889477Y-86000001D01*
X190910279Y-86158013D01*
X190910280Y-86158015D01*
X190971270Y-86305259D01*
X190971271Y-86305261D01*
X190971272Y-86305262D01*
X191068295Y-86431705D01*
X191194738Y-86528728D01*
X191341985Y-86589720D01*
X191420992Y-86600121D01*
X191499999Y-86610523D01*
X191500000Y-86610523D01*
X191500001Y-86610523D01*
X191552671Y-86603588D01*
X191658015Y-86589720D01*
X191805262Y-86528728D01*
X191931705Y-86431705D01*
X192028728Y-86305262D01*
X192089720Y-86158015D01*
X192094009Y-86125432D01*
X192122272Y-86061541D01*
X192129254Y-86053951D01*
X193386576Y-84796631D01*
X193450178Y-84686470D01*
X193483100Y-84563601D01*
X193483100Y-84436400D01*
X193483100Y-82617779D01*
X193502785Y-82550740D01*
X193555589Y-82504985D01*
X193624747Y-82495041D01*
X193682585Y-82519402D01*
X193694738Y-82528728D01*
X193694740Y-82528729D01*
X193728096Y-82542545D01*
X193841985Y-82589720D01*
X193920992Y-82600121D01*
X193999999Y-82610523D01*
X194000000Y-82610523D01*
X194000001Y-82610523D01*
X194052671Y-82603588D01*
X194158015Y-82589720D01*
X194238215Y-82556499D01*
X194307682Y-82549031D01*
X194370161Y-82580306D01*
X194371267Y-82581395D01*
X194373515Y-82583515D01*
X194373518Y-82583518D01*
X194418954Y-82626359D01*
X194520603Y-82678045D01*
X194587642Y-82697730D01*
X194675066Y-82710300D01*
X194675069Y-82710300D01*
X196376000Y-82710300D01*
X196443039Y-82729985D01*
X196488794Y-82782789D01*
X196500000Y-82834300D01*
X196500000Y-92526000D01*
X196480315Y-92593039D01*
X196427511Y-92638794D01*
X196376000Y-92650000D01*
X195750000Y-92650000D01*
X195750000Y-93566988D01*
X195692993Y-93534075D01*
X195565826Y-93500000D01*
X195434174Y-93500000D01*
X195307007Y-93534075D01*
X195250000Y-93566988D01*
X195250000Y-92650000D01*
X194602155Y-92650000D01*
X194542627Y-92656401D01*
X194542620Y-92656403D01*
X194407913Y-92706645D01*
X194407906Y-92706649D01*
X194292812Y-92792809D01*
X194292809Y-92792812D01*
X194206649Y-92907906D01*
X194206645Y-92907913D01*
X194156403Y-93042620D01*
X194156401Y-93042627D01*
X194150000Y-93102155D01*
X194150000Y-93750000D01*
X195066988Y-93750000D01*
X195034075Y-93807007D01*
X195000000Y-93934174D01*
X195000000Y-94065826D01*
X195034075Y-94192993D01*
X195066988Y-94250000D01*
X194150000Y-94250000D01*
X194150000Y-94897844D01*
X194156401Y-94957372D01*
X194156403Y-94957379D01*
X194206645Y-95092086D01*
X194206649Y-95092093D01*
X194292809Y-95207187D01*
X194292812Y-95207190D01*
X194407906Y-95293350D01*
X194407913Y-95293354D01*
X194539986Y-95342614D01*
X194595920Y-95384485D01*
X194620337Y-95449949D01*
X194605486Y-95518222D01*
X194584335Y-95546477D01*
X194461886Y-95668926D01*
X194326400Y-95862420D01*
X194326399Y-95862422D01*
X194226570Y-96076507D01*
X194226567Y-96076513D01*
X194169364Y-96289999D01*
X194169364Y-96290000D01*
X195066988Y-96290000D01*
X195034075Y-96347007D01*
X195000000Y-96474174D01*
X195000000Y-96605826D01*
X195034075Y-96732993D01*
X195066988Y-96790000D01*
X194169364Y-96790000D01*
X194226567Y-97003486D01*
X194226570Y-97003492D01*
X194326399Y-97217578D01*
X194461894Y-97411082D01*
X194628917Y-97578105D01*
X194822421Y-97713600D01*
X195036507Y-97813429D01*
X195036516Y-97813433D01*
X195250000Y-97870634D01*
X195250000Y-96973012D01*
X195307007Y-97005925D01*
X195434174Y-97040000D01*
X195565826Y-97040000D01*
X195692993Y-97005925D01*
X195750000Y-96973012D01*
X195750000Y-97870633D01*
X195963483Y-97813433D01*
X195963492Y-97813429D01*
X196177579Y-97713599D01*
X196177585Y-97713595D01*
X196304876Y-97624465D01*
X196371082Y-97602137D01*
X196438849Y-97619147D01*
X196486663Y-97670094D01*
X196500000Y-97726039D01*
X196500000Y-99876000D01*
X196480315Y-99943039D01*
X196427511Y-99988794D01*
X196376000Y-100000000D01*
X149231034Y-100000000D01*
X149163995Y-99980315D01*
X149149275Y-99969228D01*
X149092251Y-99919219D01*
X149080781Y-99907749D01*
X149030771Y-99850723D01*
X149001369Y-99787341D01*
X149000000Y-99768965D01*
X149000000Y-97076939D01*
X149019685Y-97009900D01*
X149072489Y-96964145D01*
X149141647Y-96954201D01*
X149205203Y-96983226D01*
X149236382Y-97024534D01*
X149326399Y-97217578D01*
X149461894Y-97411082D01*
X149628917Y-97578105D01*
X149822421Y-97713600D01*
X150036507Y-97813429D01*
X150036516Y-97813433D01*
X150250000Y-97870634D01*
X150250000Y-96973012D01*
X150307007Y-97005925D01*
X150434174Y-97040000D01*
X150565826Y-97040000D01*
X150692993Y-97005925D01*
X150750000Y-96973012D01*
X150750000Y-97870633D01*
X150963483Y-97813433D01*
X150963492Y-97813429D01*
X151177578Y-97713600D01*
X151371082Y-97578105D01*
X151470476Y-97478711D01*
X171149500Y-97478711D01*
X171149500Y-97721288D01*
X171181161Y-97961785D01*
X171243947Y-98196104D01*
X171289805Y-98306814D01*
X171336776Y-98420212D01*
X171458064Y-98630289D01*
X171458066Y-98630292D01*
X171458067Y-98630293D01*
X171605733Y-98822736D01*
X171605739Y-98822743D01*
X171777256Y-98994260D01*
X171777262Y-98994265D01*
X171969711Y-99141936D01*
X172179788Y-99263224D01*
X172403900Y-99356054D01*
X172638211Y-99418838D01*
X172818586Y-99442584D01*
X172878711Y-99450500D01*
X172878712Y-99450500D01*
X173121289Y-99450500D01*
X173169388Y-99444167D01*
X173361789Y-99418838D01*
X173596100Y-99356054D01*
X173820212Y-99263224D01*
X174030289Y-99141936D01*
X174222738Y-98994265D01*
X174394265Y-98822738D01*
X174541936Y-98630289D01*
X174663224Y-98420212D01*
X174756054Y-98196100D01*
X174818838Y-97961789D01*
X174850500Y-97721288D01*
X174850500Y-97478712D01*
X174818838Y-97238211D01*
X174756054Y-97003900D01*
X174663224Y-96779788D01*
X174541936Y-96569711D01*
X174394265Y-96377262D01*
X174394260Y-96377256D01*
X174222743Y-96205739D01*
X174222736Y-96205733D01*
X174030293Y-96058067D01*
X174030292Y-96058066D01*
X174030289Y-96058064D01*
X173820212Y-95936776D01*
X173820205Y-95936773D01*
X173596104Y-95843947D01*
X173361785Y-95781161D01*
X173121289Y-95749500D01*
X173121288Y-95749500D01*
X172878712Y-95749500D01*
X172878711Y-95749500D01*
X172638214Y-95781161D01*
X172403895Y-95843947D01*
X172179794Y-95936773D01*
X172179785Y-95936777D01*
X171969706Y-96058067D01*
X171777263Y-96205733D01*
X171777256Y-96205739D01*
X171605739Y-96377256D01*
X171605733Y-96377263D01*
X171458067Y-96569706D01*
X171336777Y-96779785D01*
X171336773Y-96779794D01*
X171243947Y-97003895D01*
X171181161Y-97238214D01*
X171149500Y-97478711D01*
X151470476Y-97478711D01*
X151538105Y-97411082D01*
X151673600Y-97217578D01*
X151773429Y-97003492D01*
X151773432Y-97003486D01*
X151830636Y-96790000D01*
X150933012Y-96790000D01*
X150965925Y-96732993D01*
X151000000Y-96605826D01*
X151000000Y-96474174D01*
X150965925Y-96347007D01*
X150933012Y-96290000D01*
X151830636Y-96290000D01*
X151830635Y-96289999D01*
X151773432Y-96076513D01*
X151773429Y-96076507D01*
X151673600Y-95862422D01*
X151673599Y-95862420D01*
X151538113Y-95668926D01*
X151538108Y-95668920D01*
X151415665Y-95546477D01*
X151382180Y-95485154D01*
X151387164Y-95415462D01*
X151429036Y-95359529D01*
X151460013Y-95342614D01*
X151592086Y-95293354D01*
X151592093Y-95293350D01*
X151707187Y-95207190D01*
X151707190Y-95207187D01*
X151793350Y-95092093D01*
X151793354Y-95092086D01*
X151843596Y-94957379D01*
X151843598Y-94957372D01*
X151849999Y-94897844D01*
X151850000Y-94897827D01*
X151850000Y-94250000D01*
X150933012Y-94250000D01*
X150965925Y-94192993D01*
X151000000Y-94065826D01*
X151000000Y-93934174D01*
X150965925Y-93807007D01*
X150933012Y-93750000D01*
X151850000Y-93750000D01*
X151850000Y-93102172D01*
X151849999Y-93102155D01*
X151843598Y-93042627D01*
X151843596Y-93042620D01*
X151793354Y-92907913D01*
X151793350Y-92907906D01*
X151707190Y-92792812D01*
X151707187Y-92792809D01*
X151592093Y-92706649D01*
X151592086Y-92706645D01*
X151457379Y-92656403D01*
X151457372Y-92656401D01*
X151397844Y-92650000D01*
X150750000Y-92650000D01*
X150750000Y-93566988D01*
X150692993Y-93534075D01*
X150565826Y-93500000D01*
X150434174Y-93500000D01*
X150307007Y-93534075D01*
X150250000Y-93566988D01*
X150250000Y-92650000D01*
X149602155Y-92650000D01*
X149542627Y-92656401D01*
X149542620Y-92656403D01*
X149407913Y-92706645D01*
X149407906Y-92706649D01*
X149292812Y-92792809D01*
X149223266Y-92885710D01*
X149167332Y-92927580D01*
X149097640Y-92932564D01*
X149036318Y-92899078D01*
X149002833Y-92837754D01*
X149000000Y-92811398D01*
X149000000Y-86499998D01*
X151889477Y-86499998D01*
X151889477Y-86500001D01*
X151910279Y-86658013D01*
X151910280Y-86658015D01*
X151971270Y-86805259D01*
X151971271Y-86805261D01*
X151971272Y-86805262D01*
X152068295Y-86931705D01*
X152194738Y-87028728D01*
X152341985Y-87089720D01*
X152374562Y-87094008D01*
X152438458Y-87122273D01*
X152446059Y-87129266D01*
X152480581Y-87163788D01*
X152514066Y-87225111D01*
X152516900Y-87251469D01*
X152516900Y-93263600D01*
X152549822Y-93386471D01*
X152554596Y-93394739D01*
X152613424Y-93496631D01*
X152613426Y-93496633D01*
X152870732Y-93753939D01*
X152904217Y-93815262D01*
X152905990Y-93825432D01*
X152910280Y-93858014D01*
X152971270Y-94005259D01*
X152971271Y-94005261D01*
X152971272Y-94005262D01*
X153068295Y-94131705D01*
X153194738Y-94228728D01*
X153341985Y-94289720D01*
X153420992Y-94300121D01*
X153499999Y-94310523D01*
X153500000Y-94310523D01*
X153500001Y-94310523D01*
X153552671Y-94303588D01*
X153658015Y-94289720D01*
X153805262Y-94228728D01*
X153931705Y-94131705D01*
X154028728Y-94005262D01*
X154089720Y-93858015D01*
X154110523Y-93700000D01*
X154089720Y-93541985D01*
X154028728Y-93394739D01*
X153931705Y-93268295D01*
X153805262Y-93171272D01*
X153805261Y-93171271D01*
X153805259Y-93171270D01*
X153710073Y-93131843D01*
X153658015Y-93110280D01*
X153638326Y-93107687D01*
X153625432Y-93105990D01*
X153561536Y-93077722D01*
X153553939Y-93070732D01*
X153519419Y-93036212D01*
X153485934Y-92974889D01*
X153483100Y-92948531D01*
X153483100Y-86936401D01*
X153483100Y-86936399D01*
X153450178Y-86813530D01*
X153445404Y-86805262D01*
X153386576Y-86703369D01*
X153292300Y-86609093D01*
X153292290Y-86609084D01*
X153211934Y-86528728D01*
X153129264Y-86446058D01*
X153095781Y-86384737D01*
X153094013Y-86374598D01*
X153089720Y-86341985D01*
X153028728Y-86194739D01*
X152931706Y-86068296D01*
X152842701Y-86000000D01*
X152805262Y-85971272D01*
X152805261Y-85971271D01*
X152805259Y-85971270D01*
X152658015Y-85910280D01*
X152658013Y-85910279D01*
X152500001Y-85889477D01*
X152499999Y-85889477D01*
X152341986Y-85910279D01*
X152341984Y-85910280D01*
X152194739Y-85971271D01*
X152068295Y-86068295D01*
X151971271Y-86194739D01*
X151910280Y-86341984D01*
X151910279Y-86341986D01*
X151889477Y-86499998D01*
X149000000Y-86499998D01*
X149000000Y-78797844D01*
X187250000Y-78797844D01*
X187256401Y-78857372D01*
X187256403Y-78857379D01*
X187306645Y-78992086D01*
X187306649Y-78992093D01*
X187392809Y-79107187D01*
X187392812Y-79107190D01*
X187507906Y-79193350D01*
X187507913Y-79193354D01*
X187642620Y-79243596D01*
X187642627Y-79243598D01*
X187702155Y-79249999D01*
X187702172Y-79250000D01*
X188750000Y-79250000D01*
X189250000Y-79250000D01*
X190297828Y-79250000D01*
X190297844Y-79249999D01*
X190357372Y-79243598D01*
X190357379Y-79243596D01*
X190492086Y-79193354D01*
X190492093Y-79193350D01*
X190607187Y-79107190D01*
X190607190Y-79107187D01*
X190693350Y-78992093D01*
X190693354Y-78992086D01*
X190743596Y-78857379D01*
X190743598Y-78857372D01*
X190749999Y-78797844D01*
X190750000Y-78797827D01*
X190750000Y-77750000D01*
X189250000Y-77750000D01*
X189250000Y-79250000D01*
X188750000Y-79250000D01*
X188750000Y-77750000D01*
X187250000Y-77750000D01*
X187250000Y-78797844D01*
X149000000Y-78797844D01*
X149000000Y-77145335D01*
X149019685Y-77078296D01*
X149072489Y-77032541D01*
X149141647Y-77022597D01*
X149205203Y-77051622D01*
X149211681Y-77057654D01*
X150149659Y-77995632D01*
X150305194Y-78108632D01*
X150315874Y-78116392D01*
X150498939Y-78209669D01*
X150694342Y-78273159D01*
X150897271Y-78305300D01*
X150897272Y-78305300D01*
X182602728Y-78305300D01*
X182602729Y-78305300D01*
X182805658Y-78273159D01*
X182953141Y-78225238D01*
X183001062Y-78209669D01*
X183184127Y-78116392D01*
X183350346Y-77995627D01*
X185143818Y-76202155D01*
X187250000Y-76202155D01*
X187250000Y-77250000D01*
X188750000Y-77250000D01*
X189250000Y-77250000D01*
X190750000Y-77250000D01*
X190750000Y-76202172D01*
X190749999Y-76202155D01*
X190743598Y-76142627D01*
X190743596Y-76142620D01*
X190693354Y-76007913D01*
X190693350Y-76007906D01*
X190607190Y-75892812D01*
X190607187Y-75892809D01*
X190492093Y-75806649D01*
X190492086Y-75806645D01*
X190357379Y-75756403D01*
X190357372Y-75756401D01*
X190297844Y-75750000D01*
X189250000Y-75750000D01*
X189250000Y-77250000D01*
X188750000Y-77250000D01*
X188750000Y-75750000D01*
X187702155Y-75750000D01*
X187642627Y-75756401D01*
X187642620Y-75756403D01*
X187507913Y-75806645D01*
X187507906Y-75806649D01*
X187392812Y-75892809D01*
X187392809Y-75892812D01*
X187306649Y-76007906D01*
X187306645Y-76007913D01*
X187256403Y-76142620D01*
X187256401Y-76142627D01*
X187250000Y-76202155D01*
X185143818Y-76202155D01*
X192504354Y-68841619D01*
X192565677Y-68808134D01*
X192592035Y-68805300D01*
X193265700Y-68805300D01*
X193332739Y-68824985D01*
G37*
G04 #@! TD.AperFunction*
G04 #@! TA.AperFunction,Conductor*
G36*
X150750000Y-96106988D02*
G01*
X150692993Y-96074075D01*
X150565826Y-96040000D01*
X150434174Y-96040000D01*
X150307007Y-96074075D01*
X150250000Y-96106988D01*
X150250000Y-94433012D01*
X150307007Y-94465925D01*
X150434174Y-94500000D01*
X150565826Y-94500000D01*
X150692993Y-94465925D01*
X150750000Y-94433012D01*
X150750000Y-96106988D01*
G37*
G04 #@! TD.AperFunction*
G04 #@! TA.AperFunction,Conductor*
G36*
X195750000Y-96106988D02*
G01*
X195692993Y-96074075D01*
X195565826Y-96040000D01*
X195434174Y-96040000D01*
X195307007Y-96074075D01*
X195250000Y-96106988D01*
X195250000Y-94433012D01*
X195307007Y-94465925D01*
X195434174Y-94500000D01*
X195565826Y-94500000D01*
X195692993Y-94465925D01*
X195750000Y-94433012D01*
X195750000Y-96106988D01*
G37*
G04 #@! TD.AperFunction*
G04 #@! TA.AperFunction,Conductor*
G36*
X196387015Y-48712787D02*
G01*
X196430844Y-48734401D01*
X196482263Y-48781706D01*
X196500000Y-48845613D01*
X196500000Y-52439741D01*
X196480315Y-52506780D01*
X196427511Y-52552535D01*
X196358353Y-52562479D01*
X196337685Y-52557673D01*
X196327835Y-52554473D01*
X196110181Y-52520000D01*
X195750000Y-52520000D01*
X195750000Y-53486988D01*
X195692993Y-53454075D01*
X195565826Y-53420000D01*
X195434174Y-53420000D01*
X195307007Y-53454075D01*
X195250000Y-53486988D01*
X195250000Y-52520000D01*
X194889819Y-52520000D01*
X194672164Y-52554473D01*
X194462589Y-52622567D01*
X194266239Y-52722613D01*
X194087958Y-52852142D01*
X193932142Y-53007958D01*
X193802613Y-53186239D01*
X193702567Y-53382589D01*
X193634473Y-53592161D01*
X193634473Y-53592164D01*
X193622145Y-53670000D01*
X195066988Y-53670000D01*
X195034075Y-53727007D01*
X195000000Y-53854174D01*
X195000000Y-53985826D01*
X195034075Y-54112993D01*
X195066988Y-54170000D01*
X193622145Y-54170000D01*
X193634473Y-54247835D01*
X193634473Y-54247838D01*
X193702567Y-54457410D01*
X193802613Y-54653760D01*
X193932142Y-54832041D01*
X194087958Y-54987857D01*
X194266239Y-55117386D01*
X194406343Y-55188773D01*
X194457139Y-55236748D01*
X194473934Y-55304569D01*
X194451397Y-55370704D01*
X194406344Y-55409742D01*
X194368287Y-55429133D01*
X194305726Y-55474587D01*
X194214800Y-55540649D01*
X194214798Y-55540651D01*
X194214797Y-55540651D01*
X194080651Y-55674797D01*
X194080651Y-55674798D01*
X194080649Y-55674800D01*
X194032758Y-55740715D01*
X193969135Y-55828284D01*
X193927909Y-55909195D01*
X193879934Y-55959991D01*
X193817424Y-55976900D01*
X192226399Y-55976900D01*
X192103528Y-56009822D01*
X191993369Y-56073424D01*
X191993366Y-56073426D01*
X186113426Y-61953366D01*
X186113424Y-61953369D01*
X186049822Y-62063528D01*
X186016900Y-62186399D01*
X186016900Y-69593182D01*
X185997215Y-69660221D01*
X185991277Y-69668667D01*
X185971272Y-69694738D01*
X185910280Y-69841984D01*
X185910279Y-69841986D01*
X185889477Y-69999998D01*
X185889477Y-70000001D01*
X185910279Y-70158013D01*
X185910280Y-70158015D01*
X185971270Y-70305259D01*
X185971271Y-70305261D01*
X185971272Y-70305262D01*
X186068295Y-70431705D01*
X186194738Y-70528728D01*
X186341985Y-70589720D01*
X186420992Y-70600121D01*
X186499999Y-70610523D01*
X186500000Y-70610523D01*
X186500001Y-70610523D01*
X186552671Y-70603588D01*
X186658015Y-70589720D01*
X186775664Y-70540987D01*
X186845131Y-70533519D01*
X186907610Y-70564794D01*
X186943263Y-70624882D01*
X186940770Y-70694708D01*
X186910796Y-70743230D01*
X181995646Y-75658381D01*
X181934323Y-75691866D01*
X181907965Y-75694700D01*
X151592035Y-75694700D01*
X151524996Y-75675015D01*
X151504354Y-75658381D01*
X151091619Y-75245646D01*
X151058134Y-75184323D01*
X151055300Y-75157965D01*
X151055300Y-65999998D01*
X151889477Y-65999998D01*
X151889477Y-66000001D01*
X151910279Y-66158013D01*
X151910280Y-66158015D01*
X151971270Y-66305259D01*
X151971271Y-66305261D01*
X151971272Y-66305262D01*
X151991275Y-66331331D01*
X152016470Y-66396498D01*
X152016900Y-66406817D01*
X152016900Y-74093182D01*
X151997215Y-74160221D01*
X151991277Y-74168667D01*
X151971272Y-74194738D01*
X151910280Y-74341984D01*
X151910279Y-74341986D01*
X151889477Y-74499998D01*
X151889477Y-74500001D01*
X151910279Y-74658013D01*
X151910280Y-74658015D01*
X151971270Y-74805259D01*
X151971271Y-74805261D01*
X151971272Y-74805262D01*
X152068295Y-74931705D01*
X152194738Y-75028728D01*
X152341985Y-75089720D01*
X152420992Y-75100121D01*
X152499999Y-75110523D01*
X152500000Y-75110523D01*
X152500001Y-75110523D01*
X152552671Y-75103588D01*
X152658015Y-75089720D01*
X152805262Y-75028728D01*
X152931705Y-74931705D01*
X153028728Y-74805262D01*
X153089720Y-74658015D01*
X153110523Y-74500000D01*
X153089720Y-74341985D01*
X153028728Y-74194739D01*
X153008723Y-74168667D01*
X152983530Y-74103498D01*
X152983100Y-74093182D01*
X152983100Y-66406817D01*
X153002785Y-66339778D01*
X153008715Y-66331342D01*
X153028728Y-66305262D01*
X153089720Y-66158015D01*
X153110523Y-66000000D01*
X153089720Y-65841985D01*
X153028728Y-65694739D01*
X153007997Y-65667722D01*
X152931706Y-65568296D01*
X152805259Y-65471270D01*
X152658015Y-65410280D01*
X152658013Y-65410279D01*
X152500001Y-65389477D01*
X152499999Y-65389477D01*
X152341986Y-65410279D01*
X152341984Y-65410280D01*
X152194739Y-65471271D01*
X152068295Y-65568295D01*
X151971271Y-65694739D01*
X151910280Y-65841984D01*
X151910279Y-65841986D01*
X151889477Y-65999998D01*
X151055300Y-65999998D01*
X151055300Y-61999998D01*
X153889477Y-61999998D01*
X153889477Y-62000001D01*
X153910279Y-62158013D01*
X153910280Y-62158015D01*
X153971270Y-62305259D01*
X153971271Y-62305261D01*
X153971272Y-62305262D01*
X154068295Y-62431705D01*
X154194738Y-62528728D01*
X154341985Y-62589720D01*
X154420992Y-62600121D01*
X154499999Y-62610523D01*
X154500000Y-62610523D01*
X154500001Y-62610523D01*
X154552671Y-62603588D01*
X154658015Y-62589720D01*
X154805262Y-62528728D01*
X154931705Y-62431705D01*
X155028728Y-62305262D01*
X155089720Y-62158015D01*
X155094009Y-62125432D01*
X155122272Y-62061541D01*
X155129254Y-62053951D01*
X157786421Y-59396783D01*
X157786426Y-59396780D01*
X157796629Y-59386576D01*
X157796631Y-59386576D01*
X157886576Y-59296631D01*
X157950178Y-59186470D01*
X157978890Y-59079315D01*
X157983101Y-59063600D01*
X157983101Y-58936399D01*
X157983101Y-58928804D01*
X157983100Y-58928786D01*
X157983100Y-56251467D01*
X158002785Y-56184428D01*
X158019414Y-56163791D01*
X159536421Y-54646783D01*
X159536426Y-54646780D01*
X159546629Y-54636576D01*
X159546631Y-54636576D01*
X159636576Y-54546631D01*
X159700178Y-54436470D01*
X159733100Y-54313601D01*
X159733100Y-53156817D01*
X159752785Y-53089778D01*
X159758715Y-53081342D01*
X159778728Y-53055262D01*
X159839720Y-52908015D01*
X159860523Y-52750000D01*
X159856917Y-52722613D01*
X159839720Y-52591986D01*
X159839720Y-52591985D01*
X159778728Y-52444739D01*
X159774893Y-52439741D01*
X159681706Y-52318296D01*
X159555259Y-52221270D01*
X159408015Y-52160280D01*
X159408013Y-52160279D01*
X159250001Y-52139477D01*
X159249999Y-52139477D01*
X159091986Y-52160279D01*
X159091984Y-52160280D01*
X158944739Y-52221271D01*
X158818295Y-52318295D01*
X158721271Y-52444739D01*
X158660280Y-52591984D01*
X158660279Y-52591986D01*
X158639477Y-52749998D01*
X158639477Y-52750001D01*
X158660279Y-52908013D01*
X158660280Y-52908015D01*
X158721270Y-53055259D01*
X158721271Y-53055261D01*
X158721272Y-53055262D01*
X158741275Y-53081331D01*
X158766470Y-53146498D01*
X158766900Y-53156817D01*
X158766900Y-53998530D01*
X158747215Y-54065569D01*
X158730581Y-54086211D01*
X157185927Y-55630864D01*
X157185928Y-55630865D01*
X157113424Y-55703369D01*
X157049822Y-55813528D01*
X157016900Y-55936399D01*
X157016900Y-58748530D01*
X156997215Y-58815569D01*
X156980581Y-58836211D01*
X154446059Y-61370732D01*
X154384736Y-61404217D01*
X154374566Y-61405990D01*
X154341984Y-61410280D01*
X154341983Y-61410280D01*
X154194739Y-61471271D01*
X154068295Y-61568295D01*
X153971271Y-61694739D01*
X153910280Y-61841984D01*
X153910279Y-61841986D01*
X153889477Y-61999998D01*
X151055300Y-61999998D01*
X151055300Y-60342035D01*
X151074985Y-60274996D01*
X151091619Y-60254354D01*
X151104355Y-60241618D01*
X151165678Y-60208133D01*
X151192036Y-60205299D01*
X151945572Y-60205299D01*
X151945578Y-60205299D01*
X151971109Y-60202338D01*
X152075525Y-60156234D01*
X152156234Y-60075525D01*
X152202338Y-59971109D01*
X152205300Y-59945579D01*
X152205299Y-58054422D01*
X152202338Y-58028891D01*
X152156234Y-57924475D01*
X152075525Y-57843766D01*
X152075523Y-57843765D01*
X151971110Y-57797662D01*
X151945580Y-57794700D01*
X151945579Y-57794700D01*
X151551903Y-57794700D01*
X151484864Y-57775015D01*
X151439109Y-57722211D01*
X151429165Y-57653053D01*
X151458190Y-57589497D01*
X151495608Y-57560215D01*
X151515002Y-57550332D01*
X151631715Y-57490865D01*
X151785200Y-57379351D01*
X151919351Y-57245200D01*
X152030865Y-57091715D01*
X152116995Y-56922675D01*
X152175621Y-56742242D01*
X152205300Y-56554859D01*
X152205300Y-56529269D01*
X152224985Y-56462230D01*
X152241619Y-56441588D01*
X152774012Y-55909195D01*
X153386576Y-55296631D01*
X153450178Y-55186470D01*
X153483100Y-55063601D01*
X153483100Y-54936400D01*
X153483100Y-53406817D01*
X153502785Y-53339778D01*
X153508715Y-53331342D01*
X153528728Y-53305262D01*
X153589720Y-53158015D01*
X153610523Y-53000000D01*
X153609767Y-52994260D01*
X153589720Y-52841986D01*
X153589720Y-52841985D01*
X153528728Y-52694739D01*
X153431705Y-52568295D01*
X153305262Y-52471272D01*
X153305261Y-52471271D01*
X153305259Y-52471270D01*
X153158015Y-52410280D01*
X153158013Y-52410279D01*
X153000001Y-52389477D01*
X152999999Y-52389477D01*
X152841986Y-52410279D01*
X152841984Y-52410280D01*
X152694739Y-52471271D01*
X152568295Y-52568295D01*
X152471271Y-52694739D01*
X152410280Y-52841984D01*
X152410279Y-52841986D01*
X152389477Y-52999998D01*
X152389477Y-53000001D01*
X152398203Y-53066281D01*
X152387437Y-53135316D01*
X152341058Y-53187572D01*
X152273789Y-53206457D01*
X152206988Y-53185976D01*
X152174946Y-53155352D01*
X152067857Y-53007959D01*
X152067857Y-53007958D01*
X151912041Y-52852142D01*
X151733760Y-52722613D01*
X151537410Y-52622567D01*
X151327835Y-52554473D01*
X151110181Y-52520000D01*
X150750000Y-52520000D01*
X150750000Y-53486988D01*
X150692993Y-53454075D01*
X150565826Y-53420000D01*
X150434174Y-53420000D01*
X150307007Y-53454075D01*
X150250000Y-53486988D01*
X150250000Y-52520000D01*
X149889819Y-52520000D01*
X149672164Y-52554473D01*
X149462589Y-52622567D01*
X149266240Y-52722612D01*
X149196885Y-52773002D01*
X149131078Y-52796481D01*
X149063024Y-52780655D01*
X149014330Y-52730549D01*
X149000000Y-52672683D01*
X149000000Y-51478711D01*
X171149500Y-51478711D01*
X171149500Y-51721288D01*
X171181161Y-51961785D01*
X171243947Y-52196104D01*
X171294561Y-52318296D01*
X171336776Y-52420212D01*
X171458064Y-52630289D01*
X171458066Y-52630292D01*
X171458067Y-52630293D01*
X171605733Y-52822736D01*
X171605739Y-52822743D01*
X171777256Y-52994260D01*
X171777262Y-52994265D01*
X171969711Y-53141936D01*
X172179788Y-53263224D01*
X172403900Y-53356054D01*
X172638211Y-53418838D01*
X172818586Y-53442584D01*
X172878711Y-53450500D01*
X172878712Y-53450500D01*
X173121289Y-53450500D01*
X173169388Y-53444167D01*
X173361789Y-53418838D01*
X173596100Y-53356054D01*
X173820212Y-53263224D01*
X174030289Y-53141936D01*
X174222738Y-52994265D01*
X174394265Y-52822738D01*
X174541936Y-52630289D01*
X174663224Y-52420212D01*
X174756054Y-52196100D01*
X174818838Y-51961789D01*
X174850500Y-51721288D01*
X174850500Y-51478712D01*
X174818838Y-51238211D01*
X174756054Y-51003900D01*
X174663224Y-50779788D01*
X174541936Y-50569711D01*
X174394265Y-50377262D01*
X174394260Y-50377256D01*
X174222743Y-50205739D01*
X174222736Y-50205733D01*
X174030293Y-50058067D01*
X174030292Y-50058066D01*
X174030289Y-50058064D01*
X173820212Y-49936776D01*
X173820205Y-49936773D01*
X173596104Y-49843947D01*
X173361785Y-49781161D01*
X173121289Y-49749500D01*
X173121288Y-49749500D01*
X172878712Y-49749500D01*
X172878711Y-49749500D01*
X172638214Y-49781161D01*
X172403895Y-49843947D01*
X172179794Y-49936773D01*
X172179785Y-49936777D01*
X171969706Y-50058067D01*
X171777263Y-50205733D01*
X171777256Y-50205739D01*
X171605739Y-50377256D01*
X171605733Y-50377263D01*
X171458067Y-50569706D01*
X171336777Y-50779785D01*
X171336773Y-50779794D01*
X171243947Y-51003895D01*
X171181161Y-51238214D01*
X171149500Y-51478711D01*
X149000000Y-51478711D01*
X149000000Y-49231034D01*
X149019685Y-49163995D01*
X149030771Y-49149276D01*
X149080786Y-49092244D01*
X149092244Y-49080786D01*
X149276681Y-48919039D01*
X149289527Y-48909182D01*
X149493498Y-48772893D01*
X149507533Y-48764790D01*
X149612984Y-48712787D01*
X149667827Y-48700000D01*
X196332173Y-48700000D01*
X196387015Y-48712787D01*
G37*
G04 #@! TD.AperFunction*
G04 #@! TA.AperFunction,Conductor*
G36*
X193884463Y-56962785D02*
G01*
X193927909Y-57010805D01*
X193969135Y-57091715D01*
X194080649Y-57245200D01*
X194214800Y-57379351D01*
X194368285Y-57490865D01*
X194504393Y-57560215D01*
X194555189Y-57608189D01*
X194571984Y-57676010D01*
X194549447Y-57742145D01*
X194494732Y-57785597D01*
X194448098Y-57794700D01*
X194054428Y-57794700D01*
X194054405Y-57794702D01*
X194028893Y-57797661D01*
X194028890Y-57797662D01*
X193924476Y-57843765D01*
X193898148Y-57870093D01*
X193836824Y-57903577D01*
X193767133Y-57898591D01*
X193712093Y-57857897D01*
X193696068Y-57837013D01*
X193681705Y-57818295D01*
X193555262Y-57721272D01*
X193555261Y-57721271D01*
X193555259Y-57721270D01*
X193408015Y-57660280D01*
X193408013Y-57660279D01*
X193250001Y-57639477D01*
X193249999Y-57639477D01*
X193091986Y-57660279D01*
X193091984Y-57660280D01*
X192944739Y-57721271D01*
X192818295Y-57818295D01*
X192721271Y-57944739D01*
X192660280Y-58091984D01*
X192660279Y-58091986D01*
X192639477Y-58249998D01*
X192639477Y-58250001D01*
X192660279Y-58408013D01*
X192660280Y-58408015D01*
X192721270Y-58555259D01*
X192721271Y-58555261D01*
X192721272Y-58555262D01*
X192741275Y-58581331D01*
X192766470Y-58646498D01*
X192766900Y-58656817D01*
X192766900Y-64581571D01*
X192764379Y-64606449D01*
X192671885Y-65058093D01*
X192664969Y-65080664D01*
X192660280Y-65091984D01*
X192639477Y-65249999D01*
X192639477Y-65250001D01*
X192660279Y-65408013D01*
X192660280Y-65408015D01*
X192721270Y-65555259D01*
X192721271Y-65555261D01*
X192721272Y-65555262D01*
X192818295Y-65681705D01*
X192944738Y-65778728D01*
X193091985Y-65839720D01*
X193250000Y-65860523D01*
X193281706Y-65856348D01*
X193350737Y-65867112D01*
X193402994Y-65913491D01*
X193421881Y-65980759D01*
X193416867Y-66014221D01*
X193402272Y-66063927D01*
X193402270Y-66063935D01*
X193402270Y-66063938D01*
X193398759Y-66088350D01*
X193369735Y-66151903D01*
X193310957Y-66189677D01*
X193276023Y-66194700D01*
X192102729Y-66194700D01*
X191897271Y-66194700D01*
X191829628Y-66205413D01*
X191694340Y-66226841D01*
X191498936Y-66290332D01*
X191315870Y-66383610D01*
X191149659Y-66504367D01*
X187243230Y-70410796D01*
X187181907Y-70444281D01*
X187112215Y-70439297D01*
X187056282Y-70397425D01*
X187031865Y-70331961D01*
X187040987Y-70275665D01*
X187089720Y-70158015D01*
X187110523Y-70000000D01*
X187089720Y-69841985D01*
X187028728Y-69694739D01*
X187008723Y-69668667D01*
X186983530Y-69603498D01*
X186983100Y-69593182D01*
X186983100Y-62501469D01*
X187002785Y-62434430D01*
X187019419Y-62413788D01*
X192453788Y-56979419D01*
X192515111Y-56945934D01*
X192541469Y-56943100D01*
X193817424Y-56943100D01*
X193884463Y-56962785D01*
G37*
G04 #@! TD.AperFunction*
G04 #@! TA.AperFunction,Conductor*
G36*
X197043039Y-65719685D02*
G01*
X197088794Y-65772489D01*
X197100000Y-65824000D01*
X197100000Y-82276000D01*
X197080315Y-82343039D01*
X197027511Y-82388794D01*
X196976000Y-82400000D01*
X194675066Y-82400000D01*
X194608027Y-82380315D01*
X194562272Y-82327511D01*
X194552328Y-82258353D01*
X194560505Y-82228548D01*
X194576095Y-82190906D01*
X194589720Y-82158015D01*
X194610523Y-82000000D01*
X194589720Y-81841985D01*
X194528728Y-81694739D01*
X194508723Y-81668667D01*
X194483530Y-81603498D01*
X194483100Y-81593182D01*
X194483100Y-74406817D01*
X194502785Y-74339778D01*
X194508715Y-74331342D01*
X194528728Y-74305262D01*
X194589720Y-74158015D01*
X194610523Y-74000000D01*
X194589720Y-73841985D01*
X194528728Y-73694739D01*
X194528728Y-73694738D01*
X194426758Y-73561847D01*
X194429239Y-73559942D01*
X194402834Y-73511585D01*
X194400000Y-73485227D01*
X194400000Y-69300000D01*
X194399999Y-69299999D01*
X193789934Y-69125695D01*
X193730882Y-69088351D01*
X193701394Y-69025008D01*
X193700000Y-69006466D01*
X193700000Y-66151362D01*
X193719685Y-66084323D01*
X193736319Y-66063681D01*
X194063681Y-65736319D01*
X194125004Y-65702834D01*
X194151362Y-65700000D01*
X196976000Y-65700000D01*
X197043039Y-65719685D01*
G37*
G04 #@! TD.AperFunction*
G04 #@! TA.AperFunction,Conductor*
G36*
X193426526Y-64653427D02*
G01*
X193429715Y-64659353D01*
X193525232Y-65125763D01*
X193523535Y-65134555D01*
X193518281Y-65138906D01*
X193254511Y-65249115D01*
X193245556Y-65249142D01*
X193245489Y-65249115D01*
X192981718Y-65138906D01*
X192975406Y-65132554D01*
X192974767Y-65125764D01*
X193070285Y-64659353D01*
X193075302Y-64651935D01*
X193081747Y-64650000D01*
X193418253Y-64650000D01*
X193426526Y-64653427D01*
G37*
G04 #@! TD.AperFunction*
M02*
