G04 #@! TF.GenerationSoftware,KiCad,Pcbnew,8.0.5*
G04 #@! TF.CreationDate,2024-11-25T19:05:47-05:00*
G04 #@! TF.ProjectId,Neo7SegmentMini,4e656f37-5365-4676-9d65-6e744d696e69,rev?*
G04 #@! TF.SameCoordinates,Original*
G04 #@! TF.FileFunction,Legend,Top*
G04 #@! TF.FilePolarity,Positive*
%FSLAX46Y46*%
G04 Gerber Fmt 4.6, Leading zero omitted, Abs format (unit mm)*
G04 Created by KiCad (PCBNEW 8.0.5) date 2024-11-25 19:05:47*
%MOMM*%
%LPD*%
G01*
G04 APERTURE LIST*
G04 Aperture macros list*
%AMRoundRect*
0 Rectangle with rounded corners*
0 $1 Rounding radius*
0 $2 $3 $4 $5 $6 $7 $8 $9 X,Y pos of 4 corners*
0 Add a 4 corners polygon primitive as box body*
4,1,4,$2,$3,$4,$5,$6,$7,$8,$9,$2,$3,0*
0 Add four circle primitives for the rounded corners*
1,1,$1+$1,$2,$3*
1,1,$1+$1,$4,$5*
1,1,$1+$1,$6,$7*
1,1,$1+$1,$8,$9*
0 Add four rect primitives between the rounded corners*
20,1,$1+$1,$2,$3,$4,$5,0*
20,1,$1+$1,$4,$5,$6,$7,0*
20,1,$1+$1,$6,$7,$8,$9,0*
20,1,$1+$1,$8,$9,$2,$3,0*%
G04 Aperture macros list end*
%ADD10C,0.100000*%
%ADD11C,0.150000*%
%ADD12C,0.120000*%
%ADD13R,2.800000X1.800000*%
%ADD14O,2.800000X1.800000*%
%ADD15RoundRect,0.250000X-0.650000X0.325000X-0.650000X-0.325000X0.650000X-0.325000X0.650000X0.325000X0*%
%ADD16R,1.500000X0.900000*%
%ADD17R,1.700000X1.700000*%
%ADD18O,1.700000X1.700000*%
%ADD19C,3.200000*%
%ADD20RoundRect,0.250000X-0.312500X-0.625000X0.312500X-0.625000X0.312500X0.625000X-0.312500X0.625000X0*%
G04 APERTURE END LIST*
D10*
X161100000Y-85750000D02*
X162100000Y-85750000D01*
X162100000Y-86000000D01*
X161100000Y-86000000D01*
X161100000Y-85750000D01*
G36*
X161100000Y-85750000D02*
G01*
X162100000Y-85750000D01*
X162100000Y-86000000D01*
X161100000Y-86000000D01*
X161100000Y-85750000D01*
G37*
X187400000Y-49400000D02*
X187400000Y-54400000D01*
X191875000Y-62750000D02*
X191375000Y-62000000D01*
X192375000Y-62000000D01*
X191875000Y-62750000D01*
G36*
X191875000Y-62750000D02*
G01*
X191375000Y-62000000D01*
X192375000Y-62000000D01*
X191875000Y-62750000D01*
G37*
X185250000Y-86375000D02*
X184500000Y-85875000D01*
X185250000Y-85375000D01*
X185250000Y-86375000D01*
G36*
X185250000Y-86375000D02*
G01*
X184500000Y-85875000D01*
X185250000Y-85375000D01*
X185250000Y-86375000D01*
G37*
X192125000Y-78750000D02*
X191625000Y-78000000D01*
X192625000Y-78000000D01*
X192125000Y-78750000D01*
G36*
X192125000Y-78750000D02*
G01*
X191625000Y-78000000D01*
X192625000Y-78000000D01*
X192125000Y-78750000D01*
G37*
X182400000Y-54400000D02*
X182400000Y-49400000D01*
X187400000Y-49900000D02*
X187600000Y-49900000D01*
X187600000Y-50900000D01*
X187400000Y-50900000D01*
X187400000Y-49900000D01*
G36*
X187400000Y-49900000D02*
G01*
X187600000Y-49900000D01*
X187600000Y-50900000D01*
X187400000Y-50900000D01*
X187400000Y-49900000D01*
G37*
X183400000Y-49400000D02*
X182400000Y-50400000D01*
X185150000Y-69750000D02*
X186150000Y-69750000D01*
X186150000Y-70000000D01*
X185150000Y-70000000D01*
X185150000Y-69750000D01*
G36*
X185150000Y-69750000D02*
G01*
X186150000Y-69750000D01*
X186150000Y-70000000D01*
X185150000Y-70000000D01*
X185150000Y-69750000D01*
G37*
X182400000Y-49400000D02*
X187400000Y-49400000D01*
X186702776Y-51900000D02*
G75*
G02*
X183097224Y-51900000I-1802776J0D01*
G01*
X183097224Y-51900000D02*
G75*
G02*
X186702776Y-51900000I1802776J0D01*
G01*
X185250000Y-85750000D02*
X186250000Y-85750000D01*
X186250000Y-86000000D01*
X185250000Y-86000000D01*
X185250000Y-85750000D01*
G36*
X185250000Y-85750000D02*
G01*
X186250000Y-85750000D01*
X186250000Y-86000000D01*
X185250000Y-86000000D01*
X185250000Y-85750000D01*
G37*
X185850000Y-61975000D02*
X185100000Y-62475000D01*
X185100000Y-61475000D01*
X185850000Y-61975000D01*
G36*
X185850000Y-61975000D02*
G01*
X185100000Y-62475000D01*
X185100000Y-61475000D01*
X185850000Y-61975000D01*
G37*
X154000000Y-86750000D02*
X153500000Y-86000000D01*
X154500000Y-86000000D01*
X154000000Y-86750000D01*
G36*
X154000000Y-86750000D02*
G01*
X153500000Y-86000000D01*
X154500000Y-86000000D01*
X154000000Y-86750000D01*
G37*
X185150000Y-70375000D02*
X184400000Y-69875000D01*
X185150000Y-69375000D01*
X185150000Y-70375000D01*
G36*
X185150000Y-70375000D02*
G01*
X184400000Y-69875000D01*
X185150000Y-69375000D01*
X185150000Y-70375000D01*
G37*
X161000000Y-70375000D02*
X160250000Y-69875000D01*
X161000000Y-69375000D01*
X161000000Y-70375000D01*
G36*
X161000000Y-70375000D02*
G01*
X160250000Y-69875000D01*
X161000000Y-69375000D01*
X161000000Y-70375000D01*
G37*
X182200000Y-49900000D02*
X182400000Y-49900000D01*
X182400000Y-50900000D01*
X182200000Y-50900000D01*
X182200000Y-49900000D01*
G36*
X182200000Y-49900000D02*
G01*
X182400000Y-49900000D01*
X182400000Y-50900000D01*
X182200000Y-50900000D01*
X182200000Y-49900000D01*
G37*
X153875000Y-85000000D02*
X154125000Y-85000000D01*
X154125000Y-86000000D01*
X153875000Y-86000000D01*
X153875000Y-85000000D01*
G36*
X153875000Y-85000000D02*
G01*
X154125000Y-85000000D01*
X154125000Y-86000000D01*
X153875000Y-86000000D01*
X153875000Y-85000000D01*
G37*
X187400000Y-53000000D02*
X187600000Y-53000000D01*
X187600000Y-54000000D01*
X187400000Y-54000000D01*
X187400000Y-53000000D01*
G36*
X187400000Y-53000000D02*
G01*
X187600000Y-53000000D01*
X187600000Y-54000000D01*
X187400000Y-54000000D01*
X187400000Y-53000000D01*
G37*
X159950000Y-61850000D02*
X160950000Y-61850000D01*
X160950000Y-62100000D01*
X159950000Y-62100000D01*
X159950000Y-61850000D01*
G36*
X159950000Y-61850000D02*
G01*
X160950000Y-61850000D01*
X160950000Y-62100000D01*
X159950000Y-62100000D01*
X159950000Y-61850000D01*
G37*
X184100000Y-61850000D02*
X185100000Y-61850000D01*
X185100000Y-62100000D01*
X184100000Y-62100000D01*
X184100000Y-61850000D01*
G36*
X184100000Y-61850000D02*
G01*
X185100000Y-61850000D01*
X185100000Y-62100000D01*
X184100000Y-62100000D01*
X184100000Y-61850000D01*
G37*
X192000000Y-77000000D02*
X192250000Y-77000000D01*
X192250000Y-78000000D01*
X192000000Y-78000000D01*
X192000000Y-77000000D01*
G36*
X192000000Y-77000000D02*
G01*
X192250000Y-77000000D01*
X192250000Y-78000000D01*
X192000000Y-78000000D01*
X192000000Y-77000000D01*
G37*
X161000000Y-69750000D02*
X162000000Y-69750000D01*
X162000000Y-70000000D01*
X161000000Y-70000000D01*
X161000000Y-69750000D01*
G36*
X161000000Y-69750000D02*
G01*
X162000000Y-69750000D01*
X162000000Y-70000000D01*
X161000000Y-70000000D01*
X161000000Y-69750000D01*
G37*
X183900000Y-77800000D02*
X184900000Y-77800000D01*
X184900000Y-78050000D01*
X183900000Y-78050000D01*
X183900000Y-77800000D01*
G36*
X183900000Y-77800000D02*
G01*
X184900000Y-77800000D01*
X184900000Y-78050000D01*
X183900000Y-78050000D01*
X183900000Y-77800000D01*
G37*
X161100000Y-86375000D02*
X160350000Y-85875000D01*
X161100000Y-85375000D01*
X161100000Y-86375000D01*
G36*
X161100000Y-86375000D02*
G01*
X160350000Y-85875000D01*
X161100000Y-85375000D01*
X161100000Y-86375000D01*
G37*
X183900000Y-93300000D02*
X184900000Y-93300000D01*
X184900000Y-93550000D01*
X183900000Y-93550000D01*
X183900000Y-93300000D01*
G36*
X183900000Y-93300000D02*
G01*
X184900000Y-93300000D01*
X184900000Y-93550000D01*
X183900000Y-93550000D01*
X183900000Y-93300000D01*
G37*
X182200000Y-53000000D02*
X182400000Y-53000000D01*
X182400000Y-54000000D01*
X182200000Y-54000000D01*
X182200000Y-53000000D01*
G36*
X182200000Y-53000000D02*
G01*
X182400000Y-53000000D01*
X182400000Y-54000000D01*
X182200000Y-54000000D01*
X182200000Y-53000000D01*
G37*
X159750000Y-93300000D02*
X160750000Y-93300000D01*
X160750000Y-93550000D01*
X159750000Y-93550000D01*
X159750000Y-93300000D01*
G36*
X159750000Y-93300000D02*
G01*
X160750000Y-93300000D01*
X160750000Y-93550000D01*
X159750000Y-93550000D01*
X159750000Y-93300000D01*
G37*
X153375000Y-69000000D02*
X153625000Y-69000000D01*
X153625000Y-70000000D01*
X153375000Y-70000000D01*
X153375000Y-69000000D01*
G36*
X153375000Y-69000000D02*
G01*
X153625000Y-69000000D01*
X153625000Y-70000000D01*
X153375000Y-70000000D01*
X153375000Y-69000000D01*
G37*
X185650000Y-93425000D02*
X184900000Y-93925000D01*
X184900000Y-92925000D01*
X185650000Y-93425000D01*
G36*
X185650000Y-93425000D02*
G01*
X184900000Y-93925000D01*
X184900000Y-92925000D01*
X185650000Y-93425000D01*
G37*
X153500000Y-70750000D02*
X153000000Y-70000000D01*
X154000000Y-70000000D01*
X153500000Y-70750000D01*
G36*
X153500000Y-70750000D02*
G01*
X153000000Y-70000000D01*
X154000000Y-70000000D01*
X153500000Y-70750000D01*
G37*
X161500000Y-77925000D02*
X160750000Y-78425000D01*
X160750000Y-77425000D01*
X161500000Y-77925000D01*
G36*
X161500000Y-77925000D02*
G01*
X160750000Y-78425000D01*
X160750000Y-77425000D01*
X161500000Y-77925000D01*
G37*
X159750000Y-77800000D02*
X160750000Y-77800000D01*
X160750000Y-78050000D01*
X159750000Y-78050000D01*
X159750000Y-77800000D01*
G36*
X159750000Y-77800000D02*
G01*
X160750000Y-77800000D01*
X160750000Y-78050000D01*
X159750000Y-78050000D01*
X159750000Y-77800000D01*
G37*
X161500000Y-93425000D02*
X160750000Y-93925000D01*
X160750000Y-92925000D01*
X161500000Y-93425000D01*
G36*
X161500000Y-93425000D02*
G01*
X160750000Y-93925000D01*
X160750000Y-92925000D01*
X161500000Y-93425000D01*
G37*
X187400000Y-54400000D02*
X182400000Y-54400000D01*
X161700000Y-61975000D02*
X160950000Y-62475000D01*
X160950000Y-61475000D01*
X161700000Y-61975000D01*
G36*
X161700000Y-61975000D02*
G01*
X160950000Y-62475000D01*
X160950000Y-61475000D01*
X161700000Y-61975000D01*
G37*
X191750000Y-61000000D02*
X192000000Y-61000000D01*
X192000000Y-62000000D01*
X191750000Y-62000000D01*
X191750000Y-61000000D01*
G36*
X191750000Y-61000000D02*
G01*
X192000000Y-61000000D01*
X192000000Y-62000000D01*
X191750000Y-62000000D01*
X191750000Y-61000000D01*
G37*
X185650000Y-77925000D02*
X184900000Y-78425000D01*
X184900000Y-77425000D01*
X185650000Y-77925000D01*
G36*
X185650000Y-77925000D02*
G01*
X184900000Y-78425000D01*
X184900000Y-77425000D01*
X185650000Y-77925000D01*
G37*
X187961027Y-53272419D02*
X188294360Y-54272419D01*
X188294360Y-54272419D02*
X188627693Y-53272419D01*
X188961027Y-54272419D02*
X188961027Y-53272419D01*
X188961027Y-53272419D02*
X189199122Y-53272419D01*
X189199122Y-53272419D02*
X189341979Y-53320038D01*
X189341979Y-53320038D02*
X189437217Y-53415276D01*
X189437217Y-53415276D02*
X189484836Y-53510514D01*
X189484836Y-53510514D02*
X189532455Y-53700990D01*
X189532455Y-53700990D02*
X189532455Y-53843847D01*
X189532455Y-53843847D02*
X189484836Y-54034323D01*
X189484836Y-54034323D02*
X189437217Y-54129561D01*
X189437217Y-54129561D02*
X189341979Y-54224800D01*
X189341979Y-54224800D02*
X189199122Y-54272419D01*
X189199122Y-54272419D02*
X188961027Y-54272419D01*
X189961027Y-54272419D02*
X189961027Y-53272419D01*
X189961027Y-53272419D02*
X190199122Y-53272419D01*
X190199122Y-53272419D02*
X190341979Y-53320038D01*
X190341979Y-53320038D02*
X190437217Y-53415276D01*
X190437217Y-53415276D02*
X190484836Y-53510514D01*
X190484836Y-53510514D02*
X190532455Y-53700990D01*
X190532455Y-53700990D02*
X190532455Y-53843847D01*
X190532455Y-53843847D02*
X190484836Y-54034323D01*
X190484836Y-54034323D02*
X190437217Y-54129561D01*
X190437217Y-54129561D02*
X190341979Y-54224800D01*
X190341979Y-54224800D02*
X190199122Y-54272419D01*
X190199122Y-54272419D02*
X189961027Y-54272419D01*
X187903884Y-50272419D02*
X187903884Y-49272419D01*
X187903884Y-49272419D02*
X188141979Y-49272419D01*
X188141979Y-49272419D02*
X188284836Y-49320038D01*
X188284836Y-49320038D02*
X188380074Y-49415276D01*
X188380074Y-49415276D02*
X188427693Y-49510514D01*
X188427693Y-49510514D02*
X188475312Y-49700990D01*
X188475312Y-49700990D02*
X188475312Y-49843847D01*
X188475312Y-49843847D02*
X188427693Y-50034323D01*
X188427693Y-50034323D02*
X188380074Y-50129561D01*
X188380074Y-50129561D02*
X188284836Y-50224800D01*
X188284836Y-50224800D02*
X188141979Y-50272419D01*
X188141979Y-50272419D02*
X187903884Y-50272419D01*
X189094360Y-49272419D02*
X189284836Y-49272419D01*
X189284836Y-49272419D02*
X189380074Y-49320038D01*
X189380074Y-49320038D02*
X189475312Y-49415276D01*
X189475312Y-49415276D02*
X189522931Y-49605752D01*
X189522931Y-49605752D02*
X189522931Y-49939085D01*
X189522931Y-49939085D02*
X189475312Y-50129561D01*
X189475312Y-50129561D02*
X189380074Y-50224800D01*
X189380074Y-50224800D02*
X189284836Y-50272419D01*
X189284836Y-50272419D02*
X189094360Y-50272419D01*
X189094360Y-50272419D02*
X188999122Y-50224800D01*
X188999122Y-50224800D02*
X188903884Y-50129561D01*
X188903884Y-50129561D02*
X188856265Y-49939085D01*
X188856265Y-49939085D02*
X188856265Y-49605752D01*
X188856265Y-49605752D02*
X188903884Y-49415276D01*
X188903884Y-49415276D02*
X188999122Y-49320038D01*
X188999122Y-49320038D02*
X189094360Y-49272419D01*
X189951503Y-49272419D02*
X189951503Y-50081942D01*
X189951503Y-50081942D02*
X189999122Y-50177180D01*
X189999122Y-50177180D02*
X190046741Y-50224800D01*
X190046741Y-50224800D02*
X190141979Y-50272419D01*
X190141979Y-50272419D02*
X190332455Y-50272419D01*
X190332455Y-50272419D02*
X190427693Y-50224800D01*
X190427693Y-50224800D02*
X190475312Y-50177180D01*
X190475312Y-50177180D02*
X190522931Y-50081942D01*
X190522931Y-50081942D02*
X190522931Y-49272419D01*
X190856265Y-49272419D02*
X191427693Y-49272419D01*
X191141979Y-50272419D02*
X191141979Y-49272419D01*
X149627693Y-61400150D02*
X149532455Y-61352531D01*
X149532455Y-61352531D02*
X149389598Y-61352531D01*
X149389598Y-61352531D02*
X149246741Y-61400150D01*
X149246741Y-61400150D02*
X149151503Y-61495388D01*
X149151503Y-61495388D02*
X149103884Y-61590626D01*
X149103884Y-61590626D02*
X149056265Y-61781102D01*
X149056265Y-61781102D02*
X149056265Y-61923959D01*
X149056265Y-61923959D02*
X149103884Y-62114435D01*
X149103884Y-62114435D02*
X149151503Y-62209673D01*
X149151503Y-62209673D02*
X149246741Y-62304912D01*
X149246741Y-62304912D02*
X149389598Y-62352531D01*
X149389598Y-62352531D02*
X149484836Y-62352531D01*
X149484836Y-62352531D02*
X149627693Y-62304912D01*
X149627693Y-62304912D02*
X149675312Y-62257292D01*
X149675312Y-62257292D02*
X149675312Y-61923959D01*
X149675312Y-61923959D02*
X149484836Y-61923959D01*
X150103884Y-62352531D02*
X150103884Y-61352531D01*
X150103884Y-61352531D02*
X150675312Y-62352531D01*
X150675312Y-62352531D02*
X150675312Y-61352531D01*
X151151503Y-62352531D02*
X151151503Y-61352531D01*
X151151503Y-61352531D02*
X151389598Y-61352531D01*
X151389598Y-61352531D02*
X151532455Y-61400150D01*
X151532455Y-61400150D02*
X151627693Y-61495388D01*
X151627693Y-61495388D02*
X151675312Y-61590626D01*
X151675312Y-61590626D02*
X151722931Y-61781102D01*
X151722931Y-61781102D02*
X151722931Y-61923959D01*
X151722931Y-61923959D02*
X151675312Y-62114435D01*
X151675312Y-62114435D02*
X151627693Y-62209673D01*
X151627693Y-62209673D02*
X151532455Y-62304912D01*
X151532455Y-62304912D02*
X151389598Y-62352531D01*
X151389598Y-62352531D02*
X151151503Y-62352531D01*
X149103884Y-63962475D02*
X149103884Y-62962475D01*
X149103884Y-62962475D02*
X149341979Y-62962475D01*
X149341979Y-62962475D02*
X149484836Y-63010094D01*
X149484836Y-63010094D02*
X149580074Y-63105332D01*
X149580074Y-63105332D02*
X149627693Y-63200570D01*
X149627693Y-63200570D02*
X149675312Y-63391046D01*
X149675312Y-63391046D02*
X149675312Y-63533903D01*
X149675312Y-63533903D02*
X149627693Y-63724379D01*
X149627693Y-63724379D02*
X149580074Y-63819617D01*
X149580074Y-63819617D02*
X149484836Y-63914856D01*
X149484836Y-63914856D02*
X149341979Y-63962475D01*
X149341979Y-63962475D02*
X149103884Y-63962475D01*
X150103884Y-63962475D02*
X150103884Y-63295808D01*
X150103884Y-62962475D02*
X150056265Y-63010094D01*
X150056265Y-63010094D02*
X150103884Y-63057713D01*
X150103884Y-63057713D02*
X150151503Y-63010094D01*
X150151503Y-63010094D02*
X150103884Y-62962475D01*
X150103884Y-62962475D02*
X150103884Y-63057713D01*
X150580074Y-63295808D02*
X150580074Y-63962475D01*
X150580074Y-63391046D02*
X150627693Y-63343427D01*
X150627693Y-63343427D02*
X150722931Y-63295808D01*
X150722931Y-63295808D02*
X150865788Y-63295808D01*
X150865788Y-63295808D02*
X150961026Y-63343427D01*
X150961026Y-63343427D02*
X151008645Y-63438665D01*
X151008645Y-63438665D02*
X151008645Y-63962475D01*
X149103884Y-65191466D02*
X149865789Y-65191466D01*
X149484836Y-65572419D02*
X149484836Y-64810514D01*
X150199122Y-64572419D02*
X150532455Y-65572419D01*
X150532455Y-65572419D02*
X150865788Y-64572419D01*
X179327693Y-49320038D02*
X179232455Y-49272419D01*
X179232455Y-49272419D02*
X179089598Y-49272419D01*
X179089598Y-49272419D02*
X178946741Y-49320038D01*
X178946741Y-49320038D02*
X178851503Y-49415276D01*
X178851503Y-49415276D02*
X178803884Y-49510514D01*
X178803884Y-49510514D02*
X178756265Y-49700990D01*
X178756265Y-49700990D02*
X178756265Y-49843847D01*
X178756265Y-49843847D02*
X178803884Y-50034323D01*
X178803884Y-50034323D02*
X178851503Y-50129561D01*
X178851503Y-50129561D02*
X178946741Y-50224800D01*
X178946741Y-50224800D02*
X179089598Y-50272419D01*
X179089598Y-50272419D02*
X179184836Y-50272419D01*
X179184836Y-50272419D02*
X179327693Y-50224800D01*
X179327693Y-50224800D02*
X179375312Y-50177180D01*
X179375312Y-50177180D02*
X179375312Y-49843847D01*
X179375312Y-49843847D02*
X179184836Y-49843847D01*
X179803884Y-50272419D02*
X179803884Y-49272419D01*
X179803884Y-49272419D02*
X180375312Y-50272419D01*
X180375312Y-50272419D02*
X180375312Y-49272419D01*
X180851503Y-50272419D02*
X180851503Y-49272419D01*
X180851503Y-49272419D02*
X181089598Y-49272419D01*
X181089598Y-49272419D02*
X181232455Y-49320038D01*
X181232455Y-49320038D02*
X181327693Y-49415276D01*
X181327693Y-49415276D02*
X181375312Y-49510514D01*
X181375312Y-49510514D02*
X181422931Y-49700990D01*
X181422931Y-49700990D02*
X181422931Y-49843847D01*
X181422931Y-49843847D02*
X181375312Y-50034323D01*
X181375312Y-50034323D02*
X181327693Y-50129561D01*
X181327693Y-50129561D02*
X181232455Y-50224800D01*
X181232455Y-50224800D02*
X181089598Y-50272419D01*
X181089598Y-50272419D02*
X180851503Y-50272419D01*
D11*
X169185714Y-67954819D02*
X168614286Y-67954819D01*
X168900000Y-67954819D02*
X168900000Y-66954819D01*
X168900000Y-66954819D02*
X168804762Y-67097676D01*
X168804762Y-67097676D02*
X168709524Y-67192914D01*
X168709524Y-67192914D02*
X168614286Y-67240533D01*
D10*
X194848496Y-61500150D02*
X194753258Y-61452531D01*
X194753258Y-61452531D02*
X194610401Y-61452531D01*
X194610401Y-61452531D02*
X194467544Y-61500150D01*
X194467544Y-61500150D02*
X194372306Y-61595388D01*
X194372306Y-61595388D02*
X194324687Y-61690626D01*
X194324687Y-61690626D02*
X194277068Y-61881102D01*
X194277068Y-61881102D02*
X194277068Y-62023959D01*
X194277068Y-62023959D02*
X194324687Y-62214435D01*
X194324687Y-62214435D02*
X194372306Y-62309673D01*
X194372306Y-62309673D02*
X194467544Y-62404912D01*
X194467544Y-62404912D02*
X194610401Y-62452531D01*
X194610401Y-62452531D02*
X194705639Y-62452531D01*
X194705639Y-62452531D02*
X194848496Y-62404912D01*
X194848496Y-62404912D02*
X194896115Y-62357292D01*
X194896115Y-62357292D02*
X194896115Y-62023959D01*
X194896115Y-62023959D02*
X194705639Y-62023959D01*
X195324687Y-62452531D02*
X195324687Y-61452531D01*
X195324687Y-61452531D02*
X195896115Y-62452531D01*
X195896115Y-62452531D02*
X195896115Y-61452531D01*
X196372306Y-62452531D02*
X196372306Y-61452531D01*
X196372306Y-61452531D02*
X196610401Y-61452531D01*
X196610401Y-61452531D02*
X196753258Y-61500150D01*
X196753258Y-61500150D02*
X196848496Y-61595388D01*
X196848496Y-61595388D02*
X196896115Y-61690626D01*
X196896115Y-61690626D02*
X196943734Y-61881102D01*
X196943734Y-61881102D02*
X196943734Y-62023959D01*
X196943734Y-62023959D02*
X196896115Y-62214435D01*
X196896115Y-62214435D02*
X196848496Y-62309673D01*
X196848496Y-62309673D02*
X196753258Y-62404912D01*
X196753258Y-62404912D02*
X196610401Y-62452531D01*
X196610401Y-62452531D02*
X196372306Y-62452531D01*
X193991353Y-64062475D02*
X193991353Y-63062475D01*
X193991353Y-63062475D02*
X194229448Y-63062475D01*
X194229448Y-63062475D02*
X194372305Y-63110094D01*
X194372305Y-63110094D02*
X194467543Y-63205332D01*
X194467543Y-63205332D02*
X194515162Y-63300570D01*
X194515162Y-63300570D02*
X194562781Y-63491046D01*
X194562781Y-63491046D02*
X194562781Y-63633903D01*
X194562781Y-63633903D02*
X194515162Y-63824379D01*
X194515162Y-63824379D02*
X194467543Y-63919617D01*
X194467543Y-63919617D02*
X194372305Y-64014856D01*
X194372305Y-64014856D02*
X194229448Y-64062475D01*
X194229448Y-64062475D02*
X193991353Y-64062475D01*
X195134210Y-64062475D02*
X195038972Y-64014856D01*
X195038972Y-64014856D02*
X194991353Y-63967236D01*
X194991353Y-63967236D02*
X194943734Y-63871998D01*
X194943734Y-63871998D02*
X194943734Y-63586284D01*
X194943734Y-63586284D02*
X194991353Y-63491046D01*
X194991353Y-63491046D02*
X195038972Y-63443427D01*
X195038972Y-63443427D02*
X195134210Y-63395808D01*
X195134210Y-63395808D02*
X195277067Y-63395808D01*
X195277067Y-63395808D02*
X195372305Y-63443427D01*
X195372305Y-63443427D02*
X195419924Y-63491046D01*
X195419924Y-63491046D02*
X195467543Y-63586284D01*
X195467543Y-63586284D02*
X195467543Y-63871998D01*
X195467543Y-63871998D02*
X195419924Y-63967236D01*
X195419924Y-63967236D02*
X195372305Y-64014856D01*
X195372305Y-64014856D02*
X195277067Y-64062475D01*
X195277067Y-64062475D02*
X195134210Y-64062475D01*
X196324686Y-63395808D02*
X196324686Y-64062475D01*
X195896115Y-63395808D02*
X195896115Y-63919617D01*
X195896115Y-63919617D02*
X195943734Y-64014856D01*
X195943734Y-64014856D02*
X196038972Y-64062475D01*
X196038972Y-64062475D02*
X196181829Y-64062475D01*
X196181829Y-64062475D02*
X196277067Y-64014856D01*
X196277067Y-64014856D02*
X196324686Y-63967236D01*
X196658020Y-63395808D02*
X197038972Y-63395808D01*
X196800877Y-63062475D02*
X196800877Y-63919617D01*
X196800877Y-63919617D02*
X196848496Y-64014856D01*
X196848496Y-64014856D02*
X196943734Y-64062475D01*
X196943734Y-64062475D02*
X197038972Y-64062475D01*
X195277068Y-65291466D02*
X196038973Y-65291466D01*
X195658020Y-65672419D02*
X195658020Y-64910514D01*
X196372306Y-64672419D02*
X196705639Y-65672419D01*
X196705639Y-65672419D02*
X197038972Y-64672419D01*
X154308646Y-48972419D02*
X154546741Y-49972419D01*
X154546741Y-49972419D02*
X154737217Y-49258133D01*
X154737217Y-49258133D02*
X154927693Y-49972419D01*
X154927693Y-49972419D02*
X155165789Y-48972419D01*
X155499122Y-49924800D02*
X155641979Y-49972419D01*
X155641979Y-49972419D02*
X155880074Y-49972419D01*
X155880074Y-49972419D02*
X155975312Y-49924800D01*
X155975312Y-49924800D02*
X156022931Y-49877180D01*
X156022931Y-49877180D02*
X156070550Y-49781942D01*
X156070550Y-49781942D02*
X156070550Y-49686704D01*
X156070550Y-49686704D02*
X156022931Y-49591466D01*
X156022931Y-49591466D02*
X155975312Y-49543847D01*
X155975312Y-49543847D02*
X155880074Y-49496228D01*
X155880074Y-49496228D02*
X155689598Y-49448609D01*
X155689598Y-49448609D02*
X155594360Y-49400990D01*
X155594360Y-49400990D02*
X155546741Y-49353371D01*
X155546741Y-49353371D02*
X155499122Y-49258133D01*
X155499122Y-49258133D02*
X155499122Y-49162895D01*
X155499122Y-49162895D02*
X155546741Y-49067657D01*
X155546741Y-49067657D02*
X155594360Y-49020038D01*
X155594360Y-49020038D02*
X155689598Y-48972419D01*
X155689598Y-48972419D02*
X155927693Y-48972419D01*
X155927693Y-48972419D02*
X156070550Y-49020038D01*
X156451503Y-49067657D02*
X156499122Y-49020038D01*
X156499122Y-49020038D02*
X156594360Y-48972419D01*
X156594360Y-48972419D02*
X156832455Y-48972419D01*
X156832455Y-48972419D02*
X156927693Y-49020038D01*
X156927693Y-49020038D02*
X156975312Y-49067657D01*
X156975312Y-49067657D02*
X157022931Y-49162895D01*
X157022931Y-49162895D02*
X157022931Y-49258133D01*
X157022931Y-49258133D02*
X156975312Y-49400990D01*
X156975312Y-49400990D02*
X156403884Y-49972419D01*
X156403884Y-49972419D02*
X157022931Y-49972419D01*
X157594360Y-49400990D02*
X157499122Y-49353371D01*
X157499122Y-49353371D02*
X157451503Y-49305752D01*
X157451503Y-49305752D02*
X157403884Y-49210514D01*
X157403884Y-49210514D02*
X157403884Y-49162895D01*
X157403884Y-49162895D02*
X157451503Y-49067657D01*
X157451503Y-49067657D02*
X157499122Y-49020038D01*
X157499122Y-49020038D02*
X157594360Y-48972419D01*
X157594360Y-48972419D02*
X157784836Y-48972419D01*
X157784836Y-48972419D02*
X157880074Y-49020038D01*
X157880074Y-49020038D02*
X157927693Y-49067657D01*
X157927693Y-49067657D02*
X157975312Y-49162895D01*
X157975312Y-49162895D02*
X157975312Y-49210514D01*
X157975312Y-49210514D02*
X157927693Y-49305752D01*
X157927693Y-49305752D02*
X157880074Y-49353371D01*
X157880074Y-49353371D02*
X157784836Y-49400990D01*
X157784836Y-49400990D02*
X157594360Y-49400990D01*
X157594360Y-49400990D02*
X157499122Y-49448609D01*
X157499122Y-49448609D02*
X157451503Y-49496228D01*
X157451503Y-49496228D02*
X157403884Y-49591466D01*
X157403884Y-49591466D02*
X157403884Y-49781942D01*
X157403884Y-49781942D02*
X157451503Y-49877180D01*
X157451503Y-49877180D02*
X157499122Y-49924800D01*
X157499122Y-49924800D02*
X157594360Y-49972419D01*
X157594360Y-49972419D02*
X157784836Y-49972419D01*
X157784836Y-49972419D02*
X157880074Y-49924800D01*
X157880074Y-49924800D02*
X157927693Y-49877180D01*
X157927693Y-49877180D02*
X157975312Y-49781942D01*
X157975312Y-49781942D02*
X157975312Y-49591466D01*
X157975312Y-49591466D02*
X157927693Y-49496228D01*
X157927693Y-49496228D02*
X157880074Y-49448609D01*
X157880074Y-49448609D02*
X157784836Y-49400990D01*
X158927693Y-49972419D02*
X158356265Y-49972419D01*
X158641979Y-49972419D02*
X158641979Y-48972419D01*
X158641979Y-48972419D02*
X158546741Y-49115276D01*
X158546741Y-49115276D02*
X158451503Y-49210514D01*
X158451503Y-49210514D02*
X158356265Y-49258133D01*
X159308646Y-49067657D02*
X159356265Y-49020038D01*
X159356265Y-49020038D02*
X159451503Y-48972419D01*
X159451503Y-48972419D02*
X159689598Y-48972419D01*
X159689598Y-48972419D02*
X159784836Y-49020038D01*
X159784836Y-49020038D02*
X159832455Y-49067657D01*
X159832455Y-49067657D02*
X159880074Y-49162895D01*
X159880074Y-49162895D02*
X159880074Y-49258133D01*
X159880074Y-49258133D02*
X159832455Y-49400990D01*
X159832455Y-49400990D02*
X159261027Y-49972419D01*
X159261027Y-49972419D02*
X159880074Y-49972419D01*
X160641979Y-49448609D02*
X160784836Y-49496228D01*
X160784836Y-49496228D02*
X160832455Y-49543847D01*
X160832455Y-49543847D02*
X160880074Y-49639085D01*
X160880074Y-49639085D02*
X160880074Y-49781942D01*
X160880074Y-49781942D02*
X160832455Y-49877180D01*
X160832455Y-49877180D02*
X160784836Y-49924800D01*
X160784836Y-49924800D02*
X160689598Y-49972419D01*
X160689598Y-49972419D02*
X160308646Y-49972419D01*
X160308646Y-49972419D02*
X160308646Y-48972419D01*
X160308646Y-48972419D02*
X160641979Y-48972419D01*
X160641979Y-48972419D02*
X160737217Y-49020038D01*
X160737217Y-49020038D02*
X160784836Y-49067657D01*
X160784836Y-49067657D02*
X160832455Y-49162895D01*
X160832455Y-49162895D02*
X160832455Y-49258133D01*
X160832455Y-49258133D02*
X160784836Y-49353371D01*
X160784836Y-49353371D02*
X160737217Y-49400990D01*
X160737217Y-49400990D02*
X160641979Y-49448609D01*
X160641979Y-49448609D02*
X160308646Y-49448609D01*
X161070551Y-50067657D02*
X161832455Y-50067657D01*
X162546741Y-48972419D02*
X162070551Y-48972419D01*
X162070551Y-48972419D02*
X162022932Y-49448609D01*
X162022932Y-49448609D02*
X162070551Y-49400990D01*
X162070551Y-49400990D02*
X162165789Y-49353371D01*
X162165789Y-49353371D02*
X162403884Y-49353371D01*
X162403884Y-49353371D02*
X162499122Y-49400990D01*
X162499122Y-49400990D02*
X162546741Y-49448609D01*
X162546741Y-49448609D02*
X162594360Y-49543847D01*
X162594360Y-49543847D02*
X162594360Y-49781942D01*
X162594360Y-49781942D02*
X162546741Y-49877180D01*
X162546741Y-49877180D02*
X162499122Y-49924800D01*
X162499122Y-49924800D02*
X162403884Y-49972419D01*
X162403884Y-49972419D02*
X162165789Y-49972419D01*
X162165789Y-49972419D02*
X162070551Y-49924800D01*
X162070551Y-49924800D02*
X162022932Y-49877180D01*
X163213408Y-48972419D02*
X163308646Y-48972419D01*
X163308646Y-48972419D02*
X163403884Y-49020038D01*
X163403884Y-49020038D02*
X163451503Y-49067657D01*
X163451503Y-49067657D02*
X163499122Y-49162895D01*
X163499122Y-49162895D02*
X163546741Y-49353371D01*
X163546741Y-49353371D02*
X163546741Y-49591466D01*
X163546741Y-49591466D02*
X163499122Y-49781942D01*
X163499122Y-49781942D02*
X163451503Y-49877180D01*
X163451503Y-49877180D02*
X163403884Y-49924800D01*
X163403884Y-49924800D02*
X163308646Y-49972419D01*
X163308646Y-49972419D02*
X163213408Y-49972419D01*
X163213408Y-49972419D02*
X163118170Y-49924800D01*
X163118170Y-49924800D02*
X163070551Y-49877180D01*
X163070551Y-49877180D02*
X163022932Y-49781942D01*
X163022932Y-49781942D02*
X162975313Y-49591466D01*
X162975313Y-49591466D02*
X162975313Y-49353371D01*
X162975313Y-49353371D02*
X163022932Y-49162895D01*
X163022932Y-49162895D02*
X163070551Y-49067657D01*
X163070551Y-49067657D02*
X163118170Y-49020038D01*
X163118170Y-49020038D02*
X163213408Y-48972419D01*
X164451503Y-48972419D02*
X163975313Y-48972419D01*
X163975313Y-48972419D02*
X163927694Y-49448609D01*
X163927694Y-49448609D02*
X163975313Y-49400990D01*
X163975313Y-49400990D02*
X164070551Y-49353371D01*
X164070551Y-49353371D02*
X164308646Y-49353371D01*
X164308646Y-49353371D02*
X164403884Y-49400990D01*
X164403884Y-49400990D02*
X164451503Y-49448609D01*
X164451503Y-49448609D02*
X164499122Y-49543847D01*
X164499122Y-49543847D02*
X164499122Y-49781942D01*
X164499122Y-49781942D02*
X164451503Y-49877180D01*
X164451503Y-49877180D02*
X164403884Y-49924800D01*
X164403884Y-49924800D02*
X164308646Y-49972419D01*
X164308646Y-49972419D02*
X164070551Y-49972419D01*
X164070551Y-49972419D02*
X163975313Y-49924800D01*
X163975313Y-49924800D02*
X163927694Y-49877180D01*
X165118170Y-48972419D02*
X165213408Y-48972419D01*
X165213408Y-48972419D02*
X165308646Y-49020038D01*
X165308646Y-49020038D02*
X165356265Y-49067657D01*
X165356265Y-49067657D02*
X165403884Y-49162895D01*
X165403884Y-49162895D02*
X165451503Y-49353371D01*
X165451503Y-49353371D02*
X165451503Y-49591466D01*
X165451503Y-49591466D02*
X165403884Y-49781942D01*
X165403884Y-49781942D02*
X165356265Y-49877180D01*
X165356265Y-49877180D02*
X165308646Y-49924800D01*
X165308646Y-49924800D02*
X165213408Y-49972419D01*
X165213408Y-49972419D02*
X165118170Y-49972419D01*
X165118170Y-49972419D02*
X165022932Y-49924800D01*
X165022932Y-49924800D02*
X164975313Y-49877180D01*
X164975313Y-49877180D02*
X164927694Y-49781942D01*
X164927694Y-49781942D02*
X164880075Y-49591466D01*
X164880075Y-49591466D02*
X164880075Y-49353371D01*
X164880075Y-49353371D02*
X164927694Y-49162895D01*
X164927694Y-49162895D02*
X164975313Y-49067657D01*
X164975313Y-49067657D02*
X165022932Y-49020038D01*
X165022932Y-49020038D02*
X165118170Y-48972419D01*
X184180074Y-52272419D02*
X183703884Y-52272419D01*
X183703884Y-52272419D02*
X183703884Y-51272419D01*
X184513408Y-51748609D02*
X184846741Y-51748609D01*
X184989598Y-52272419D02*
X184513408Y-52272419D01*
X184513408Y-52272419D02*
X184513408Y-51272419D01*
X184513408Y-51272419D02*
X184989598Y-51272419D01*
X185418170Y-52272419D02*
X185418170Y-51272419D01*
X185418170Y-51272419D02*
X185656265Y-51272419D01*
X185656265Y-51272419D02*
X185799122Y-51320038D01*
X185799122Y-51320038D02*
X185894360Y-51415276D01*
X185894360Y-51415276D02*
X185941979Y-51510514D01*
X185941979Y-51510514D02*
X185989598Y-51700990D01*
X185989598Y-51700990D02*
X185989598Y-51843847D01*
X185989598Y-51843847D02*
X185941979Y-52034323D01*
X185941979Y-52034323D02*
X185894360Y-52129561D01*
X185894360Y-52129561D02*
X185799122Y-52224800D01*
X185799122Y-52224800D02*
X185656265Y-52272419D01*
X185656265Y-52272419D02*
X185418170Y-52272419D01*
X179803884Y-54272419D02*
X179803884Y-53272419D01*
X179803884Y-53272419D02*
X180041979Y-53272419D01*
X180041979Y-53272419D02*
X180184836Y-53320038D01*
X180184836Y-53320038D02*
X180280074Y-53415276D01*
X180280074Y-53415276D02*
X180327693Y-53510514D01*
X180327693Y-53510514D02*
X180375312Y-53700990D01*
X180375312Y-53700990D02*
X180375312Y-53843847D01*
X180375312Y-53843847D02*
X180327693Y-54034323D01*
X180327693Y-54034323D02*
X180280074Y-54129561D01*
X180280074Y-54129561D02*
X180184836Y-54224800D01*
X180184836Y-54224800D02*
X180041979Y-54272419D01*
X180041979Y-54272419D02*
X179803884Y-54272419D01*
X180803884Y-54272419D02*
X180803884Y-53272419D01*
X181280074Y-54272419D02*
X181280074Y-53272419D01*
X181280074Y-53272419D02*
X181851502Y-54272419D01*
X181851502Y-54272419D02*
X181851502Y-53272419D01*
D11*
X167709580Y-96266666D02*
X167757200Y-96314285D01*
X167757200Y-96314285D02*
X167804819Y-96457142D01*
X167804819Y-96457142D02*
X167804819Y-96552380D01*
X167804819Y-96552380D02*
X167757200Y-96695237D01*
X167757200Y-96695237D02*
X167661961Y-96790475D01*
X167661961Y-96790475D02*
X167566723Y-96838094D01*
X167566723Y-96838094D02*
X167376247Y-96885713D01*
X167376247Y-96885713D02*
X167233390Y-96885713D01*
X167233390Y-96885713D02*
X167042914Y-96838094D01*
X167042914Y-96838094D02*
X166947676Y-96790475D01*
X166947676Y-96790475D02*
X166852438Y-96695237D01*
X166852438Y-96695237D02*
X166804819Y-96552380D01*
X166804819Y-96552380D02*
X166804819Y-96457142D01*
X166804819Y-96457142D02*
X166852438Y-96314285D01*
X166852438Y-96314285D02*
X166900057Y-96266666D01*
X167138152Y-95409523D02*
X167804819Y-95409523D01*
X166757200Y-95647618D02*
X167471485Y-95885713D01*
X167471485Y-95885713D02*
X167471485Y-95266666D01*
X187354761Y-77954819D02*
X186878571Y-77954819D01*
X186878571Y-77954819D02*
X186878571Y-76954819D01*
X187688095Y-77431009D02*
X188021428Y-77431009D01*
X188164285Y-77954819D02*
X187688095Y-77954819D01*
X187688095Y-77954819D02*
X187688095Y-76954819D01*
X187688095Y-76954819D02*
X188164285Y-76954819D01*
X188592857Y-77954819D02*
X188592857Y-76954819D01*
X188592857Y-76954819D02*
X188830952Y-76954819D01*
X188830952Y-76954819D02*
X188973809Y-77002438D01*
X188973809Y-77002438D02*
X189069047Y-77097676D01*
X189069047Y-77097676D02*
X189116666Y-77192914D01*
X189116666Y-77192914D02*
X189164285Y-77383390D01*
X189164285Y-77383390D02*
X189164285Y-77526247D01*
X189164285Y-77526247D02*
X189116666Y-77716723D01*
X189116666Y-77716723D02*
X189069047Y-77811961D01*
X189069047Y-77811961D02*
X188973809Y-77907200D01*
X188973809Y-77907200D02*
X188830952Y-77954819D01*
X188830952Y-77954819D02*
X188592857Y-77954819D01*
X190116666Y-77954819D02*
X189545238Y-77954819D01*
X189830952Y-77954819D02*
X189830952Y-76954819D01*
X189830952Y-76954819D02*
X189735714Y-77097676D01*
X189735714Y-77097676D02*
X189640476Y-77192914D01*
X189640476Y-77192914D02*
X189545238Y-77240533D01*
X191021428Y-76954819D02*
X190545238Y-76954819D01*
X190545238Y-76954819D02*
X190497619Y-77431009D01*
X190497619Y-77431009D02*
X190545238Y-77383390D01*
X190545238Y-77383390D02*
X190640476Y-77335771D01*
X190640476Y-77335771D02*
X190878571Y-77335771D01*
X190878571Y-77335771D02*
X190973809Y-77383390D01*
X190973809Y-77383390D02*
X191021428Y-77431009D01*
X191021428Y-77431009D02*
X191069047Y-77526247D01*
X191069047Y-77526247D02*
X191069047Y-77764342D01*
X191069047Y-77764342D02*
X191021428Y-77859580D01*
X191021428Y-77859580D02*
X190973809Y-77907200D01*
X190973809Y-77907200D02*
X190878571Y-77954819D01*
X190878571Y-77954819D02*
X190640476Y-77954819D01*
X190640476Y-77954819D02*
X190545238Y-77907200D01*
X190545238Y-77907200D02*
X190497619Y-77859580D01*
X193385714Y-76054819D02*
X192814286Y-76054819D01*
X193100000Y-76054819D02*
X193100000Y-75054819D01*
X193100000Y-75054819D02*
X193004762Y-75197676D01*
X193004762Y-75197676D02*
X192909524Y-75292914D01*
X192909524Y-75292914D02*
X192814286Y-75340533D01*
X192209580Y-96141666D02*
X192257200Y-96189285D01*
X192257200Y-96189285D02*
X192304819Y-96332142D01*
X192304819Y-96332142D02*
X192304819Y-96427380D01*
X192304819Y-96427380D02*
X192257200Y-96570237D01*
X192257200Y-96570237D02*
X192161961Y-96665475D01*
X192161961Y-96665475D02*
X192066723Y-96713094D01*
X192066723Y-96713094D02*
X191876247Y-96760713D01*
X191876247Y-96760713D02*
X191733390Y-96760713D01*
X191733390Y-96760713D02*
X191542914Y-96713094D01*
X191542914Y-96713094D02*
X191447676Y-96665475D01*
X191447676Y-96665475D02*
X191352438Y-96570237D01*
X191352438Y-96570237D02*
X191304819Y-96427380D01*
X191304819Y-96427380D02*
X191304819Y-96332142D01*
X191304819Y-96332142D02*
X191352438Y-96189285D01*
X191352438Y-96189285D02*
X191400057Y-96141666D01*
X192304819Y-95189285D02*
X192304819Y-95760713D01*
X192304819Y-95474999D02*
X191304819Y-95474999D01*
X191304819Y-95474999D02*
X191447676Y-95570237D01*
X191447676Y-95570237D02*
X191542914Y-95665475D01*
X191542914Y-95665475D02*
X191590533Y-95760713D01*
X187354761Y-85954819D02*
X186878571Y-85954819D01*
X186878571Y-85954819D02*
X186878571Y-84954819D01*
X187688095Y-85431009D02*
X188021428Y-85431009D01*
X188164285Y-85954819D02*
X187688095Y-85954819D01*
X187688095Y-85954819D02*
X187688095Y-84954819D01*
X187688095Y-84954819D02*
X188164285Y-84954819D01*
X188592857Y-85954819D02*
X188592857Y-84954819D01*
X188592857Y-84954819D02*
X188830952Y-84954819D01*
X188830952Y-84954819D02*
X188973809Y-85002438D01*
X188973809Y-85002438D02*
X189069047Y-85097676D01*
X189069047Y-85097676D02*
X189116666Y-85192914D01*
X189116666Y-85192914D02*
X189164285Y-85383390D01*
X189164285Y-85383390D02*
X189164285Y-85526247D01*
X189164285Y-85526247D02*
X189116666Y-85716723D01*
X189116666Y-85716723D02*
X189069047Y-85811961D01*
X189069047Y-85811961D02*
X188973809Y-85907200D01*
X188973809Y-85907200D02*
X188830952Y-85954819D01*
X188830952Y-85954819D02*
X188592857Y-85954819D01*
X190116666Y-85954819D02*
X189545238Y-85954819D01*
X189830952Y-85954819D02*
X189830952Y-84954819D01*
X189830952Y-84954819D02*
X189735714Y-85097676D01*
X189735714Y-85097676D02*
X189640476Y-85192914D01*
X189640476Y-85192914D02*
X189545238Y-85240533D01*
X190973809Y-84954819D02*
X190783333Y-84954819D01*
X190783333Y-84954819D02*
X190688095Y-85002438D01*
X190688095Y-85002438D02*
X190640476Y-85050057D01*
X190640476Y-85050057D02*
X190545238Y-85192914D01*
X190545238Y-85192914D02*
X190497619Y-85383390D01*
X190497619Y-85383390D02*
X190497619Y-85764342D01*
X190497619Y-85764342D02*
X190545238Y-85859580D01*
X190545238Y-85859580D02*
X190592857Y-85907200D01*
X190592857Y-85907200D02*
X190688095Y-85954819D01*
X190688095Y-85954819D02*
X190878571Y-85954819D01*
X190878571Y-85954819D02*
X190973809Y-85907200D01*
X190973809Y-85907200D02*
X191021428Y-85859580D01*
X191021428Y-85859580D02*
X191069047Y-85764342D01*
X191069047Y-85764342D02*
X191069047Y-85526247D01*
X191069047Y-85526247D02*
X191021428Y-85431009D01*
X191021428Y-85431009D02*
X190973809Y-85383390D01*
X190973809Y-85383390D02*
X190878571Y-85335771D01*
X190878571Y-85335771D02*
X190688095Y-85335771D01*
X190688095Y-85335771D02*
X190592857Y-85383390D01*
X190592857Y-85383390D02*
X190545238Y-85431009D01*
X190545238Y-85431009D02*
X190497619Y-85526247D01*
X187365830Y-96141666D02*
X187413450Y-96189285D01*
X187413450Y-96189285D02*
X187461069Y-96332142D01*
X187461069Y-96332142D02*
X187461069Y-96427380D01*
X187461069Y-96427380D02*
X187413450Y-96570237D01*
X187413450Y-96570237D02*
X187318211Y-96665475D01*
X187318211Y-96665475D02*
X187222973Y-96713094D01*
X187222973Y-96713094D02*
X187032497Y-96760713D01*
X187032497Y-96760713D02*
X186889640Y-96760713D01*
X186889640Y-96760713D02*
X186699164Y-96713094D01*
X186699164Y-96713094D02*
X186603926Y-96665475D01*
X186603926Y-96665475D02*
X186508688Y-96570237D01*
X186508688Y-96570237D02*
X186461069Y-96427380D01*
X186461069Y-96427380D02*
X186461069Y-96332142D01*
X186461069Y-96332142D02*
X186508688Y-96189285D01*
X186508688Y-96189285D02*
X186556307Y-96141666D01*
X186556307Y-95760713D02*
X186508688Y-95713094D01*
X186508688Y-95713094D02*
X186461069Y-95617856D01*
X186461069Y-95617856D02*
X186461069Y-95379761D01*
X186461069Y-95379761D02*
X186508688Y-95284523D01*
X186508688Y-95284523D02*
X186556307Y-95236904D01*
X186556307Y-95236904D02*
X186651545Y-95189285D01*
X186651545Y-95189285D02*
X186746783Y-95189285D01*
X186746783Y-95189285D02*
X186889640Y-95236904D01*
X186889640Y-95236904D02*
X187461069Y-95808332D01*
X187461069Y-95808332D02*
X187461069Y-95189285D01*
X182522080Y-96141666D02*
X182569700Y-96189285D01*
X182569700Y-96189285D02*
X182617319Y-96332142D01*
X182617319Y-96332142D02*
X182617319Y-96427380D01*
X182617319Y-96427380D02*
X182569700Y-96570237D01*
X182569700Y-96570237D02*
X182474461Y-96665475D01*
X182474461Y-96665475D02*
X182379223Y-96713094D01*
X182379223Y-96713094D02*
X182188747Y-96760713D01*
X182188747Y-96760713D02*
X182045890Y-96760713D01*
X182045890Y-96760713D02*
X181855414Y-96713094D01*
X181855414Y-96713094D02*
X181760176Y-96665475D01*
X181760176Y-96665475D02*
X181664938Y-96570237D01*
X181664938Y-96570237D02*
X181617319Y-96427380D01*
X181617319Y-96427380D02*
X181617319Y-96332142D01*
X181617319Y-96332142D02*
X181664938Y-96189285D01*
X181664938Y-96189285D02*
X181712557Y-96141666D01*
X181617319Y-95808332D02*
X181617319Y-95189285D01*
X181617319Y-95189285D02*
X181998271Y-95522618D01*
X181998271Y-95522618D02*
X181998271Y-95379761D01*
X181998271Y-95379761D02*
X182045890Y-95284523D01*
X182045890Y-95284523D02*
X182093509Y-95236904D01*
X182093509Y-95236904D02*
X182188747Y-95189285D01*
X182188747Y-95189285D02*
X182426842Y-95189285D01*
X182426842Y-95189285D02*
X182522080Y-95236904D01*
X182522080Y-95236904D02*
X182569700Y-95284523D01*
X182569700Y-95284523D02*
X182617319Y-95379761D01*
X182617319Y-95379761D02*
X182617319Y-95665475D01*
X182617319Y-95665475D02*
X182569700Y-95760713D01*
X182569700Y-95760713D02*
X182522080Y-95808332D01*
X187830952Y-61954819D02*
X187354762Y-61954819D01*
X187354762Y-61954819D02*
X187354762Y-60954819D01*
X188164286Y-61431009D02*
X188497619Y-61431009D01*
X188640476Y-61954819D02*
X188164286Y-61954819D01*
X188164286Y-61954819D02*
X188164286Y-60954819D01*
X188164286Y-60954819D02*
X188640476Y-60954819D01*
X189069048Y-61954819D02*
X189069048Y-60954819D01*
X189069048Y-60954819D02*
X189307143Y-60954819D01*
X189307143Y-60954819D02*
X189450000Y-61002438D01*
X189450000Y-61002438D02*
X189545238Y-61097676D01*
X189545238Y-61097676D02*
X189592857Y-61192914D01*
X189592857Y-61192914D02*
X189640476Y-61383390D01*
X189640476Y-61383390D02*
X189640476Y-61526247D01*
X189640476Y-61526247D02*
X189592857Y-61716723D01*
X189592857Y-61716723D02*
X189545238Y-61811961D01*
X189545238Y-61811961D02*
X189450000Y-61907200D01*
X189450000Y-61907200D02*
X189307143Y-61954819D01*
X189307143Y-61954819D02*
X189069048Y-61954819D01*
X190545238Y-60954819D02*
X190069048Y-60954819D01*
X190069048Y-60954819D02*
X190021429Y-61431009D01*
X190021429Y-61431009D02*
X190069048Y-61383390D01*
X190069048Y-61383390D02*
X190164286Y-61335771D01*
X190164286Y-61335771D02*
X190402381Y-61335771D01*
X190402381Y-61335771D02*
X190497619Y-61383390D01*
X190497619Y-61383390D02*
X190545238Y-61431009D01*
X190545238Y-61431009D02*
X190592857Y-61526247D01*
X190592857Y-61526247D02*
X190592857Y-61764342D01*
X190592857Y-61764342D02*
X190545238Y-61859580D01*
X190545238Y-61859580D02*
X190497619Y-61907200D01*
X190497619Y-61907200D02*
X190402381Y-61954819D01*
X190402381Y-61954819D02*
X190164286Y-61954819D01*
X190164286Y-61954819D02*
X190069048Y-61907200D01*
X190069048Y-61907200D02*
X190021429Y-61859580D01*
X187830952Y-69954819D02*
X187354762Y-69954819D01*
X187354762Y-69954819D02*
X187354762Y-68954819D01*
X188164286Y-69431009D02*
X188497619Y-69431009D01*
X188640476Y-69954819D02*
X188164286Y-69954819D01*
X188164286Y-69954819D02*
X188164286Y-68954819D01*
X188164286Y-68954819D02*
X188640476Y-68954819D01*
X189069048Y-69954819D02*
X189069048Y-68954819D01*
X189069048Y-68954819D02*
X189307143Y-68954819D01*
X189307143Y-68954819D02*
X189450000Y-69002438D01*
X189450000Y-69002438D02*
X189545238Y-69097676D01*
X189545238Y-69097676D02*
X189592857Y-69192914D01*
X189592857Y-69192914D02*
X189640476Y-69383390D01*
X189640476Y-69383390D02*
X189640476Y-69526247D01*
X189640476Y-69526247D02*
X189592857Y-69716723D01*
X189592857Y-69716723D02*
X189545238Y-69811961D01*
X189545238Y-69811961D02*
X189450000Y-69907200D01*
X189450000Y-69907200D02*
X189307143Y-69954819D01*
X189307143Y-69954819D02*
X189069048Y-69954819D01*
X190497619Y-68954819D02*
X190307143Y-68954819D01*
X190307143Y-68954819D02*
X190211905Y-69002438D01*
X190211905Y-69002438D02*
X190164286Y-69050057D01*
X190164286Y-69050057D02*
X190069048Y-69192914D01*
X190069048Y-69192914D02*
X190021429Y-69383390D01*
X190021429Y-69383390D02*
X190021429Y-69764342D01*
X190021429Y-69764342D02*
X190069048Y-69859580D01*
X190069048Y-69859580D02*
X190116667Y-69907200D01*
X190116667Y-69907200D02*
X190211905Y-69954819D01*
X190211905Y-69954819D02*
X190402381Y-69954819D01*
X190402381Y-69954819D02*
X190497619Y-69907200D01*
X190497619Y-69907200D02*
X190545238Y-69859580D01*
X190545238Y-69859580D02*
X190592857Y-69764342D01*
X190592857Y-69764342D02*
X190592857Y-69526247D01*
X190592857Y-69526247D02*
X190545238Y-69431009D01*
X190545238Y-69431009D02*
X190497619Y-69383390D01*
X190497619Y-69383390D02*
X190402381Y-69335771D01*
X190402381Y-69335771D02*
X190211905Y-69335771D01*
X190211905Y-69335771D02*
X190116667Y-69383390D01*
X190116667Y-69383390D02*
X190069048Y-69431009D01*
X190069048Y-69431009D02*
X190021429Y-69526247D01*
X193954819Y-91695238D02*
X193954819Y-92171428D01*
X193954819Y-92171428D02*
X192954819Y-92171428D01*
X193431009Y-91361904D02*
X193431009Y-91028571D01*
X193954819Y-90885714D02*
X193954819Y-91361904D01*
X193954819Y-91361904D02*
X192954819Y-91361904D01*
X192954819Y-91361904D02*
X192954819Y-90885714D01*
X193954819Y-90457142D02*
X192954819Y-90457142D01*
X192954819Y-90457142D02*
X192954819Y-90219047D01*
X192954819Y-90219047D02*
X193002438Y-90076190D01*
X193002438Y-90076190D02*
X193097676Y-89980952D01*
X193097676Y-89980952D02*
X193192914Y-89933333D01*
X193192914Y-89933333D02*
X193383390Y-89885714D01*
X193383390Y-89885714D02*
X193526247Y-89885714D01*
X193526247Y-89885714D02*
X193716723Y-89933333D01*
X193716723Y-89933333D02*
X193811961Y-89980952D01*
X193811961Y-89980952D02*
X193907200Y-90076190D01*
X193907200Y-90076190D02*
X193954819Y-90219047D01*
X193954819Y-90219047D02*
X193954819Y-90457142D01*
X193050057Y-89504761D02*
X193002438Y-89457142D01*
X193002438Y-89457142D02*
X192954819Y-89361904D01*
X192954819Y-89361904D02*
X192954819Y-89123809D01*
X192954819Y-89123809D02*
X193002438Y-89028571D01*
X193002438Y-89028571D02*
X193050057Y-88980952D01*
X193050057Y-88980952D02*
X193145295Y-88933333D01*
X193145295Y-88933333D02*
X193240533Y-88933333D01*
X193240533Y-88933333D02*
X193383390Y-88980952D01*
X193383390Y-88980952D02*
X193954819Y-89552380D01*
X193954819Y-89552380D02*
X193954819Y-88933333D01*
X192954819Y-88028571D02*
X192954819Y-88504761D01*
X192954819Y-88504761D02*
X193431009Y-88552380D01*
X193431009Y-88552380D02*
X193383390Y-88504761D01*
X193383390Y-88504761D02*
X193335771Y-88409523D01*
X193335771Y-88409523D02*
X193335771Y-88171428D01*
X193335771Y-88171428D02*
X193383390Y-88076190D01*
X193383390Y-88076190D02*
X193431009Y-88028571D01*
X193431009Y-88028571D02*
X193526247Y-87980952D01*
X193526247Y-87980952D02*
X193764342Y-87980952D01*
X193764342Y-87980952D02*
X193859580Y-88028571D01*
X193859580Y-88028571D02*
X193907200Y-88076190D01*
X193907200Y-88076190D02*
X193954819Y-88171428D01*
X193954819Y-88171428D02*
X193954819Y-88409523D01*
X193954819Y-88409523D02*
X193907200Y-88504761D01*
X193907200Y-88504761D02*
X193859580Y-88552380D01*
X158022080Y-96266666D02*
X158069700Y-96314285D01*
X158069700Y-96314285D02*
X158117319Y-96457142D01*
X158117319Y-96457142D02*
X158117319Y-96552380D01*
X158117319Y-96552380D02*
X158069700Y-96695237D01*
X158069700Y-96695237D02*
X157974461Y-96790475D01*
X157974461Y-96790475D02*
X157879223Y-96838094D01*
X157879223Y-96838094D02*
X157688747Y-96885713D01*
X157688747Y-96885713D02*
X157545890Y-96885713D01*
X157545890Y-96885713D02*
X157355414Y-96838094D01*
X157355414Y-96838094D02*
X157260176Y-96790475D01*
X157260176Y-96790475D02*
X157164938Y-96695237D01*
X157164938Y-96695237D02*
X157117319Y-96552380D01*
X157117319Y-96552380D02*
X157117319Y-96457142D01*
X157117319Y-96457142D02*
X157164938Y-96314285D01*
X157164938Y-96314285D02*
X157212557Y-96266666D01*
X157117319Y-95409523D02*
X157117319Y-95599999D01*
X157117319Y-95599999D02*
X157164938Y-95695237D01*
X157164938Y-95695237D02*
X157212557Y-95742856D01*
X157212557Y-95742856D02*
X157355414Y-95838094D01*
X157355414Y-95838094D02*
X157545890Y-95885713D01*
X157545890Y-95885713D02*
X157926842Y-95885713D01*
X157926842Y-95885713D02*
X158022080Y-95838094D01*
X158022080Y-95838094D02*
X158069700Y-95790475D01*
X158069700Y-95790475D02*
X158117319Y-95695237D01*
X158117319Y-95695237D02*
X158117319Y-95504761D01*
X158117319Y-95504761D02*
X158069700Y-95409523D01*
X158069700Y-95409523D02*
X158022080Y-95361904D01*
X158022080Y-95361904D02*
X157926842Y-95314285D01*
X157926842Y-95314285D02*
X157688747Y-95314285D01*
X157688747Y-95314285D02*
X157593509Y-95361904D01*
X157593509Y-95361904D02*
X157545890Y-95409523D01*
X157545890Y-95409523D02*
X157498271Y-95504761D01*
X157498271Y-95504761D02*
X157498271Y-95695237D01*
X157498271Y-95695237D02*
X157545890Y-95790475D01*
X157545890Y-95790475D02*
X157593509Y-95838094D01*
X157593509Y-95838094D02*
X157688747Y-95885713D01*
X155354761Y-85954819D02*
X154878571Y-85954819D01*
X154878571Y-85954819D02*
X154878571Y-84954819D01*
X155688095Y-85431009D02*
X156021428Y-85431009D01*
X156164285Y-85954819D02*
X155688095Y-85954819D01*
X155688095Y-85954819D02*
X155688095Y-84954819D01*
X155688095Y-84954819D02*
X156164285Y-84954819D01*
X156592857Y-85954819D02*
X156592857Y-84954819D01*
X156592857Y-84954819D02*
X156830952Y-84954819D01*
X156830952Y-84954819D02*
X156973809Y-85002438D01*
X156973809Y-85002438D02*
X157069047Y-85097676D01*
X157069047Y-85097676D02*
X157116666Y-85192914D01*
X157116666Y-85192914D02*
X157164285Y-85383390D01*
X157164285Y-85383390D02*
X157164285Y-85526247D01*
X157164285Y-85526247D02*
X157116666Y-85716723D01*
X157116666Y-85716723D02*
X157069047Y-85811961D01*
X157069047Y-85811961D02*
X156973809Y-85907200D01*
X156973809Y-85907200D02*
X156830952Y-85954819D01*
X156830952Y-85954819D02*
X156592857Y-85954819D01*
X157545238Y-85050057D02*
X157592857Y-85002438D01*
X157592857Y-85002438D02*
X157688095Y-84954819D01*
X157688095Y-84954819D02*
X157926190Y-84954819D01*
X157926190Y-84954819D02*
X158021428Y-85002438D01*
X158021428Y-85002438D02*
X158069047Y-85050057D01*
X158069047Y-85050057D02*
X158116666Y-85145295D01*
X158116666Y-85145295D02*
X158116666Y-85240533D01*
X158116666Y-85240533D02*
X158069047Y-85383390D01*
X158069047Y-85383390D02*
X157497619Y-85954819D01*
X157497619Y-85954819D02*
X158116666Y-85954819D01*
X158735714Y-84954819D02*
X158830952Y-84954819D01*
X158830952Y-84954819D02*
X158926190Y-85002438D01*
X158926190Y-85002438D02*
X158973809Y-85050057D01*
X158973809Y-85050057D02*
X159021428Y-85145295D01*
X159021428Y-85145295D02*
X159069047Y-85335771D01*
X159069047Y-85335771D02*
X159069047Y-85573866D01*
X159069047Y-85573866D02*
X159021428Y-85764342D01*
X159021428Y-85764342D02*
X158973809Y-85859580D01*
X158973809Y-85859580D02*
X158926190Y-85907200D01*
X158926190Y-85907200D02*
X158830952Y-85954819D01*
X158830952Y-85954819D02*
X158735714Y-85954819D01*
X158735714Y-85954819D02*
X158640476Y-85907200D01*
X158640476Y-85907200D02*
X158592857Y-85859580D01*
X158592857Y-85859580D02*
X158545238Y-85764342D01*
X158545238Y-85764342D02*
X158497619Y-85573866D01*
X158497619Y-85573866D02*
X158497619Y-85335771D01*
X158497619Y-85335771D02*
X158545238Y-85145295D01*
X158545238Y-85145295D02*
X158592857Y-85050057D01*
X158592857Y-85050057D02*
X158640476Y-85002438D01*
X158640476Y-85002438D02*
X158735714Y-84954819D01*
X152754819Y-91995238D02*
X152754819Y-92471428D01*
X152754819Y-92471428D02*
X151754819Y-92471428D01*
X152231009Y-91661904D02*
X152231009Y-91328571D01*
X152754819Y-91185714D02*
X152754819Y-91661904D01*
X152754819Y-91661904D02*
X151754819Y-91661904D01*
X151754819Y-91661904D02*
X151754819Y-91185714D01*
X152754819Y-90757142D02*
X151754819Y-90757142D01*
X151754819Y-90757142D02*
X151754819Y-90519047D01*
X151754819Y-90519047D02*
X151802438Y-90376190D01*
X151802438Y-90376190D02*
X151897676Y-90280952D01*
X151897676Y-90280952D02*
X151992914Y-90233333D01*
X151992914Y-90233333D02*
X152183390Y-90185714D01*
X152183390Y-90185714D02*
X152326247Y-90185714D01*
X152326247Y-90185714D02*
X152516723Y-90233333D01*
X152516723Y-90233333D02*
X152611961Y-90280952D01*
X152611961Y-90280952D02*
X152707200Y-90376190D01*
X152707200Y-90376190D02*
X152754819Y-90519047D01*
X152754819Y-90519047D02*
X152754819Y-90757142D01*
X151850057Y-89804761D02*
X151802438Y-89757142D01*
X151802438Y-89757142D02*
X151754819Y-89661904D01*
X151754819Y-89661904D02*
X151754819Y-89423809D01*
X151754819Y-89423809D02*
X151802438Y-89328571D01*
X151802438Y-89328571D02*
X151850057Y-89280952D01*
X151850057Y-89280952D02*
X151945295Y-89233333D01*
X151945295Y-89233333D02*
X152040533Y-89233333D01*
X152040533Y-89233333D02*
X152183390Y-89280952D01*
X152183390Y-89280952D02*
X152754819Y-89852380D01*
X152754819Y-89852380D02*
X152754819Y-89233333D01*
X152754819Y-88280952D02*
X152754819Y-88852380D01*
X152754819Y-88566666D02*
X151754819Y-88566666D01*
X151754819Y-88566666D02*
X151897676Y-88661904D01*
X151897676Y-88661904D02*
X151992914Y-88757142D01*
X151992914Y-88757142D02*
X152040533Y-88852380D01*
X155354761Y-77954819D02*
X154878571Y-77954819D01*
X154878571Y-77954819D02*
X154878571Y-76954819D01*
X155688095Y-77431009D02*
X156021428Y-77431009D01*
X156164285Y-77954819D02*
X155688095Y-77954819D01*
X155688095Y-77954819D02*
X155688095Y-76954819D01*
X155688095Y-76954819D02*
X156164285Y-76954819D01*
X156592857Y-77954819D02*
X156592857Y-76954819D01*
X156592857Y-76954819D02*
X156830952Y-76954819D01*
X156830952Y-76954819D02*
X156973809Y-77002438D01*
X156973809Y-77002438D02*
X157069047Y-77097676D01*
X157069047Y-77097676D02*
X157116666Y-77192914D01*
X157116666Y-77192914D02*
X157164285Y-77383390D01*
X157164285Y-77383390D02*
X157164285Y-77526247D01*
X157164285Y-77526247D02*
X157116666Y-77716723D01*
X157116666Y-77716723D02*
X157069047Y-77811961D01*
X157069047Y-77811961D02*
X156973809Y-77907200D01*
X156973809Y-77907200D02*
X156830952Y-77954819D01*
X156830952Y-77954819D02*
X156592857Y-77954819D01*
X158116666Y-77954819D02*
X157545238Y-77954819D01*
X157830952Y-77954819D02*
X157830952Y-76954819D01*
X157830952Y-76954819D02*
X157735714Y-77097676D01*
X157735714Y-77097676D02*
X157640476Y-77192914D01*
X157640476Y-77192914D02*
X157545238Y-77240533D01*
X159069047Y-77954819D02*
X158497619Y-77954819D01*
X158783333Y-77954819D02*
X158783333Y-76954819D01*
X158783333Y-76954819D02*
X158688095Y-77097676D01*
X158688095Y-77097676D02*
X158592857Y-77192914D01*
X158592857Y-77192914D02*
X158497619Y-77240533D01*
X155354761Y-69954819D02*
X154878571Y-69954819D01*
X154878571Y-69954819D02*
X154878571Y-68954819D01*
X155688095Y-69431009D02*
X156021428Y-69431009D01*
X156164285Y-69954819D02*
X155688095Y-69954819D01*
X155688095Y-69954819D02*
X155688095Y-68954819D01*
X155688095Y-68954819D02*
X156164285Y-68954819D01*
X156592857Y-69954819D02*
X156592857Y-68954819D01*
X156592857Y-68954819D02*
X156830952Y-68954819D01*
X156830952Y-68954819D02*
X156973809Y-69002438D01*
X156973809Y-69002438D02*
X157069047Y-69097676D01*
X157069047Y-69097676D02*
X157116666Y-69192914D01*
X157116666Y-69192914D02*
X157164285Y-69383390D01*
X157164285Y-69383390D02*
X157164285Y-69526247D01*
X157164285Y-69526247D02*
X157116666Y-69716723D01*
X157116666Y-69716723D02*
X157069047Y-69811961D01*
X157069047Y-69811961D02*
X156973809Y-69907200D01*
X156973809Y-69907200D02*
X156830952Y-69954819D01*
X156830952Y-69954819D02*
X156592857Y-69954819D01*
X158116666Y-69954819D02*
X157545238Y-69954819D01*
X157830952Y-69954819D02*
X157830952Y-68954819D01*
X157830952Y-68954819D02*
X157735714Y-69097676D01*
X157735714Y-69097676D02*
X157640476Y-69192914D01*
X157640476Y-69192914D02*
X157545238Y-69240533D01*
X158735714Y-68954819D02*
X158830952Y-68954819D01*
X158830952Y-68954819D02*
X158926190Y-69002438D01*
X158926190Y-69002438D02*
X158973809Y-69050057D01*
X158973809Y-69050057D02*
X159021428Y-69145295D01*
X159021428Y-69145295D02*
X159069047Y-69335771D01*
X159069047Y-69335771D02*
X159069047Y-69573866D01*
X159069047Y-69573866D02*
X159021428Y-69764342D01*
X159021428Y-69764342D02*
X158973809Y-69859580D01*
X158973809Y-69859580D02*
X158926190Y-69907200D01*
X158926190Y-69907200D02*
X158830952Y-69954819D01*
X158830952Y-69954819D02*
X158735714Y-69954819D01*
X158735714Y-69954819D02*
X158640476Y-69907200D01*
X158640476Y-69907200D02*
X158592857Y-69859580D01*
X158592857Y-69859580D02*
X158545238Y-69764342D01*
X158545238Y-69764342D02*
X158497619Y-69573866D01*
X158497619Y-69573866D02*
X158497619Y-69335771D01*
X158497619Y-69335771D02*
X158545238Y-69145295D01*
X158545238Y-69145295D02*
X158592857Y-69050057D01*
X158592857Y-69050057D02*
X158640476Y-69002438D01*
X158640476Y-69002438D02*
X158735714Y-68954819D01*
X155833333Y-51454819D02*
X155500000Y-50978628D01*
X155261905Y-51454819D02*
X155261905Y-50454819D01*
X155261905Y-50454819D02*
X155642857Y-50454819D01*
X155642857Y-50454819D02*
X155738095Y-50502438D01*
X155738095Y-50502438D02*
X155785714Y-50550057D01*
X155785714Y-50550057D02*
X155833333Y-50645295D01*
X155833333Y-50645295D02*
X155833333Y-50788152D01*
X155833333Y-50788152D02*
X155785714Y-50883390D01*
X155785714Y-50883390D02*
X155738095Y-50931009D01*
X155738095Y-50931009D02*
X155642857Y-50978628D01*
X155642857Y-50978628D02*
X155261905Y-50978628D01*
X156785714Y-51454819D02*
X156214286Y-51454819D01*
X156500000Y-51454819D02*
X156500000Y-50454819D01*
X156500000Y-50454819D02*
X156404762Y-50597676D01*
X156404762Y-50597676D02*
X156309524Y-50692914D01*
X156309524Y-50692914D02*
X156214286Y-50740533D01*
X162865830Y-96266666D02*
X162913450Y-96314285D01*
X162913450Y-96314285D02*
X162961069Y-96457142D01*
X162961069Y-96457142D02*
X162961069Y-96552380D01*
X162961069Y-96552380D02*
X162913450Y-96695237D01*
X162913450Y-96695237D02*
X162818211Y-96790475D01*
X162818211Y-96790475D02*
X162722973Y-96838094D01*
X162722973Y-96838094D02*
X162532497Y-96885713D01*
X162532497Y-96885713D02*
X162389640Y-96885713D01*
X162389640Y-96885713D02*
X162199164Y-96838094D01*
X162199164Y-96838094D02*
X162103926Y-96790475D01*
X162103926Y-96790475D02*
X162008688Y-96695237D01*
X162008688Y-96695237D02*
X161961069Y-96552380D01*
X161961069Y-96552380D02*
X161961069Y-96457142D01*
X161961069Y-96457142D02*
X162008688Y-96314285D01*
X162008688Y-96314285D02*
X162056307Y-96266666D01*
X161961069Y-95361904D02*
X161961069Y-95838094D01*
X161961069Y-95838094D02*
X162437259Y-95885713D01*
X162437259Y-95885713D02*
X162389640Y-95838094D01*
X162389640Y-95838094D02*
X162342021Y-95742856D01*
X162342021Y-95742856D02*
X162342021Y-95504761D01*
X162342021Y-95504761D02*
X162389640Y-95409523D01*
X162389640Y-95409523D02*
X162437259Y-95361904D01*
X162437259Y-95361904D02*
X162532497Y-95314285D01*
X162532497Y-95314285D02*
X162770592Y-95314285D01*
X162770592Y-95314285D02*
X162865830Y-95361904D01*
X162865830Y-95361904D02*
X162913450Y-95409523D01*
X162913450Y-95409523D02*
X162961069Y-95504761D01*
X162961069Y-95504761D02*
X162961069Y-95742856D01*
X162961069Y-95742856D02*
X162913450Y-95838094D01*
X162913450Y-95838094D02*
X162865830Y-95885713D01*
X155830952Y-61954819D02*
X155354762Y-61954819D01*
X155354762Y-61954819D02*
X155354762Y-60954819D01*
X156164286Y-61431009D02*
X156497619Y-61431009D01*
X156640476Y-61954819D02*
X156164286Y-61954819D01*
X156164286Y-61954819D02*
X156164286Y-60954819D01*
X156164286Y-60954819D02*
X156640476Y-60954819D01*
X157069048Y-61954819D02*
X157069048Y-60954819D01*
X157069048Y-60954819D02*
X157307143Y-60954819D01*
X157307143Y-60954819D02*
X157450000Y-61002438D01*
X157450000Y-61002438D02*
X157545238Y-61097676D01*
X157545238Y-61097676D02*
X157592857Y-61192914D01*
X157592857Y-61192914D02*
X157640476Y-61383390D01*
X157640476Y-61383390D02*
X157640476Y-61526247D01*
X157640476Y-61526247D02*
X157592857Y-61716723D01*
X157592857Y-61716723D02*
X157545238Y-61811961D01*
X157545238Y-61811961D02*
X157450000Y-61907200D01*
X157450000Y-61907200D02*
X157307143Y-61954819D01*
X157307143Y-61954819D02*
X157069048Y-61954819D01*
X158592857Y-61954819D02*
X158021429Y-61954819D01*
X158307143Y-61954819D02*
X158307143Y-60954819D01*
X158307143Y-60954819D02*
X158211905Y-61097676D01*
X158211905Y-61097676D02*
X158116667Y-61192914D01*
X158116667Y-61192914D02*
X158021429Y-61240533D01*
D12*
X197278000Y-58746000D02*
X197278000Y-60524000D01*
X197278000Y-60524000D02*
X195500000Y-60524000D01*
X197278000Y-57730000D02*
X193722000Y-57730000D01*
X193722000Y-52142000D01*
X197278000Y-52142000D01*
X197278000Y-57730000D01*
X164590000Y-95388748D02*
X164590000Y-96811252D01*
X166410000Y-95388748D02*
X166410000Y-96811252D01*
X177300000Y-79250000D02*
X177300000Y-80400000D01*
X184600000Y-79250000D02*
X177300000Y-79250000D01*
X184600000Y-84750000D02*
X177300000Y-84750000D01*
X152278000Y-58746000D02*
X152278000Y-60524000D01*
X152278000Y-60524000D02*
X150500000Y-60524000D01*
X152278000Y-57730000D02*
X148722000Y-57730000D01*
X148722000Y-52142000D01*
X152278000Y-52142000D01*
X152278000Y-57730000D01*
X185300000Y-71250000D02*
X185300000Y-72400000D01*
X192600000Y-71250000D02*
X185300000Y-71250000D01*
X192600000Y-76750000D02*
X185300000Y-76750000D01*
X149170000Y-92670000D02*
X150500000Y-92670000D01*
X149170000Y-94000000D02*
X149170000Y-92670000D01*
X149170000Y-95270000D02*
X149170000Y-97870000D01*
X149170000Y-95270000D02*
X151830000Y-95270000D01*
X149170000Y-97870000D02*
X151830000Y-97870000D01*
X151830000Y-95270000D02*
X151830000Y-97870000D01*
X189090000Y-95263748D02*
X189090000Y-96686252D01*
X190910000Y-95263748D02*
X190910000Y-96686252D01*
X161300000Y-55250000D02*
X161300000Y-56400000D01*
X168600000Y-55250000D02*
X161300000Y-55250000D01*
X168600000Y-60750000D02*
X161300000Y-60750000D01*
X185300000Y-79250000D02*
X185300000Y-80400000D01*
X192600000Y-79250000D02*
X185300000Y-79250000D01*
X192600000Y-84750000D02*
X185300000Y-84750000D01*
X177300000Y-63250000D02*
X177300000Y-64400000D01*
X184600000Y-63250000D02*
X177300000Y-63250000D01*
X184600000Y-68750000D02*
X177300000Y-68750000D01*
X184246250Y-95263748D02*
X184246250Y-96686252D01*
X186066250Y-95263748D02*
X186066250Y-96686252D01*
X169300000Y-55250000D02*
X169300000Y-56400000D01*
X176600000Y-55250000D02*
X169300000Y-55250000D01*
X176600000Y-60750000D02*
X169300000Y-60750000D01*
X161300000Y-71250000D02*
X161300000Y-72400000D01*
X168600000Y-71250000D02*
X161300000Y-71250000D01*
X168600000Y-76750000D02*
X161300000Y-76750000D01*
X169300000Y-79250000D02*
X169300000Y-80400000D01*
X176600000Y-79250000D02*
X169300000Y-79250000D01*
X176600000Y-84750000D02*
X169300000Y-84750000D01*
X179402500Y-95263748D02*
X179402500Y-96686252D01*
X181222500Y-95263748D02*
X181222500Y-96686252D01*
X177300000Y-71250000D02*
X177300000Y-72400000D01*
X184600000Y-71250000D02*
X177300000Y-71250000D01*
X184600000Y-76750000D02*
X177300000Y-76750000D01*
X185300000Y-55250000D02*
X185300000Y-56400000D01*
X192600000Y-55250000D02*
X185300000Y-55250000D01*
X192600000Y-60750000D02*
X185300000Y-60750000D01*
X161300000Y-79250000D02*
X161300000Y-80400000D01*
X168600000Y-79250000D02*
X161300000Y-79250000D01*
X168600000Y-84750000D02*
X161300000Y-84750000D01*
X185300000Y-63250000D02*
X185300000Y-64400000D01*
X192600000Y-63250000D02*
X185300000Y-63250000D01*
X192600000Y-68750000D02*
X185300000Y-68750000D01*
X185300000Y-87250000D02*
X185300000Y-88400000D01*
X192600000Y-87250000D02*
X185300000Y-87250000D01*
X192600000Y-92750000D02*
X185300000Y-92750000D01*
X177300000Y-87250000D02*
X177300000Y-88400000D01*
X184600000Y-87250000D02*
X177300000Y-87250000D01*
X184600000Y-92750000D02*
X177300000Y-92750000D01*
X154902500Y-95388748D02*
X154902500Y-96811252D01*
X156722500Y-95388748D02*
X156722500Y-96811252D01*
X153300000Y-79250000D02*
X153300000Y-80400000D01*
X160600000Y-79250000D02*
X153300000Y-79250000D01*
X160600000Y-84750000D02*
X153300000Y-84750000D01*
X153300000Y-87250000D02*
X153300000Y-88400000D01*
X160600000Y-87250000D02*
X153300000Y-87250000D01*
X160600000Y-92750000D02*
X153300000Y-92750000D01*
X169300000Y-63250000D02*
X169300000Y-64400000D01*
X176600000Y-63250000D02*
X169300000Y-63250000D01*
X176600000Y-68750000D02*
X169300000Y-68750000D01*
X153300000Y-71250000D02*
X153300000Y-72400000D01*
X160600000Y-71250000D02*
X153300000Y-71250000D01*
X160600000Y-76750000D02*
X153300000Y-76750000D01*
X194170000Y-92670000D02*
X195500000Y-92670000D01*
X194170000Y-94000000D02*
X194170000Y-92670000D01*
X194170000Y-95270000D02*
X194170000Y-97870000D01*
X194170000Y-95270000D02*
X196830000Y-95270000D01*
X194170000Y-97870000D02*
X196830000Y-97870000D01*
X196830000Y-95270000D02*
X196830000Y-97870000D01*
X177300000Y-55250000D02*
X177300000Y-56400000D01*
X184600000Y-55250000D02*
X177300000Y-55250000D01*
X184600000Y-60750000D02*
X177300000Y-60750000D01*
X153300000Y-63250000D02*
X153300000Y-64400000D01*
X160600000Y-63250000D02*
X153300000Y-63250000D01*
X160600000Y-68750000D02*
X153300000Y-68750000D01*
X169300000Y-71250000D02*
X169300000Y-72400000D01*
X176600000Y-71250000D02*
X169300000Y-71250000D01*
X176600000Y-76750000D02*
X169300000Y-76750000D01*
X161300000Y-63250000D02*
X161300000Y-64400000D01*
X168600000Y-63250000D02*
X161300000Y-63250000D01*
X168600000Y-68750000D02*
X161300000Y-68750000D01*
X161300000Y-87250000D02*
X161300000Y-88400000D01*
X168600000Y-87250000D02*
X161300000Y-87250000D01*
X168600000Y-92750000D02*
X161300000Y-92750000D01*
X169300000Y-87250000D02*
X169300000Y-88400000D01*
X176600000Y-87250000D02*
X169300000Y-87250000D01*
X176600000Y-92750000D02*
X169300000Y-92750000D01*
X155310436Y-52090000D02*
X156764564Y-52090000D01*
X155310436Y-53910000D02*
X156764564Y-53910000D01*
X159746250Y-95388748D02*
X159746250Y-96811252D01*
X161566250Y-95388748D02*
X161566250Y-96811252D01*
X153300000Y-55250000D02*
X153300000Y-56400000D01*
X160600000Y-55250000D02*
X153300000Y-55250000D01*
X160600000Y-60750000D02*
X153300000Y-60750000D01*
%LPC*%
D13*
X195500000Y-59000000D03*
D14*
X195500000Y-56460000D03*
X195500000Y-53920000D03*
D15*
X165500000Y-94625000D03*
X165500000Y-97575000D03*
D16*
X183400000Y-83650000D03*
X183400000Y-80350000D03*
X178500000Y-80350000D03*
X178500000Y-83650000D03*
D13*
X150500000Y-59000000D03*
D14*
X150500000Y-56460000D03*
X150500000Y-53920000D03*
D16*
X191400000Y-75650000D03*
X191400000Y-72350000D03*
X186500000Y-72350000D03*
X186500000Y-75650000D03*
D17*
X150500000Y-94000000D03*
D18*
X150500000Y-96540000D03*
D15*
X190000000Y-94500000D03*
X190000000Y-97450000D03*
D16*
X167400000Y-59650000D03*
X167400000Y-56350000D03*
X162500000Y-56350000D03*
X162500000Y-59650000D03*
X191400000Y-83650000D03*
X191400000Y-80350000D03*
X186500000Y-80350000D03*
X186500000Y-83650000D03*
X183400000Y-67650000D03*
X183400000Y-64350000D03*
X178500000Y-64350000D03*
X178500000Y-67650000D03*
D15*
X185156250Y-94500000D03*
X185156250Y-97450000D03*
D16*
X175400000Y-59650000D03*
X175400000Y-56350000D03*
X170500000Y-56350000D03*
X170500000Y-59650000D03*
X167400000Y-75650000D03*
X167400000Y-72350000D03*
X162500000Y-72350000D03*
X162500000Y-75650000D03*
X175400000Y-83650000D03*
X175400000Y-80350000D03*
X170500000Y-80350000D03*
X170500000Y-83650000D03*
D15*
X180312500Y-94500000D03*
X180312500Y-97450000D03*
D16*
X183400000Y-75650000D03*
X183400000Y-72350000D03*
X178500000Y-72350000D03*
X178500000Y-75650000D03*
D19*
X173000000Y-51600000D03*
D16*
X191400000Y-59650000D03*
X191400000Y-56350000D03*
X186500000Y-56350000D03*
X186500000Y-59650000D03*
X167400000Y-83650000D03*
X167400000Y-80350000D03*
X162500000Y-80350000D03*
X162500000Y-83650000D03*
X191400000Y-67650000D03*
X191400000Y-64350000D03*
X186500000Y-64350000D03*
X186500000Y-67650000D03*
X191400000Y-91650000D03*
X191400000Y-88350000D03*
X186500000Y-88350000D03*
X186500000Y-91650000D03*
X183400000Y-91650000D03*
X183400000Y-88350000D03*
X178500000Y-88350000D03*
X178500000Y-91650000D03*
D15*
X155812500Y-94625000D03*
X155812500Y-97575000D03*
D16*
X159400000Y-83650000D03*
X159400000Y-80350000D03*
X154500000Y-80350000D03*
X154500000Y-83650000D03*
X159400000Y-91650000D03*
X159400000Y-88350000D03*
X154500000Y-88350000D03*
X154500000Y-91650000D03*
X175400000Y-67650000D03*
X175400000Y-64350000D03*
X170500000Y-64350000D03*
X170500000Y-67650000D03*
X159400000Y-75650000D03*
X159400000Y-72350000D03*
X154500000Y-72350000D03*
X154500000Y-75650000D03*
D17*
X195500000Y-94000000D03*
D18*
X195500000Y-96540000D03*
D16*
X183400000Y-59650000D03*
X183400000Y-56350000D03*
X178500000Y-56350000D03*
X178500000Y-59650000D03*
D19*
X173000000Y-97600000D03*
D16*
X159400000Y-67650000D03*
X159400000Y-64350000D03*
X154500000Y-64350000D03*
X154500000Y-67650000D03*
X175400000Y-75650000D03*
X175400000Y-72350000D03*
X170500000Y-72350000D03*
X170500000Y-75650000D03*
X167400000Y-67650000D03*
X167400000Y-64350000D03*
X162500000Y-64350000D03*
X162500000Y-67650000D03*
X167400000Y-91650000D03*
X167400000Y-88350000D03*
X162500000Y-88350000D03*
X162500000Y-91650000D03*
X175400000Y-91650000D03*
X175400000Y-88350000D03*
X170500000Y-88350000D03*
X170500000Y-91650000D03*
D20*
X154575000Y-53000000D03*
X157500000Y-53000000D03*
D15*
X160656250Y-94625000D03*
X160656250Y-97575000D03*
D16*
X159400000Y-59650000D03*
X159400000Y-56350000D03*
X154500000Y-56350000D03*
X154500000Y-59650000D03*
%LPD*%
M02*
