G04 #@! TF.GenerationSoftware,KiCad,Pcbnew,8.0.5*
G04 #@! TF.CreationDate,2024-11-25T19:05:47-05:00*
G04 #@! TF.ProjectId,Neo7SegmentMini,4e656f37-5365-4676-9d65-6e744d696e69,rev?*
G04 #@! TF.SameCoordinates,Original*
G04 #@! TF.FileFunction,Legend,Bot*
G04 #@! TF.FilePolarity,Positive*
%FSLAX46Y46*%
G04 Gerber Fmt 4.6, Leading zero omitted, Abs format (unit mm)*
G04 Created by KiCad (PCBNEW 8.0.5) date 2024-11-25 19:05:47*
%MOMM*%
%LPD*%
G01*
G04 APERTURE LIST*
%ADD10C,0.100000*%
%ADD11C,0.200000*%
%ADD12C,0.120000*%
%ADD13R,2.800000X1.800000*%
%ADD14O,2.800000X1.800000*%
%ADD15R,1.700000X1.700000*%
%ADD16O,1.700000X1.700000*%
%ADD17C,3.200000*%
%ADD18R,2.500000X2.500000*%
G04 APERTURE END LIST*
D10*
X188000000Y-97500000D02*
X175000000Y-97500000D01*
X188000000Y-51500000D02*
X175000000Y-51500000D01*
X179400000Y-58500000D02*
X175500000Y-61500000D01*
X175500000Y-59500000D01*
X169400000Y-59500000D01*
X169400000Y-57500000D01*
X175500000Y-57500000D01*
X175500000Y-55500000D01*
X179400000Y-58500000D01*
G36*
X179400000Y-58500000D02*
G01*
X175500000Y-61500000D01*
X175500000Y-59500000D01*
X169400000Y-59500000D01*
X169400000Y-57500000D01*
X175500000Y-57500000D01*
X175500000Y-55500000D01*
X179400000Y-58500000D01*
G37*
X156494360Y-53452825D02*
X156637218Y-53381396D01*
X156637218Y-53381396D02*
X156851503Y-53381396D01*
X156851503Y-53381396D02*
X157065789Y-53452825D01*
X157065789Y-53452825D02*
X157208646Y-53595682D01*
X157208646Y-53595682D02*
X157280075Y-53738539D01*
X157280075Y-53738539D02*
X157351503Y-54024253D01*
X157351503Y-54024253D02*
X157351503Y-54238539D01*
X157351503Y-54238539D02*
X157280075Y-54524253D01*
X157280075Y-54524253D02*
X157208646Y-54667110D01*
X157208646Y-54667110D02*
X157065789Y-54809968D01*
X157065789Y-54809968D02*
X156851503Y-54881396D01*
X156851503Y-54881396D02*
X156708646Y-54881396D01*
X156708646Y-54881396D02*
X156494360Y-54809968D01*
X156494360Y-54809968D02*
X156422932Y-54738539D01*
X156422932Y-54738539D02*
X156422932Y-54238539D01*
X156422932Y-54238539D02*
X156708646Y-54238539D01*
X155780075Y-54881396D02*
X155780075Y-53381396D01*
X155780075Y-53381396D02*
X154922932Y-54881396D01*
X154922932Y-54881396D02*
X154922932Y-53381396D01*
X154208646Y-54881396D02*
X154208646Y-53381396D01*
X154208646Y-53381396D02*
X153851503Y-53381396D01*
X153851503Y-53381396D02*
X153637217Y-53452825D01*
X153637217Y-53452825D02*
X153494360Y-53595682D01*
X153494360Y-53595682D02*
X153422931Y-53738539D01*
X153422931Y-53738539D02*
X153351503Y-54024253D01*
X153351503Y-54024253D02*
X153351503Y-54238539D01*
X153351503Y-54238539D02*
X153422931Y-54524253D01*
X153422931Y-54524253D02*
X153494360Y-54667110D01*
X153494360Y-54667110D02*
X153637217Y-54809968D01*
X153637217Y-54809968D02*
X153851503Y-54881396D01*
X153851503Y-54881396D02*
X154208646Y-54881396D01*
X156280075Y-57296312D02*
X156280075Y-55796312D01*
X156280075Y-55796312D02*
X155922932Y-55796312D01*
X155922932Y-55796312D02*
X155708646Y-55867741D01*
X155708646Y-55867741D02*
X155565789Y-56010598D01*
X155565789Y-56010598D02*
X155494360Y-56153455D01*
X155494360Y-56153455D02*
X155422932Y-56439169D01*
X155422932Y-56439169D02*
X155422932Y-56653455D01*
X155422932Y-56653455D02*
X155494360Y-56939169D01*
X155494360Y-56939169D02*
X155565789Y-57082026D01*
X155565789Y-57082026D02*
X155708646Y-57224884D01*
X155708646Y-57224884D02*
X155922932Y-57296312D01*
X155922932Y-57296312D02*
X156280075Y-57296312D01*
X154780075Y-57296312D02*
X154780075Y-56296312D01*
X154780075Y-55796312D02*
X154851503Y-55867741D01*
X154851503Y-55867741D02*
X154780075Y-55939169D01*
X154780075Y-55939169D02*
X154708646Y-55867741D01*
X154708646Y-55867741D02*
X154780075Y-55796312D01*
X154780075Y-55796312D02*
X154780075Y-55939169D01*
X154065789Y-56296312D02*
X154065789Y-57296312D01*
X154065789Y-56439169D02*
X153994360Y-56367741D01*
X153994360Y-56367741D02*
X153851503Y-56296312D01*
X153851503Y-56296312D02*
X153637217Y-56296312D01*
X153637217Y-56296312D02*
X153494360Y-56367741D01*
X153494360Y-56367741D02*
X153422932Y-56510598D01*
X153422932Y-56510598D02*
X153422932Y-57296312D01*
X155851503Y-59139800D02*
X154708646Y-59139800D01*
X155280074Y-59711228D02*
X155280074Y-58568371D01*
X154208645Y-58211228D02*
X153708645Y-59711228D01*
X153708645Y-59711228D02*
X153208645Y-58211228D01*
G36*
X194988972Y-70722419D02*
G01*
X194808990Y-70722419D01*
X194685030Y-70681099D01*
X194603874Y-70599942D01*
X194562339Y-70516872D01*
X194517544Y-70337692D01*
X194517544Y-70207145D01*
X194562339Y-70027965D01*
X194603875Y-69944893D01*
X194685028Y-69863739D01*
X194808990Y-69822419D01*
X194988972Y-69822419D01*
X194988972Y-70722419D01*
G37*
G36*
X195988972Y-70722419D02*
G01*
X195808990Y-70722419D01*
X195685030Y-70681099D01*
X195603874Y-70599942D01*
X195562339Y-70516872D01*
X195517544Y-70337692D01*
X195517544Y-70207145D01*
X195562339Y-70027965D01*
X195603875Y-69944893D01*
X195685028Y-69863739D01*
X195808990Y-69822419D01*
X195988972Y-69822419D01*
X195988972Y-70722419D01*
G37*
G36*
X197199957Y-70933530D02*
G01*
X194306433Y-70933530D01*
X194306433Y-70200990D01*
X194417544Y-70200990D01*
X194417544Y-70343847D01*
X194418739Y-70349856D01*
X194419037Y-70355974D01*
X194466656Y-70546450D01*
X194468995Y-70551402D01*
X194470442Y-70556684D01*
X194518060Y-70651921D01*
X194522971Y-70658249D01*
X194527426Y-70664916D01*
X194622665Y-70760155D01*
X194624746Y-70761545D01*
X194625260Y-70762573D01*
X194632225Y-70766543D01*
X194638886Y-70770994D01*
X194640034Y-70770994D01*
X194642209Y-70772234D01*
X194785065Y-70819853D01*
X194793015Y-70820855D01*
X194800877Y-70822419D01*
X195038972Y-70822419D01*
X195058106Y-70818613D01*
X195085166Y-70791553D01*
X195088972Y-70772419D01*
X195088972Y-70200990D01*
X195417544Y-70200990D01*
X195417544Y-70343847D01*
X195418739Y-70349856D01*
X195419037Y-70355974D01*
X195466656Y-70546450D01*
X195468995Y-70551402D01*
X195470442Y-70556684D01*
X195518060Y-70651921D01*
X195522971Y-70658249D01*
X195527426Y-70664916D01*
X195622665Y-70760155D01*
X195624746Y-70761545D01*
X195625260Y-70762573D01*
X195632225Y-70766543D01*
X195638886Y-70770994D01*
X195640034Y-70770994D01*
X195642209Y-70772234D01*
X195785065Y-70819853D01*
X195793015Y-70820855D01*
X195800877Y-70822419D01*
X196038972Y-70822419D01*
X196058106Y-70818613D01*
X196085166Y-70791553D01*
X196088972Y-70772419D01*
X196088972Y-69772419D01*
X196088267Y-69768875D01*
X196322432Y-69768875D01*
X196324872Y-69788230D01*
X196658205Y-70788230D01*
X196667866Y-70805178D01*
X196671207Y-70806848D01*
X196672879Y-70810192D01*
X196687921Y-70815205D01*
X196702095Y-70822293D01*
X196705638Y-70821111D01*
X196709183Y-70822293D01*
X196723362Y-70815203D01*
X196738399Y-70810191D01*
X196740069Y-70806850D01*
X196743412Y-70805179D01*
X196753073Y-70788230D01*
X197086406Y-69788231D01*
X197088846Y-69768875D01*
X197071732Y-69734647D01*
X197035428Y-69722545D01*
X197001199Y-69739660D01*
X196991538Y-69756608D01*
X196705639Y-70614305D01*
X196419740Y-69756608D01*
X196410079Y-69739659D01*
X196375850Y-69722545D01*
X196339546Y-69734646D01*
X196322432Y-69768875D01*
X196088267Y-69768875D01*
X196085166Y-69753285D01*
X196058106Y-69726225D01*
X196038972Y-69722419D01*
X195800877Y-69722419D01*
X195793015Y-69723982D01*
X195785065Y-69724985D01*
X195642209Y-69772604D01*
X195640034Y-69773844D01*
X195638886Y-69773844D01*
X195632225Y-69778294D01*
X195625260Y-69782265D01*
X195624746Y-69783292D01*
X195622665Y-69784683D01*
X195527427Y-69879921D01*
X195522975Y-69886582D01*
X195518060Y-69892916D01*
X195470442Y-69988153D01*
X195468995Y-69993434D01*
X195466656Y-69998387D01*
X195419037Y-70188863D01*
X195418739Y-70194980D01*
X195417544Y-70200990D01*
X195088972Y-70200990D01*
X195088972Y-69772419D01*
X195085166Y-69753285D01*
X195058106Y-69726225D01*
X195038972Y-69722419D01*
X194800877Y-69722419D01*
X194793015Y-69723982D01*
X194785065Y-69724985D01*
X194642209Y-69772604D01*
X194640034Y-69773844D01*
X194638886Y-69773844D01*
X194632225Y-69778294D01*
X194625260Y-69782265D01*
X194624746Y-69783292D01*
X194622665Y-69784683D01*
X194527427Y-69879921D01*
X194522975Y-69886582D01*
X194518060Y-69892916D01*
X194470442Y-69988153D01*
X194468995Y-69993434D01*
X194466656Y-69998387D01*
X194419037Y-70188863D01*
X194418739Y-70194980D01*
X194417544Y-70200990D01*
X194306433Y-70200990D01*
X194306433Y-69611308D01*
X197199957Y-69611308D01*
X197199957Y-70933530D01*
G37*
D11*
X182796993Y-79976196D02*
X183511279Y-79976196D01*
X183511279Y-79976196D02*
X183582707Y-80690482D01*
X183582707Y-80690482D02*
X183511279Y-80619053D01*
X183511279Y-80619053D02*
X183368422Y-80547625D01*
X183368422Y-80547625D02*
X183011279Y-80547625D01*
X183011279Y-80547625D02*
X182868422Y-80619053D01*
X182868422Y-80619053D02*
X182796993Y-80690482D01*
X182796993Y-80690482D02*
X182725564Y-80833339D01*
X182725564Y-80833339D02*
X182725564Y-81190482D01*
X182725564Y-81190482D02*
X182796993Y-81333339D01*
X182796993Y-81333339D02*
X182868422Y-81404768D01*
X182868422Y-81404768D02*
X183011279Y-81476196D01*
X183011279Y-81476196D02*
X183368422Y-81476196D01*
X183368422Y-81476196D02*
X183511279Y-81404768D01*
X183511279Y-81404768D02*
X183582707Y-81333339D01*
X182225565Y-81476196D02*
X181439851Y-80476196D01*
X182225565Y-80476196D02*
X181439851Y-81476196D01*
X180154136Y-79976196D02*
X180868422Y-79976196D01*
X180868422Y-79976196D02*
X180939850Y-80690482D01*
X180939850Y-80690482D02*
X180868422Y-80619053D01*
X180868422Y-80619053D02*
X180725565Y-80547625D01*
X180725565Y-80547625D02*
X180368422Y-80547625D01*
X180368422Y-80547625D02*
X180225565Y-80619053D01*
X180225565Y-80619053D02*
X180154136Y-80690482D01*
X180154136Y-80690482D02*
X180082707Y-80833339D01*
X180082707Y-80833339D02*
X180082707Y-81190482D01*
X180082707Y-81190482D02*
X180154136Y-81333339D01*
X180154136Y-81333339D02*
X180225565Y-81404768D01*
X180225565Y-81404768D02*
X180368422Y-81476196D01*
X180368422Y-81476196D02*
X180725565Y-81476196D01*
X180725565Y-81476196D02*
X180868422Y-81404768D01*
X180868422Y-81404768D02*
X180939850Y-81333339D01*
X177439851Y-81476196D02*
X177939851Y-80761910D01*
X178296994Y-81476196D02*
X178296994Y-79976196D01*
X178296994Y-79976196D02*
X177725565Y-79976196D01*
X177725565Y-79976196D02*
X177582708Y-80047625D01*
X177582708Y-80047625D02*
X177511279Y-80119053D01*
X177511279Y-80119053D02*
X177439851Y-80261910D01*
X177439851Y-80261910D02*
X177439851Y-80476196D01*
X177439851Y-80476196D02*
X177511279Y-80619053D01*
X177511279Y-80619053D02*
X177582708Y-80690482D01*
X177582708Y-80690482D02*
X177725565Y-80761910D01*
X177725565Y-80761910D02*
X178296994Y-80761910D01*
X176011279Y-80047625D02*
X176154137Y-79976196D01*
X176154137Y-79976196D02*
X176368422Y-79976196D01*
X176368422Y-79976196D02*
X176582708Y-80047625D01*
X176582708Y-80047625D02*
X176725565Y-80190482D01*
X176725565Y-80190482D02*
X176796994Y-80333339D01*
X176796994Y-80333339D02*
X176868422Y-80619053D01*
X176868422Y-80619053D02*
X176868422Y-80833339D01*
X176868422Y-80833339D02*
X176796994Y-81119053D01*
X176796994Y-81119053D02*
X176725565Y-81261910D01*
X176725565Y-81261910D02*
X176582708Y-81404768D01*
X176582708Y-81404768D02*
X176368422Y-81476196D01*
X176368422Y-81476196D02*
X176225565Y-81476196D01*
X176225565Y-81476196D02*
X176011279Y-81404768D01*
X176011279Y-81404768D02*
X175939851Y-81333339D01*
X175939851Y-81333339D02*
X175939851Y-80833339D01*
X175939851Y-80833339D02*
X176225565Y-80833339D01*
X174796994Y-80690482D02*
X174582708Y-80761910D01*
X174582708Y-80761910D02*
X174511279Y-80833339D01*
X174511279Y-80833339D02*
X174439851Y-80976196D01*
X174439851Y-80976196D02*
X174439851Y-81190482D01*
X174439851Y-81190482D02*
X174511279Y-81333339D01*
X174511279Y-81333339D02*
X174582708Y-81404768D01*
X174582708Y-81404768D02*
X174725565Y-81476196D01*
X174725565Y-81476196D02*
X175296994Y-81476196D01*
X175296994Y-81476196D02*
X175296994Y-79976196D01*
X175296994Y-79976196D02*
X174796994Y-79976196D01*
X174796994Y-79976196D02*
X174654137Y-80047625D01*
X174654137Y-80047625D02*
X174582708Y-80119053D01*
X174582708Y-80119053D02*
X174511279Y-80261910D01*
X174511279Y-80261910D02*
X174511279Y-80404768D01*
X174511279Y-80404768D02*
X174582708Y-80547625D01*
X174582708Y-80547625D02*
X174654137Y-80619053D01*
X174654137Y-80619053D02*
X174796994Y-80690482D01*
X174796994Y-80690482D02*
X175296994Y-80690482D01*
X174154137Y-81619053D02*
X173011279Y-81619053D01*
X171939851Y-81476196D02*
X172654137Y-81476196D01*
X172654137Y-81476196D02*
X172654137Y-79976196D01*
X171439851Y-80690482D02*
X170939851Y-80690482D01*
X170725565Y-81476196D02*
X171439851Y-81476196D01*
X171439851Y-81476196D02*
X171439851Y-79976196D01*
X171439851Y-79976196D02*
X170725565Y-79976196D01*
X170082708Y-81476196D02*
X170082708Y-79976196D01*
X170082708Y-79976196D02*
X169725565Y-79976196D01*
X169725565Y-79976196D02*
X169511279Y-80047625D01*
X169511279Y-80047625D02*
X169368422Y-80190482D01*
X169368422Y-80190482D02*
X169296993Y-80333339D01*
X169296993Y-80333339D02*
X169225565Y-80619053D01*
X169225565Y-80619053D02*
X169225565Y-80833339D01*
X169225565Y-80833339D02*
X169296993Y-81119053D01*
X169296993Y-81119053D02*
X169368422Y-81261910D01*
X169368422Y-81261910D02*
X169511279Y-81404768D01*
X169511279Y-81404768D02*
X169725565Y-81476196D01*
X169725565Y-81476196D02*
X170082708Y-81476196D01*
X167439851Y-81476196D02*
X167439851Y-79976196D01*
X167439851Y-79976196D02*
X166939851Y-81047625D01*
X166939851Y-81047625D02*
X166439851Y-79976196D01*
X166439851Y-79976196D02*
X166439851Y-81476196D01*
X165082708Y-81476196D02*
X165082708Y-80690482D01*
X165082708Y-80690482D02*
X165154136Y-80547625D01*
X165154136Y-80547625D02*
X165296993Y-80476196D01*
X165296993Y-80476196D02*
X165582708Y-80476196D01*
X165582708Y-80476196D02*
X165725565Y-80547625D01*
X165082708Y-81404768D02*
X165225565Y-81476196D01*
X165225565Y-81476196D02*
X165582708Y-81476196D01*
X165582708Y-81476196D02*
X165725565Y-81404768D01*
X165725565Y-81404768D02*
X165796993Y-81261910D01*
X165796993Y-81261910D02*
X165796993Y-81119053D01*
X165796993Y-81119053D02*
X165725565Y-80976196D01*
X165725565Y-80976196D02*
X165582708Y-80904768D01*
X165582708Y-80904768D02*
X165225565Y-80904768D01*
X165225565Y-80904768D02*
X165082708Y-80833339D01*
X164582707Y-80476196D02*
X164011279Y-80476196D01*
X164368422Y-79976196D02*
X164368422Y-81261910D01*
X164368422Y-81261910D02*
X164296993Y-81404768D01*
X164296993Y-81404768D02*
X164154136Y-81476196D01*
X164154136Y-81476196D02*
X164011279Y-81476196D01*
X163511279Y-81476196D02*
X163511279Y-80476196D01*
X163511279Y-80761910D02*
X163439850Y-80619053D01*
X163439850Y-80619053D02*
X163368422Y-80547625D01*
X163368422Y-80547625D02*
X163225564Y-80476196D01*
X163225564Y-80476196D02*
X163082707Y-80476196D01*
X162582708Y-81476196D02*
X162582708Y-80476196D01*
X162582708Y-79976196D02*
X162654136Y-80047625D01*
X162654136Y-80047625D02*
X162582708Y-80119053D01*
X162582708Y-80119053D02*
X162511279Y-80047625D01*
X162511279Y-80047625D02*
X162582708Y-79976196D01*
X162582708Y-79976196D02*
X162582708Y-80119053D01*
X162011279Y-81476196D02*
X161225565Y-80476196D01*
X162011279Y-80476196D02*
X161225565Y-81476196D01*
X159654136Y-80476196D02*
X159296993Y-81476196D01*
X159296993Y-81476196D02*
X158939850Y-80476196D01*
X158082707Y-79976196D02*
X157939850Y-79976196D01*
X157939850Y-79976196D02*
X157796993Y-80047625D01*
X157796993Y-80047625D02*
X157725565Y-80119053D01*
X157725565Y-80119053D02*
X157654136Y-80261910D01*
X157654136Y-80261910D02*
X157582707Y-80547625D01*
X157582707Y-80547625D02*
X157582707Y-80904768D01*
X157582707Y-80904768D02*
X157654136Y-81190482D01*
X157654136Y-81190482D02*
X157725565Y-81333339D01*
X157725565Y-81333339D02*
X157796993Y-81404768D01*
X157796993Y-81404768D02*
X157939850Y-81476196D01*
X157939850Y-81476196D02*
X158082707Y-81476196D01*
X158082707Y-81476196D02*
X158225565Y-81404768D01*
X158225565Y-81404768D02*
X158296993Y-81333339D01*
X158296993Y-81333339D02*
X158368422Y-81190482D01*
X158368422Y-81190482D02*
X158439850Y-80904768D01*
X158439850Y-80904768D02*
X158439850Y-80547625D01*
X158439850Y-80547625D02*
X158368422Y-80261910D01*
X158368422Y-80261910D02*
X158296993Y-80119053D01*
X158296993Y-80119053D02*
X158225565Y-80047625D01*
X158225565Y-80047625D02*
X158082707Y-79976196D01*
X156939851Y-81333339D02*
X156868422Y-81404768D01*
X156868422Y-81404768D02*
X156939851Y-81476196D01*
X156939851Y-81476196D02*
X157011279Y-81404768D01*
X157011279Y-81404768D02*
X156939851Y-81333339D01*
X156939851Y-81333339D02*
X156939851Y-81476196D01*
X155439850Y-81476196D02*
X156296993Y-81476196D01*
X155868422Y-81476196D02*
X155868422Y-79976196D01*
X155868422Y-79976196D02*
X156011279Y-80190482D01*
X156011279Y-80190482D02*
X156154136Y-80333339D01*
X156154136Y-80333339D02*
X156296993Y-80404768D01*
X183082707Y-84462541D02*
X183154136Y-84391112D01*
X183154136Y-84391112D02*
X183296993Y-84176826D01*
X183296993Y-84176826D02*
X183368422Y-84033969D01*
X183368422Y-84033969D02*
X183439850Y-83819684D01*
X183439850Y-83819684D02*
X183511279Y-83462541D01*
X183511279Y-83462541D02*
X183511279Y-83176826D01*
X183511279Y-83176826D02*
X183439850Y-82819684D01*
X183439850Y-82819684D02*
X183368422Y-82605398D01*
X183368422Y-82605398D02*
X183296993Y-82462541D01*
X183296993Y-82462541D02*
X183154136Y-82248255D01*
X183154136Y-82248255D02*
X183082707Y-82176826D01*
X181868422Y-83819684D02*
X182011279Y-83891112D01*
X182011279Y-83891112D02*
X182296993Y-83891112D01*
X182296993Y-83891112D02*
X182439850Y-83819684D01*
X182439850Y-83819684D02*
X182511279Y-83748255D01*
X182511279Y-83748255D02*
X182582707Y-83605398D01*
X182582707Y-83605398D02*
X182582707Y-83176826D01*
X182582707Y-83176826D02*
X182511279Y-83033969D01*
X182511279Y-83033969D02*
X182439850Y-82962541D01*
X182439850Y-82962541D02*
X182296993Y-82891112D01*
X182296993Y-82891112D02*
X182011279Y-82891112D01*
X182011279Y-82891112D02*
X181868422Y-82962541D01*
X181368422Y-84462541D02*
X181296993Y-84391112D01*
X181296993Y-84391112D02*
X181154136Y-84176826D01*
X181154136Y-84176826D02*
X181082708Y-84033969D01*
X181082708Y-84033969D02*
X181011279Y-83819684D01*
X181011279Y-83819684D02*
X180939850Y-83462541D01*
X180939850Y-83462541D02*
X180939850Y-83176826D01*
X180939850Y-83176826D02*
X181011279Y-82819684D01*
X181011279Y-82819684D02*
X181082708Y-82605398D01*
X181082708Y-82605398D02*
X181154136Y-82462541D01*
X181154136Y-82462541D02*
X181296993Y-82248255D01*
X181296993Y-82248255D02*
X181368422Y-82176826D01*
X179154136Y-82533969D02*
X179082708Y-82462541D01*
X179082708Y-82462541D02*
X178939851Y-82391112D01*
X178939851Y-82391112D02*
X178582708Y-82391112D01*
X178582708Y-82391112D02*
X178439851Y-82462541D01*
X178439851Y-82462541D02*
X178368422Y-82533969D01*
X178368422Y-82533969D02*
X178296993Y-82676826D01*
X178296993Y-82676826D02*
X178296993Y-82819684D01*
X178296993Y-82819684D02*
X178368422Y-83033969D01*
X178368422Y-83033969D02*
X179225565Y-83891112D01*
X179225565Y-83891112D02*
X178296993Y-83891112D01*
X177368422Y-82391112D02*
X177225565Y-82391112D01*
X177225565Y-82391112D02*
X177082708Y-82462541D01*
X177082708Y-82462541D02*
X177011280Y-82533969D01*
X177011280Y-82533969D02*
X176939851Y-82676826D01*
X176939851Y-82676826D02*
X176868422Y-82962541D01*
X176868422Y-82962541D02*
X176868422Y-83319684D01*
X176868422Y-83319684D02*
X176939851Y-83605398D01*
X176939851Y-83605398D02*
X177011280Y-83748255D01*
X177011280Y-83748255D02*
X177082708Y-83819684D01*
X177082708Y-83819684D02*
X177225565Y-83891112D01*
X177225565Y-83891112D02*
X177368422Y-83891112D01*
X177368422Y-83891112D02*
X177511280Y-83819684D01*
X177511280Y-83819684D02*
X177582708Y-83748255D01*
X177582708Y-83748255D02*
X177654137Y-83605398D01*
X177654137Y-83605398D02*
X177725565Y-83319684D01*
X177725565Y-83319684D02*
X177725565Y-82962541D01*
X177725565Y-82962541D02*
X177654137Y-82676826D01*
X177654137Y-82676826D02*
X177582708Y-82533969D01*
X177582708Y-82533969D02*
X177511280Y-82462541D01*
X177511280Y-82462541D02*
X177368422Y-82391112D01*
X176296994Y-82533969D02*
X176225566Y-82462541D01*
X176225566Y-82462541D02*
X176082709Y-82391112D01*
X176082709Y-82391112D02*
X175725566Y-82391112D01*
X175725566Y-82391112D02*
X175582709Y-82462541D01*
X175582709Y-82462541D02*
X175511280Y-82533969D01*
X175511280Y-82533969D02*
X175439851Y-82676826D01*
X175439851Y-82676826D02*
X175439851Y-82819684D01*
X175439851Y-82819684D02*
X175511280Y-83033969D01*
X175511280Y-83033969D02*
X176368423Y-83891112D01*
X176368423Y-83891112D02*
X175439851Y-83891112D01*
X174154138Y-82891112D02*
X174154138Y-83891112D01*
X174511280Y-82319684D02*
X174868423Y-83391112D01*
X174868423Y-83391112D02*
X173939852Y-83391112D01*
X171368424Y-83891112D02*
X171868424Y-83176826D01*
X172225567Y-83891112D02*
X172225567Y-82391112D01*
X172225567Y-82391112D02*
X171654138Y-82391112D01*
X171654138Y-82391112D02*
X171511281Y-82462541D01*
X171511281Y-82462541D02*
X171439852Y-82533969D01*
X171439852Y-82533969D02*
X171368424Y-82676826D01*
X171368424Y-82676826D02*
X171368424Y-82891112D01*
X171368424Y-82891112D02*
X171439852Y-83033969D01*
X171439852Y-83033969D02*
X171511281Y-83105398D01*
X171511281Y-83105398D02*
X171654138Y-83176826D01*
X171654138Y-83176826D02*
X172225567Y-83176826D01*
X170868424Y-82891112D02*
X170511281Y-83891112D01*
X170154138Y-82891112D02*
X170511281Y-83891112D01*
X170511281Y-83891112D02*
X170654138Y-84248255D01*
X170654138Y-84248255D02*
X170725567Y-84319684D01*
X170725567Y-84319684D02*
X170868424Y-84391112D01*
X168939853Y-83891112D02*
X168939853Y-83105398D01*
X168939853Y-83105398D02*
X169011281Y-82962541D01*
X169011281Y-82962541D02*
X169154138Y-82891112D01*
X169154138Y-82891112D02*
X169439853Y-82891112D01*
X169439853Y-82891112D02*
X169582710Y-82962541D01*
X168939853Y-83819684D02*
X169082710Y-83891112D01*
X169082710Y-83891112D02*
X169439853Y-83891112D01*
X169439853Y-83891112D02*
X169582710Y-83819684D01*
X169582710Y-83819684D02*
X169654138Y-83676826D01*
X169654138Y-83676826D02*
X169654138Y-83533969D01*
X169654138Y-83533969D02*
X169582710Y-83391112D01*
X169582710Y-83391112D02*
X169439853Y-83319684D01*
X169439853Y-83319684D02*
X169082710Y-83319684D01*
X169082710Y-83319684D02*
X168939853Y-83248255D01*
X168225567Y-82891112D02*
X168225567Y-83891112D01*
X168225567Y-83033969D02*
X168154138Y-82962541D01*
X168154138Y-82962541D02*
X168011281Y-82891112D01*
X168011281Y-82891112D02*
X167796995Y-82891112D01*
X167796995Y-82891112D02*
X167654138Y-82962541D01*
X167654138Y-82962541D02*
X167582710Y-83105398D01*
X167582710Y-83105398D02*
X167582710Y-83891112D01*
X165225567Y-83105398D02*
X165011281Y-83176826D01*
X165011281Y-83176826D02*
X164939852Y-83248255D01*
X164939852Y-83248255D02*
X164868424Y-83391112D01*
X164868424Y-83391112D02*
X164868424Y-83605398D01*
X164868424Y-83605398D02*
X164939852Y-83748255D01*
X164939852Y-83748255D02*
X165011281Y-83819684D01*
X165011281Y-83819684D02*
X165154138Y-83891112D01*
X165154138Y-83891112D02*
X165725567Y-83891112D01*
X165725567Y-83891112D02*
X165725567Y-82391112D01*
X165725567Y-82391112D02*
X165225567Y-82391112D01*
X165225567Y-82391112D02*
X165082710Y-82462541D01*
X165082710Y-82462541D02*
X165011281Y-82533969D01*
X165011281Y-82533969D02*
X164939852Y-82676826D01*
X164939852Y-82676826D02*
X164939852Y-82819684D01*
X164939852Y-82819684D02*
X165011281Y-82962541D01*
X165011281Y-82962541D02*
X165082710Y-83033969D01*
X165082710Y-83033969D02*
X165225567Y-83105398D01*
X165225567Y-83105398D02*
X165725567Y-83105398D01*
X163582710Y-83891112D02*
X163582710Y-83105398D01*
X163582710Y-83105398D02*
X163654138Y-82962541D01*
X163654138Y-82962541D02*
X163796995Y-82891112D01*
X163796995Y-82891112D02*
X164082710Y-82891112D01*
X164082710Y-82891112D02*
X164225567Y-82962541D01*
X163582710Y-83819684D02*
X163725567Y-83891112D01*
X163725567Y-83891112D02*
X164082710Y-83891112D01*
X164082710Y-83891112D02*
X164225567Y-83819684D01*
X164225567Y-83819684D02*
X164296995Y-83676826D01*
X164296995Y-83676826D02*
X164296995Y-83533969D01*
X164296995Y-83533969D02*
X164225567Y-83391112D01*
X164225567Y-83391112D02*
X164082710Y-83319684D01*
X164082710Y-83319684D02*
X163725567Y-83319684D01*
X163725567Y-83319684D02*
X163582710Y-83248255D01*
X163082709Y-82891112D02*
X162511281Y-82891112D01*
X162868424Y-82391112D02*
X162868424Y-83676826D01*
X162868424Y-83676826D02*
X162796995Y-83819684D01*
X162796995Y-83819684D02*
X162654138Y-83891112D01*
X162654138Y-83891112D02*
X162511281Y-83891112D01*
X161439852Y-83819684D02*
X161582709Y-83891112D01*
X161582709Y-83891112D02*
X161868424Y-83891112D01*
X161868424Y-83891112D02*
X162011281Y-83819684D01*
X162011281Y-83819684D02*
X162082709Y-83676826D01*
X162082709Y-83676826D02*
X162082709Y-83105398D01*
X162082709Y-83105398D02*
X162011281Y-82962541D01*
X162011281Y-82962541D02*
X161868424Y-82891112D01*
X161868424Y-82891112D02*
X161582709Y-82891112D01*
X161582709Y-82891112D02*
X161439852Y-82962541D01*
X161439852Y-82962541D02*
X161368424Y-83105398D01*
X161368424Y-83105398D02*
X161368424Y-83248255D01*
X161368424Y-83248255D02*
X162082709Y-83391112D01*
X160796995Y-83819684D02*
X160654138Y-83891112D01*
X160654138Y-83891112D02*
X160368424Y-83891112D01*
X160368424Y-83891112D02*
X160225567Y-83819684D01*
X160225567Y-83819684D02*
X160154138Y-83676826D01*
X160154138Y-83676826D02*
X160154138Y-83605398D01*
X160154138Y-83605398D02*
X160225567Y-83462541D01*
X160225567Y-83462541D02*
X160368424Y-83391112D01*
X160368424Y-83391112D02*
X160582710Y-83391112D01*
X160582710Y-83391112D02*
X160725567Y-83319684D01*
X160725567Y-83319684D02*
X160796995Y-83176826D01*
X160796995Y-83176826D02*
X160796995Y-83105398D01*
X160796995Y-83105398D02*
X160725567Y-82962541D01*
X160725567Y-82962541D02*
X160582710Y-82891112D01*
X160582710Y-82891112D02*
X160368424Y-82891112D01*
X160368424Y-82891112D02*
X160225567Y-82962541D01*
X183654136Y-84806028D02*
X183296993Y-86306028D01*
X183296993Y-86306028D02*
X183011279Y-85234600D01*
X183011279Y-85234600D02*
X182725564Y-86306028D01*
X182725564Y-86306028D02*
X182368422Y-84806028D01*
X181868421Y-86234600D02*
X181654136Y-86306028D01*
X181654136Y-86306028D02*
X181296993Y-86306028D01*
X181296993Y-86306028D02*
X181154136Y-86234600D01*
X181154136Y-86234600D02*
X181082707Y-86163171D01*
X181082707Y-86163171D02*
X181011278Y-86020314D01*
X181011278Y-86020314D02*
X181011278Y-85877457D01*
X181011278Y-85877457D02*
X181082707Y-85734600D01*
X181082707Y-85734600D02*
X181154136Y-85663171D01*
X181154136Y-85663171D02*
X181296993Y-85591742D01*
X181296993Y-85591742D02*
X181582707Y-85520314D01*
X181582707Y-85520314D02*
X181725564Y-85448885D01*
X181725564Y-85448885D02*
X181796993Y-85377457D01*
X181796993Y-85377457D02*
X181868421Y-85234600D01*
X181868421Y-85234600D02*
X181868421Y-85091742D01*
X181868421Y-85091742D02*
X181796993Y-84948885D01*
X181796993Y-84948885D02*
X181725564Y-84877457D01*
X181725564Y-84877457D02*
X181582707Y-84806028D01*
X181582707Y-84806028D02*
X181225564Y-84806028D01*
X181225564Y-84806028D02*
X181011278Y-84877457D01*
X180439850Y-84948885D02*
X180368422Y-84877457D01*
X180368422Y-84877457D02*
X180225565Y-84806028D01*
X180225565Y-84806028D02*
X179868422Y-84806028D01*
X179868422Y-84806028D02*
X179725565Y-84877457D01*
X179725565Y-84877457D02*
X179654136Y-84948885D01*
X179654136Y-84948885D02*
X179582707Y-85091742D01*
X179582707Y-85091742D02*
X179582707Y-85234600D01*
X179582707Y-85234600D02*
X179654136Y-85448885D01*
X179654136Y-85448885D02*
X180511279Y-86306028D01*
X180511279Y-86306028D02*
X179582707Y-86306028D01*
X178725565Y-85448885D02*
X178868422Y-85377457D01*
X178868422Y-85377457D02*
X178939851Y-85306028D01*
X178939851Y-85306028D02*
X179011279Y-85163171D01*
X179011279Y-85163171D02*
X179011279Y-85091742D01*
X179011279Y-85091742D02*
X178939851Y-84948885D01*
X178939851Y-84948885D02*
X178868422Y-84877457D01*
X178868422Y-84877457D02*
X178725565Y-84806028D01*
X178725565Y-84806028D02*
X178439851Y-84806028D01*
X178439851Y-84806028D02*
X178296994Y-84877457D01*
X178296994Y-84877457D02*
X178225565Y-84948885D01*
X178225565Y-84948885D02*
X178154136Y-85091742D01*
X178154136Y-85091742D02*
X178154136Y-85163171D01*
X178154136Y-85163171D02*
X178225565Y-85306028D01*
X178225565Y-85306028D02*
X178296994Y-85377457D01*
X178296994Y-85377457D02*
X178439851Y-85448885D01*
X178439851Y-85448885D02*
X178725565Y-85448885D01*
X178725565Y-85448885D02*
X178868422Y-85520314D01*
X178868422Y-85520314D02*
X178939851Y-85591742D01*
X178939851Y-85591742D02*
X179011279Y-85734600D01*
X179011279Y-85734600D02*
X179011279Y-86020314D01*
X179011279Y-86020314D02*
X178939851Y-86163171D01*
X178939851Y-86163171D02*
X178868422Y-86234600D01*
X178868422Y-86234600D02*
X178725565Y-86306028D01*
X178725565Y-86306028D02*
X178439851Y-86306028D01*
X178439851Y-86306028D02*
X178296994Y-86234600D01*
X178296994Y-86234600D02*
X178225565Y-86163171D01*
X178225565Y-86163171D02*
X178154136Y-86020314D01*
X178154136Y-86020314D02*
X178154136Y-85734600D01*
X178154136Y-85734600D02*
X178225565Y-85591742D01*
X178225565Y-85591742D02*
X178296994Y-85520314D01*
X178296994Y-85520314D02*
X178439851Y-85448885D01*
X176725565Y-86306028D02*
X177582708Y-86306028D01*
X177154137Y-86306028D02*
X177154137Y-84806028D01*
X177154137Y-84806028D02*
X177296994Y-85020314D01*
X177296994Y-85020314D02*
X177439851Y-85163171D01*
X177439851Y-85163171D02*
X177582708Y-85234600D01*
X176154137Y-84948885D02*
X176082709Y-84877457D01*
X176082709Y-84877457D02*
X175939852Y-84806028D01*
X175939852Y-84806028D02*
X175582709Y-84806028D01*
X175582709Y-84806028D02*
X175439852Y-84877457D01*
X175439852Y-84877457D02*
X175368423Y-84948885D01*
X175368423Y-84948885D02*
X175296994Y-85091742D01*
X175296994Y-85091742D02*
X175296994Y-85234600D01*
X175296994Y-85234600D02*
X175368423Y-85448885D01*
X175368423Y-85448885D02*
X176225566Y-86306028D01*
X176225566Y-86306028D02*
X175296994Y-86306028D01*
X175011281Y-86448885D02*
X173868423Y-86448885D01*
X172796995Y-84806028D02*
X173511281Y-84806028D01*
X173511281Y-84806028D02*
X173582709Y-85520314D01*
X173582709Y-85520314D02*
X173511281Y-85448885D01*
X173511281Y-85448885D02*
X173368424Y-85377457D01*
X173368424Y-85377457D02*
X173011281Y-85377457D01*
X173011281Y-85377457D02*
X172868424Y-85448885D01*
X172868424Y-85448885D02*
X172796995Y-85520314D01*
X172796995Y-85520314D02*
X172725566Y-85663171D01*
X172725566Y-85663171D02*
X172725566Y-86020314D01*
X172725566Y-86020314D02*
X172796995Y-86163171D01*
X172796995Y-86163171D02*
X172868424Y-86234600D01*
X172868424Y-86234600D02*
X173011281Y-86306028D01*
X173011281Y-86306028D02*
X173368424Y-86306028D01*
X173368424Y-86306028D02*
X173511281Y-86234600D01*
X173511281Y-86234600D02*
X173582709Y-86163171D01*
X172225567Y-86306028D02*
X171439853Y-85306028D01*
X172225567Y-85306028D02*
X171439853Y-86306028D01*
X170154138Y-84806028D02*
X170868424Y-84806028D01*
X170868424Y-84806028D02*
X170939852Y-85520314D01*
X170939852Y-85520314D02*
X170868424Y-85448885D01*
X170868424Y-85448885D02*
X170725567Y-85377457D01*
X170725567Y-85377457D02*
X170368424Y-85377457D01*
X170368424Y-85377457D02*
X170225567Y-85448885D01*
X170225567Y-85448885D02*
X170154138Y-85520314D01*
X170154138Y-85520314D02*
X170082709Y-85663171D01*
X170082709Y-85663171D02*
X170082709Y-86020314D01*
X170082709Y-86020314D02*
X170154138Y-86163171D01*
X170154138Y-86163171D02*
X170225567Y-86234600D01*
X170225567Y-86234600D02*
X170368424Y-86306028D01*
X170368424Y-86306028D02*
X170725567Y-86306028D01*
X170725567Y-86306028D02*
X170868424Y-86234600D01*
X170868424Y-86234600D02*
X170939852Y-86163171D01*
X167868424Y-86877457D02*
X167939853Y-86806028D01*
X167939853Y-86806028D02*
X168082710Y-86591742D01*
X168082710Y-86591742D02*
X168154139Y-86448885D01*
X168154139Y-86448885D02*
X168225567Y-86234600D01*
X168225567Y-86234600D02*
X168296996Y-85877457D01*
X168296996Y-85877457D02*
X168296996Y-85591742D01*
X168296996Y-85591742D02*
X168225567Y-85234600D01*
X168225567Y-85234600D02*
X168154139Y-85020314D01*
X168154139Y-85020314D02*
X168082710Y-84877457D01*
X168082710Y-84877457D02*
X167939853Y-84663171D01*
X167939853Y-84663171D02*
X167868424Y-84591742D01*
X166296996Y-86448885D02*
X166439853Y-86377457D01*
X166439853Y-86377457D02*
X166582710Y-86234600D01*
X166582710Y-86234600D02*
X166796996Y-86020314D01*
X166796996Y-86020314D02*
X166939853Y-85948885D01*
X166939853Y-85948885D02*
X167082710Y-85948885D01*
X167011281Y-86306028D02*
X167154139Y-86234600D01*
X167154139Y-86234600D02*
X167296996Y-86091742D01*
X167296996Y-86091742D02*
X167368424Y-85806028D01*
X167368424Y-85806028D02*
X167368424Y-85306028D01*
X167368424Y-85306028D02*
X167296996Y-85020314D01*
X167296996Y-85020314D02*
X167154139Y-84877457D01*
X167154139Y-84877457D02*
X167011281Y-84806028D01*
X167011281Y-84806028D02*
X166725567Y-84806028D01*
X166725567Y-84806028D02*
X166582710Y-84877457D01*
X166582710Y-84877457D02*
X166439853Y-85020314D01*
X166439853Y-85020314D02*
X166368424Y-85306028D01*
X166368424Y-85306028D02*
X166368424Y-85806028D01*
X166368424Y-85806028D02*
X166439853Y-86091742D01*
X166439853Y-86091742D02*
X166582710Y-86234600D01*
X166582710Y-86234600D02*
X166725567Y-86306028D01*
X166725567Y-86306028D02*
X167011281Y-86306028D01*
X165939852Y-84806028D02*
X165082710Y-84806028D01*
X165511281Y-86306028D02*
X165511281Y-84806028D01*
X164296995Y-85591742D02*
X164296995Y-86306028D01*
X164796995Y-84806028D02*
X164296995Y-85591742D01*
X164296995Y-85591742D02*
X163796995Y-84806028D01*
X162225567Y-84948885D02*
X162154139Y-84877457D01*
X162154139Y-84877457D02*
X162011282Y-84806028D01*
X162011282Y-84806028D02*
X161654139Y-84806028D01*
X161654139Y-84806028D02*
X161511282Y-84877457D01*
X161511282Y-84877457D02*
X161439853Y-84948885D01*
X161439853Y-84948885D02*
X161368424Y-85091742D01*
X161368424Y-85091742D02*
X161368424Y-85234600D01*
X161368424Y-85234600D02*
X161439853Y-85448885D01*
X161439853Y-85448885D02*
X162296996Y-86306028D01*
X162296996Y-86306028D02*
X161368424Y-86306028D01*
X160011282Y-84806028D02*
X160725568Y-84806028D01*
X160725568Y-84806028D02*
X160796996Y-85520314D01*
X160796996Y-85520314D02*
X160725568Y-85448885D01*
X160725568Y-85448885D02*
X160582711Y-85377457D01*
X160582711Y-85377457D02*
X160225568Y-85377457D01*
X160225568Y-85377457D02*
X160082711Y-85448885D01*
X160082711Y-85448885D02*
X160011282Y-85520314D01*
X160011282Y-85520314D02*
X159939853Y-85663171D01*
X159939853Y-85663171D02*
X159939853Y-86020314D01*
X159939853Y-86020314D02*
X160011282Y-86163171D01*
X160011282Y-86163171D02*
X160082711Y-86234600D01*
X160082711Y-86234600D02*
X160225568Y-86306028D01*
X160225568Y-86306028D02*
X160582711Y-86306028D01*
X160582711Y-86306028D02*
X160725568Y-86234600D01*
X160725568Y-86234600D02*
X160796996Y-86163171D01*
X159439854Y-86877457D02*
X159368425Y-86806028D01*
X159368425Y-86806028D02*
X159225568Y-86591742D01*
X159225568Y-86591742D02*
X159154140Y-86448885D01*
X159154140Y-86448885D02*
X159082711Y-86234600D01*
X159082711Y-86234600D02*
X159011282Y-85877457D01*
X159011282Y-85877457D02*
X159011282Y-85591742D01*
X159011282Y-85591742D02*
X159082711Y-85234600D01*
X159082711Y-85234600D02*
X159154140Y-85020314D01*
X159154140Y-85020314D02*
X159225568Y-84877457D01*
X159225568Y-84877457D02*
X159368425Y-84663171D01*
X159368425Y-84663171D02*
X159439854Y-84591742D01*
D10*
X191491353Y-53052825D02*
X191634211Y-52981396D01*
X191634211Y-52981396D02*
X191848496Y-52981396D01*
X191848496Y-52981396D02*
X192062782Y-53052825D01*
X192062782Y-53052825D02*
X192205639Y-53195682D01*
X192205639Y-53195682D02*
X192277068Y-53338539D01*
X192277068Y-53338539D02*
X192348496Y-53624253D01*
X192348496Y-53624253D02*
X192348496Y-53838539D01*
X192348496Y-53838539D02*
X192277068Y-54124253D01*
X192277068Y-54124253D02*
X192205639Y-54267110D01*
X192205639Y-54267110D02*
X192062782Y-54409968D01*
X192062782Y-54409968D02*
X191848496Y-54481396D01*
X191848496Y-54481396D02*
X191705639Y-54481396D01*
X191705639Y-54481396D02*
X191491353Y-54409968D01*
X191491353Y-54409968D02*
X191419925Y-54338539D01*
X191419925Y-54338539D02*
X191419925Y-53838539D01*
X191419925Y-53838539D02*
X191705639Y-53838539D01*
X190777068Y-54481396D02*
X190777068Y-52981396D01*
X190777068Y-52981396D02*
X189919925Y-54481396D01*
X189919925Y-54481396D02*
X189919925Y-52981396D01*
X189205639Y-54481396D02*
X189205639Y-52981396D01*
X189205639Y-52981396D02*
X188848496Y-52981396D01*
X188848496Y-52981396D02*
X188634210Y-53052825D01*
X188634210Y-53052825D02*
X188491353Y-53195682D01*
X188491353Y-53195682D02*
X188419924Y-53338539D01*
X188419924Y-53338539D02*
X188348496Y-53624253D01*
X188348496Y-53624253D02*
X188348496Y-53838539D01*
X188348496Y-53838539D02*
X188419924Y-54124253D01*
X188419924Y-54124253D02*
X188491353Y-54267110D01*
X188491353Y-54267110D02*
X188634210Y-54409968D01*
X188634210Y-54409968D02*
X188848496Y-54481396D01*
X188848496Y-54481396D02*
X189205639Y-54481396D01*
X192277068Y-56896312D02*
X192277068Y-55396312D01*
X192277068Y-55396312D02*
X191919925Y-55396312D01*
X191919925Y-55396312D02*
X191705639Y-55467741D01*
X191705639Y-55467741D02*
X191562782Y-55610598D01*
X191562782Y-55610598D02*
X191491353Y-55753455D01*
X191491353Y-55753455D02*
X191419925Y-56039169D01*
X191419925Y-56039169D02*
X191419925Y-56253455D01*
X191419925Y-56253455D02*
X191491353Y-56539169D01*
X191491353Y-56539169D02*
X191562782Y-56682026D01*
X191562782Y-56682026D02*
X191705639Y-56824884D01*
X191705639Y-56824884D02*
X191919925Y-56896312D01*
X191919925Y-56896312D02*
X192277068Y-56896312D01*
X190562782Y-56896312D02*
X190705639Y-56824884D01*
X190705639Y-56824884D02*
X190777068Y-56753455D01*
X190777068Y-56753455D02*
X190848496Y-56610598D01*
X190848496Y-56610598D02*
X190848496Y-56182026D01*
X190848496Y-56182026D02*
X190777068Y-56039169D01*
X190777068Y-56039169D02*
X190705639Y-55967741D01*
X190705639Y-55967741D02*
X190562782Y-55896312D01*
X190562782Y-55896312D02*
X190348496Y-55896312D01*
X190348496Y-55896312D02*
X190205639Y-55967741D01*
X190205639Y-55967741D02*
X190134211Y-56039169D01*
X190134211Y-56039169D02*
X190062782Y-56182026D01*
X190062782Y-56182026D02*
X190062782Y-56610598D01*
X190062782Y-56610598D02*
X190134211Y-56753455D01*
X190134211Y-56753455D02*
X190205639Y-56824884D01*
X190205639Y-56824884D02*
X190348496Y-56896312D01*
X190348496Y-56896312D02*
X190562782Y-56896312D01*
X188777068Y-55896312D02*
X188777068Y-56896312D01*
X189419925Y-55896312D02*
X189419925Y-56682026D01*
X189419925Y-56682026D02*
X189348496Y-56824884D01*
X189348496Y-56824884D02*
X189205639Y-56896312D01*
X189205639Y-56896312D02*
X188991353Y-56896312D01*
X188991353Y-56896312D02*
X188848496Y-56824884D01*
X188848496Y-56824884D02*
X188777068Y-56753455D01*
X188277067Y-55896312D02*
X187705639Y-55896312D01*
X188062782Y-55396312D02*
X188062782Y-56682026D01*
X188062782Y-56682026D02*
X187991353Y-56824884D01*
X187991353Y-56824884D02*
X187848496Y-56896312D01*
X187848496Y-56896312D02*
X187705639Y-56896312D01*
X192277068Y-58739800D02*
X191134211Y-58739800D01*
X191705639Y-59311228D02*
X191705639Y-58168371D01*
X190634210Y-57811228D02*
X190134210Y-59311228D01*
X190134210Y-59311228D02*
X189634210Y-57811228D01*
G36*
X188098496Y-80822419D02*
G01*
X187918514Y-80822419D01*
X187794554Y-80781099D01*
X187713398Y-80699942D01*
X187671863Y-80616872D01*
X187627068Y-80437692D01*
X187627068Y-80307145D01*
X187671863Y-80127965D01*
X187713399Y-80044893D01*
X187794552Y-79963739D01*
X187918514Y-79922419D01*
X188098496Y-79922419D01*
X188098496Y-80822419D01*
G37*
G36*
X190404845Y-81033530D02*
G01*
X187415957Y-81033530D01*
X187415957Y-80300990D01*
X187527068Y-80300990D01*
X187527068Y-80443847D01*
X187528263Y-80449856D01*
X187528561Y-80455974D01*
X187576180Y-80646450D01*
X187578519Y-80651402D01*
X187579966Y-80656684D01*
X187627584Y-80751921D01*
X187632495Y-80758249D01*
X187636950Y-80764916D01*
X187732189Y-80860155D01*
X187734270Y-80861545D01*
X187734784Y-80862573D01*
X187741749Y-80866543D01*
X187748410Y-80870994D01*
X187749558Y-80870994D01*
X187751733Y-80872234D01*
X187894589Y-80919853D01*
X187902539Y-80920855D01*
X187910401Y-80922419D01*
X188148496Y-80922419D01*
X188167630Y-80918613D01*
X188194690Y-80891553D01*
X188198496Y-80872419D01*
X188198496Y-79872419D01*
X188574687Y-79872419D01*
X188574687Y-80872419D01*
X188578493Y-80891553D01*
X188583347Y-80896407D01*
X188585155Y-80903034D01*
X188596399Y-80909459D01*
X188605553Y-80918613D01*
X188612419Y-80918613D01*
X188618381Y-80922020D01*
X188630874Y-80918613D01*
X188643821Y-80918613D01*
X188648675Y-80913758D01*
X188655302Y-80911951D01*
X188668099Y-80897226D01*
X189146115Y-80060697D01*
X189146115Y-80872419D01*
X189149921Y-80891553D01*
X189176981Y-80918613D01*
X189215249Y-80918613D01*
X189242309Y-80891553D01*
X189246115Y-80872419D01*
X189246115Y-80443847D01*
X189574687Y-80443847D01*
X189574687Y-80777180D01*
X189578493Y-80796314D01*
X189589331Y-80812535D01*
X189636950Y-80860155D01*
X189639032Y-80861546D01*
X189639546Y-80862573D01*
X189646504Y-80866539D01*
X189653171Y-80870994D01*
X189654320Y-80870994D01*
X189656495Y-80872234D01*
X189799351Y-80919853D01*
X189807301Y-80920855D01*
X189815163Y-80922419D01*
X189910401Y-80922419D01*
X189918263Y-80920855D01*
X189926212Y-80919853D01*
X190069069Y-80872234D01*
X190071244Y-80870994D01*
X190072393Y-80870994D01*
X190079063Y-80866536D01*
X190086017Y-80862573D01*
X190086529Y-80861547D01*
X190088614Y-80860155D01*
X190183852Y-80764916D01*
X190188305Y-80758250D01*
X190193217Y-80751922D01*
X190240836Y-80656684D01*
X190242282Y-80651402D01*
X190244622Y-80646450D01*
X190292241Y-80455974D01*
X190292538Y-80449856D01*
X190293734Y-80443847D01*
X190293734Y-80300990D01*
X190292538Y-80294980D01*
X190292241Y-80288863D01*
X190244622Y-80098387D01*
X190242282Y-80093434D01*
X190240836Y-80088153D01*
X190193217Y-79992915D01*
X190188301Y-79986580D01*
X190183851Y-79979921D01*
X190088613Y-79884683D01*
X190086530Y-79883291D01*
X190086017Y-79882265D01*
X190079056Y-79878297D01*
X190072392Y-79873844D01*
X190071244Y-79873844D01*
X190069069Y-79872604D01*
X189926212Y-79824985D01*
X189918263Y-79823982D01*
X189910401Y-79822419D01*
X189767544Y-79822419D01*
X189765087Y-79822907D01*
X189763999Y-79822545D01*
X189756271Y-79824661D01*
X189748410Y-79826225D01*
X189747598Y-79827036D01*
X189745183Y-79827698D01*
X189649945Y-79875317D01*
X189634533Y-79887278D01*
X189622432Y-79923583D01*
X189639546Y-79957811D01*
X189675851Y-79969912D01*
X189694667Y-79964759D01*
X189779348Y-79922419D01*
X189902288Y-79922419D01*
X190026249Y-79963739D01*
X190107402Y-80044892D01*
X190148939Y-80127966D01*
X190193734Y-80307145D01*
X190193734Y-80437692D01*
X190148939Y-80616870D01*
X190107402Y-80699944D01*
X190026248Y-80781098D01*
X189902288Y-80822419D01*
X189823276Y-80822419D01*
X189699316Y-80781099D01*
X189674687Y-80756469D01*
X189674687Y-80493847D01*
X189815163Y-80493847D01*
X189834297Y-80490041D01*
X189861357Y-80462981D01*
X189861357Y-80424713D01*
X189834297Y-80397653D01*
X189815163Y-80393847D01*
X189624687Y-80393847D01*
X189605553Y-80397653D01*
X189578493Y-80424713D01*
X189574687Y-80443847D01*
X189246115Y-80443847D01*
X189246115Y-79872419D01*
X189242309Y-79853285D01*
X189237454Y-79848430D01*
X189235647Y-79841804D01*
X189224402Y-79835378D01*
X189215249Y-79826225D01*
X189208383Y-79826225D01*
X189202421Y-79822818D01*
X189189929Y-79826225D01*
X189176981Y-79826225D01*
X189172125Y-79831080D01*
X189165501Y-79832887D01*
X189152703Y-79847612D01*
X188674687Y-80684140D01*
X188674687Y-79872419D01*
X188670881Y-79853285D01*
X188643821Y-79826225D01*
X188605553Y-79826225D01*
X188578493Y-79853285D01*
X188574687Y-79872419D01*
X188198496Y-79872419D01*
X188194690Y-79853285D01*
X188167630Y-79826225D01*
X188148496Y-79822419D01*
X187910401Y-79822419D01*
X187902539Y-79823982D01*
X187894589Y-79824985D01*
X187751733Y-79872604D01*
X187749558Y-79873844D01*
X187748410Y-79873844D01*
X187741749Y-79878294D01*
X187734784Y-79882265D01*
X187734270Y-79883292D01*
X187732189Y-79884683D01*
X187636951Y-79979921D01*
X187632499Y-79986582D01*
X187627584Y-79992916D01*
X187579966Y-80088153D01*
X187578519Y-80093434D01*
X187576180Y-80098387D01*
X187528561Y-80288863D01*
X187528263Y-80294980D01*
X187527068Y-80300990D01*
X187415957Y-80300990D01*
X187415957Y-79711308D01*
X190404845Y-79711308D01*
X190404845Y-81033530D01*
G37*
X174952380Y-90457419D02*
X175428570Y-90457419D01*
X175428570Y-90457419D02*
X175476189Y-90933609D01*
X175476189Y-90933609D02*
X175428570Y-90885990D01*
X175428570Y-90885990D02*
X175333332Y-90838371D01*
X175333332Y-90838371D02*
X175095237Y-90838371D01*
X175095237Y-90838371D02*
X174999999Y-90885990D01*
X174999999Y-90885990D02*
X174952380Y-90933609D01*
X174952380Y-90933609D02*
X174904761Y-91028847D01*
X174904761Y-91028847D02*
X174904761Y-91266942D01*
X174904761Y-91266942D02*
X174952380Y-91362180D01*
X174952380Y-91362180D02*
X174999999Y-91409800D01*
X174999999Y-91409800D02*
X175095237Y-91457419D01*
X175095237Y-91457419D02*
X175333332Y-91457419D01*
X175333332Y-91457419D02*
X175428570Y-91409800D01*
X175428570Y-91409800D02*
X175476189Y-91362180D01*
X174285713Y-90457419D02*
X174190475Y-90457419D01*
X174190475Y-90457419D02*
X174095237Y-90505038D01*
X174095237Y-90505038D02*
X174047618Y-90552657D01*
X174047618Y-90552657D02*
X173999999Y-90647895D01*
X173999999Y-90647895D02*
X173952380Y-90838371D01*
X173952380Y-90838371D02*
X173952380Y-91076466D01*
X173952380Y-91076466D02*
X173999999Y-91266942D01*
X173999999Y-91266942D02*
X174047618Y-91362180D01*
X174047618Y-91362180D02*
X174095237Y-91409800D01*
X174095237Y-91409800D02*
X174190475Y-91457419D01*
X174190475Y-91457419D02*
X174285713Y-91457419D01*
X174285713Y-91457419D02*
X174380951Y-91409800D01*
X174380951Y-91409800D02*
X174428570Y-91362180D01*
X174428570Y-91362180D02*
X174476189Y-91266942D01*
X174476189Y-91266942D02*
X174523808Y-91076466D01*
X174523808Y-91076466D02*
X174523808Y-90838371D01*
X174523808Y-90838371D02*
X174476189Y-90647895D01*
X174476189Y-90647895D02*
X174428570Y-90552657D01*
X174428570Y-90552657D02*
X174380951Y-90505038D01*
X174380951Y-90505038D02*
X174285713Y-90457419D01*
X172761903Y-91457419D02*
X172761903Y-90790752D01*
X172761903Y-90885990D02*
X172714284Y-90838371D01*
X172714284Y-90838371D02*
X172619046Y-90790752D01*
X172619046Y-90790752D02*
X172476189Y-90790752D01*
X172476189Y-90790752D02*
X172380951Y-90838371D01*
X172380951Y-90838371D02*
X172333332Y-90933609D01*
X172333332Y-90933609D02*
X172333332Y-91457419D01*
X172333332Y-90933609D02*
X172285713Y-90838371D01*
X172285713Y-90838371D02*
X172190475Y-90790752D01*
X172190475Y-90790752D02*
X172047618Y-90790752D01*
X172047618Y-90790752D02*
X171952379Y-90838371D01*
X171952379Y-90838371D02*
X171904760Y-90933609D01*
X171904760Y-90933609D02*
X171904760Y-91457419D01*
X171428570Y-91457419D02*
X171428570Y-90790752D01*
X171428570Y-90885990D02*
X171380951Y-90838371D01*
X171380951Y-90838371D02*
X171285713Y-90790752D01*
X171285713Y-90790752D02*
X171142856Y-90790752D01*
X171142856Y-90790752D02*
X171047618Y-90838371D01*
X171047618Y-90838371D02*
X170999999Y-90933609D01*
X170999999Y-90933609D02*
X170999999Y-91457419D01*
X170999999Y-90933609D02*
X170952380Y-90838371D01*
X170952380Y-90838371D02*
X170857142Y-90790752D01*
X170857142Y-90790752D02*
X170714285Y-90790752D01*
X170714285Y-90790752D02*
X170619046Y-90838371D01*
X170619046Y-90838371D02*
X170571427Y-90933609D01*
X170571427Y-90933609D02*
X170571427Y-91457419D01*
X148000000Y-95700000D02*
X148000000Y-91513580D01*
X198000000Y-95700000D02*
X198000000Y-91513580D01*
X148000000Y-92100000D02*
X198000000Y-92100000D01*
X148000000Y-92100000D02*
X198000000Y-92100000D01*
X148000000Y-92100000D02*
X149126504Y-91513579D01*
X148000000Y-92100000D02*
X149126504Y-92686421D01*
X198000000Y-92100000D02*
X196873496Y-92686421D01*
X198000000Y-92100000D02*
X196873496Y-91513579D01*
X150757419Y-72447619D02*
X150757419Y-71971429D01*
X150757419Y-71971429D02*
X151233609Y-71923810D01*
X151233609Y-71923810D02*
X151185990Y-71971429D01*
X151185990Y-71971429D02*
X151138371Y-72066667D01*
X151138371Y-72066667D02*
X151138371Y-72304762D01*
X151138371Y-72304762D02*
X151185990Y-72400000D01*
X151185990Y-72400000D02*
X151233609Y-72447619D01*
X151233609Y-72447619D02*
X151328847Y-72495238D01*
X151328847Y-72495238D02*
X151566942Y-72495238D01*
X151566942Y-72495238D02*
X151662180Y-72447619D01*
X151662180Y-72447619D02*
X151709800Y-72400000D01*
X151709800Y-72400000D02*
X151757419Y-72304762D01*
X151757419Y-72304762D02*
X151757419Y-72066667D01*
X151757419Y-72066667D02*
X151709800Y-71971429D01*
X151709800Y-71971429D02*
X151662180Y-71923810D01*
X150757419Y-72828572D02*
X150757419Y-73447619D01*
X150757419Y-73447619D02*
X151138371Y-73114286D01*
X151138371Y-73114286D02*
X151138371Y-73257143D01*
X151138371Y-73257143D02*
X151185990Y-73352381D01*
X151185990Y-73352381D02*
X151233609Y-73400000D01*
X151233609Y-73400000D02*
X151328847Y-73447619D01*
X151328847Y-73447619D02*
X151566942Y-73447619D01*
X151566942Y-73447619D02*
X151662180Y-73400000D01*
X151662180Y-73400000D02*
X151709800Y-73352381D01*
X151709800Y-73352381D02*
X151757419Y-73257143D01*
X151757419Y-73257143D02*
X151757419Y-72971429D01*
X151757419Y-72971429D02*
X151709800Y-72876191D01*
X151709800Y-72876191D02*
X151662180Y-72828572D01*
X151757419Y-74638096D02*
X151090752Y-74638096D01*
X151185990Y-74638096D02*
X151138371Y-74685715D01*
X151138371Y-74685715D02*
X151090752Y-74780953D01*
X151090752Y-74780953D02*
X151090752Y-74923810D01*
X151090752Y-74923810D02*
X151138371Y-75019048D01*
X151138371Y-75019048D02*
X151233609Y-75066667D01*
X151233609Y-75066667D02*
X151757419Y-75066667D01*
X151233609Y-75066667D02*
X151138371Y-75114286D01*
X151138371Y-75114286D02*
X151090752Y-75209524D01*
X151090752Y-75209524D02*
X151090752Y-75352381D01*
X151090752Y-75352381D02*
X151138371Y-75447620D01*
X151138371Y-75447620D02*
X151233609Y-75495239D01*
X151233609Y-75495239D02*
X151757419Y-75495239D01*
X151757419Y-75971429D02*
X151090752Y-75971429D01*
X151185990Y-75971429D02*
X151138371Y-76019048D01*
X151138371Y-76019048D02*
X151090752Y-76114286D01*
X151090752Y-76114286D02*
X151090752Y-76257143D01*
X151090752Y-76257143D02*
X151138371Y-76352381D01*
X151138371Y-76352381D02*
X151233609Y-76400000D01*
X151233609Y-76400000D02*
X151757419Y-76400000D01*
X151233609Y-76400000D02*
X151138371Y-76447619D01*
X151138371Y-76447619D02*
X151090752Y-76542857D01*
X151090752Y-76542857D02*
X151090752Y-76685714D01*
X151090752Y-76685714D02*
X151138371Y-76780953D01*
X151138371Y-76780953D02*
X151233609Y-76828572D01*
X151233609Y-76828572D02*
X151757419Y-76828572D01*
X152700000Y-47900000D02*
X152986420Y-47900000D01*
X152700000Y-100900000D02*
X152986420Y-100900000D01*
X152400000Y-47900000D02*
X152400000Y-100900000D01*
X152400000Y-47900000D02*
X152400000Y-100900000D01*
X152400000Y-47900000D02*
X152986421Y-49026504D01*
X152400000Y-47900000D02*
X151813579Y-49026504D01*
X152400000Y-100900000D02*
X151813579Y-99773496D01*
X152400000Y-100900000D02*
X152986421Y-99773496D01*
X184645103Y-72497159D02*
X185311768Y-72498608D01*
X184264669Y-72258236D02*
X184979471Y-72021694D01*
X184979471Y-72021694D02*
X184978125Y-72640740D01*
X184309700Y-73448813D02*
X184310114Y-73258337D01*
X184310114Y-73258337D02*
X184357940Y-73163203D01*
X184357940Y-73163203D02*
X184405663Y-73115688D01*
X184405663Y-73115688D02*
X184548727Y-73020760D01*
X184548727Y-73020760D02*
X184739306Y-72973555D01*
X184739306Y-72973555D02*
X185120257Y-72974384D01*
X185120257Y-72974384D02*
X185215392Y-73022210D01*
X185215392Y-73022210D02*
X185262907Y-73069932D01*
X185262907Y-73069932D02*
X185310319Y-73165273D01*
X185310319Y-73165273D02*
X185309905Y-73355749D01*
X185309905Y-73355749D02*
X185262079Y-73450884D01*
X185262079Y-73450884D02*
X185214357Y-73498399D01*
X185214357Y-73498399D02*
X185119015Y-73545811D01*
X185119015Y-73545811D02*
X184880920Y-73545293D01*
X184880920Y-73545293D02*
X184785786Y-73497467D01*
X184785786Y-73497467D02*
X184738271Y-73449745D01*
X184738271Y-73449745D02*
X184690859Y-73354403D01*
X184690859Y-73354403D02*
X184691273Y-73163928D01*
X184691273Y-73163928D02*
X184739099Y-73068793D01*
X184739099Y-73068793D02*
X184786821Y-73021278D01*
X184786821Y-73021278D02*
X184882163Y-72973866D01*
X185306903Y-74736699D02*
X184640238Y-74735249D01*
X184735476Y-74735456D02*
X184687753Y-74782972D01*
X184687753Y-74782972D02*
X184639927Y-74878106D01*
X184639927Y-74878106D02*
X184639617Y-75020963D01*
X184639617Y-75020963D02*
X184687029Y-75116304D01*
X184687029Y-75116304D02*
X184782163Y-75164130D01*
X184782163Y-75164130D02*
X185305971Y-75165269D01*
X184782163Y-75164130D02*
X184686822Y-75211542D01*
X184686822Y-75211542D02*
X184638996Y-75306677D01*
X184638996Y-75306677D02*
X184638685Y-75449533D01*
X184638685Y-75449533D02*
X184686097Y-75544875D01*
X184686097Y-75544875D02*
X184781231Y-75592701D01*
X184781231Y-75592701D02*
X185305040Y-75593839D01*
X185304004Y-76070028D02*
X184637339Y-76068579D01*
X184732577Y-76068786D02*
X184684855Y-76116302D01*
X184684855Y-76116302D02*
X184637029Y-76211436D01*
X184637029Y-76211436D02*
X184636718Y-76354293D01*
X184636718Y-76354293D02*
X184684130Y-76449634D01*
X184684130Y-76449634D02*
X184779264Y-76497460D01*
X184779264Y-76497460D02*
X185303073Y-76498599D01*
X184779264Y-76497460D02*
X184683923Y-76544872D01*
X184683923Y-76544872D02*
X184636097Y-76640006D01*
X184636097Y-76640006D02*
X184635786Y-76782863D01*
X184635786Y-76782863D02*
X184683198Y-76878205D01*
X184683198Y-76878205D02*
X184778333Y-76926031D01*
X184778333Y-76926031D02*
X185302141Y-76927169D01*
X185507283Y-97499146D02*
X185313581Y-97498725D01*
X185607283Y-51499146D02*
X185413581Y-51498725D01*
X185900000Y-97500000D02*
X186000000Y-51500000D01*
X185900000Y-97500000D02*
X186000000Y-51500000D01*
X185900000Y-97500000D02*
X185316030Y-96372224D01*
X185900000Y-97500000D02*
X186488868Y-96374774D01*
X186000000Y-51500000D02*
X186583970Y-52627776D01*
X186000000Y-51500000D02*
X185411132Y-52625226D01*
D12*
X193950000Y-66050000D02*
X196850000Y-66050000D01*
X193950000Y-68950000D02*
X193950000Y-66050000D01*
X196850000Y-66050000D02*
X196850000Y-68950000D01*
X196850000Y-68950000D02*
X193950000Y-68950000D01*
X187550000Y-76050000D02*
X190450000Y-76050000D01*
X187550000Y-78950000D02*
X187550000Y-76050000D01*
X190450000Y-76050000D02*
X190450000Y-78950000D01*
X190450000Y-78950000D02*
X187550000Y-78950000D01*
%LPC*%
D13*
X195500000Y-59000000D03*
D14*
X195500000Y-56460000D03*
X195500000Y-53920000D03*
D13*
X150500000Y-59000000D03*
D14*
X150500000Y-56460000D03*
X150500000Y-53920000D03*
D15*
X150500000Y-94000000D03*
D16*
X150500000Y-96540000D03*
D17*
X173000000Y-51600000D03*
D15*
X195500000Y-94000000D03*
D16*
X195500000Y-96540000D03*
D17*
X173000000Y-97600000D03*
D18*
X195400000Y-67500000D03*
X189000000Y-77500000D03*
%LPD*%
M02*
