M48
; DRILL file {KiCad 8.0.5} date 2024-11-25T19:06:02-0500
; FORMAT={-:-/ absolute / metric / decimal}
; #@! TF.CreationDate,2024-11-25T19:06:02-05:00
; #@! TF.GenerationSoftware,Kicad,Pcbnew,8.0.5
; #@! TF.FileFunction,Plated,1,2,PTH
FMAT,2
METRIC
; #@! TA.AperFunction,Plated,PTH,ViaDrill
T1C0.300
; #@! TA.AperFunction,Plated,PTH,ComponentDrill
T2C1.000
%
G90
G05
T1
X150.0Y-99.0
X151.0Y-80.5
X152.5Y-66.0
X152.5Y-74.5
X152.5Y-86.5
X153.0Y-53.0
X153.5Y-93.7
X154.25Y-99.0
X154.5Y-62.0
X156.9Y-71.0
X157.0Y-63.0
X157.0Y-87.0
X158.5Y-99.0
X159.25Y-52.75
X161.0Y-54.0
X161.0Y-63.0
X161.0Y-71.0
X161.0Y-79.0
X161.0Y-87.0
X162.75Y-99.0
X164.9Y-71.0
X165.0Y-54.0
X165.0Y-63.0
X165.0Y-79.0
X165.0Y-87.0
X167.0Y-99.0
X169.0Y-54.0
X169.0Y-63.0
X169.0Y-71.0
X169.0Y-79.0
X169.0Y-87.0
X172.9Y-71.0
X173.0Y-63.0
X173.0Y-79.0
X173.0Y-87.0
X177.0Y-54.0
X177.0Y-63.0
X177.0Y-71.0
X177.0Y-79.0
X177.0Y-87.0
X179.5Y-99.0
X180.9Y-71.0
X181.0Y-54.0
X181.0Y-63.0
X181.0Y-79.0
X181.0Y-87.0
X183.5Y-99.0
X185.0Y-54.0
X185.0Y-63.0
X185.0Y-71.0
X185.0Y-79.0
X185.0Y-87.0
X186.5Y-70.0
X187.5Y-99.0
X188.9Y-87.0
X189.0Y-54.0
X189.0Y-63.0
X191.5Y-86.0
X191.5Y-99.0
X192.0Y-54.0
X193.0Y-70.0
X193.25Y-58.25
X193.25Y-65.25
X194.0Y-74.0
X194.0Y-82.0
X195.3Y-71.8
X195.3Y-74.533
X195.3Y-77.267
X195.3Y-79.967
X195.5Y-99.0
X196.6Y-73.167
X196.6Y-75.9
X196.6Y-78.633
X196.6Y-81.333
T2
X150.5Y-53.92
X150.5Y-56.46
X150.5Y-59.0
X150.5Y-94.0
X150.5Y-96.54
X195.5Y-53.92
X195.5Y-56.46
X195.5Y-59.0
X195.5Y-94.0
X195.5Y-96.54
M30
