G04 #@! TF.GenerationSoftware,KiCad,Pcbnew,8.0.5*
G04 #@! TF.CreationDate,2024-11-25T19:05:47-05:00*
G04 #@! TF.ProjectId,Neo7SegmentMini,4e656f37-5365-4676-9d65-6e744d696e69,rev?*
G04 #@! TF.SameCoordinates,Original*
G04 #@! TF.FileFunction,Copper,L1,Top*
G04 #@! TF.FilePolarity,Positive*
%FSLAX46Y46*%
G04 Gerber Fmt 4.6, Leading zero omitted, Abs format (unit mm)*
G04 Created by KiCad (PCBNEW 8.0.5) date 2024-11-25 19:05:47*
%MOMM*%
%LPD*%
G01*
G04 APERTURE LIST*
G04 Aperture macros list*
%AMRoundRect*
0 Rectangle with rounded corners*
0 $1 Rounding radius*
0 $2 $3 $4 $5 $6 $7 $8 $9 X,Y pos of 4 corners*
0 Add a 4 corners polygon primitive as box body*
4,1,4,$2,$3,$4,$5,$6,$7,$8,$9,$2,$3,0*
0 Add four circle primitives for the rounded corners*
1,1,$1+$1,$2,$3*
1,1,$1+$1,$4,$5*
1,1,$1+$1,$6,$7*
1,1,$1+$1,$8,$9*
0 Add four rect primitives between the rounded corners*
20,1,$1+$1,$2,$3,$4,$5,0*
20,1,$1+$1,$4,$5,$6,$7,0*
20,1,$1+$1,$6,$7,$8,$9,0*
20,1,$1+$1,$8,$9,$2,$3,0*%
G04 Aperture macros list end*
G04 #@! TA.AperFunction,ComponentPad*
%ADD10R,2.800000X1.800000*%
G04 #@! TD*
G04 #@! TA.AperFunction,ComponentPad*
%ADD11O,2.800000X1.800000*%
G04 #@! TD*
G04 #@! TA.AperFunction,SMDPad,CuDef*
%ADD12RoundRect,0.250000X-0.650000X0.325000X-0.650000X-0.325000X0.650000X-0.325000X0.650000X0.325000X0*%
G04 #@! TD*
G04 #@! TA.AperFunction,SMDPad,CuDef*
%ADD13R,1.500000X0.900000*%
G04 #@! TD*
G04 #@! TA.AperFunction,ComponentPad*
%ADD14R,1.700000X1.700000*%
G04 #@! TD*
G04 #@! TA.AperFunction,ComponentPad*
%ADD15O,1.700000X1.700000*%
G04 #@! TD*
G04 #@! TA.AperFunction,SMDPad,CuDef*
%ADD16RoundRect,0.250000X-0.312500X-0.625000X0.312500X-0.625000X0.312500X0.625000X-0.312500X0.625000X0*%
G04 #@! TD*
G04 #@! TA.AperFunction,ViaPad*
%ADD17C,0.600000*%
G04 #@! TD*
G04 #@! TA.AperFunction,Conductor*
%ADD18C,0.355600*%
G04 #@! TD*
G04 APERTURE END LIST*
D10*
X195500000Y-59000000D03*
D11*
X195500000Y-56460000D03*
X195500000Y-53920000D03*
D12*
X165500000Y-94625000D03*
X165500000Y-97575000D03*
D13*
X183400000Y-83650000D03*
X183400000Y-80350000D03*
X178500000Y-80350000D03*
X178500000Y-83650000D03*
D10*
X150500000Y-59000000D03*
D11*
X150500000Y-56460000D03*
X150500000Y-53920000D03*
D13*
X191400000Y-75650000D03*
X191400000Y-72350000D03*
X186500000Y-72350000D03*
X186500000Y-75650000D03*
D14*
X150500000Y-94000000D03*
D15*
X150500000Y-96540000D03*
D12*
X190000000Y-94500000D03*
X190000000Y-97450000D03*
D13*
X167400000Y-59650000D03*
X167400000Y-56350000D03*
X162500000Y-56350000D03*
X162500000Y-59650000D03*
X191400000Y-83650000D03*
X191400000Y-80350000D03*
X186500000Y-80350000D03*
X186500000Y-83650000D03*
X183400000Y-67650000D03*
X183400000Y-64350000D03*
X178500000Y-64350000D03*
X178500000Y-67650000D03*
D12*
X185156250Y-94500000D03*
X185156250Y-97450000D03*
D13*
X175400000Y-59650000D03*
X175400000Y-56350000D03*
X170500000Y-56350000D03*
X170500000Y-59650000D03*
X167400000Y-75650000D03*
X167400000Y-72350000D03*
X162500000Y-72350000D03*
X162500000Y-75650000D03*
X175400000Y-83650000D03*
X175400000Y-80350000D03*
X170500000Y-80350000D03*
X170500000Y-83650000D03*
D12*
X180312500Y-94500000D03*
X180312500Y-97450000D03*
D13*
X183400000Y-75650000D03*
X183400000Y-72350000D03*
X178500000Y-72350000D03*
X178500000Y-75650000D03*
X191400000Y-59650000D03*
X191400000Y-56350000D03*
X186500000Y-56350000D03*
X186500000Y-59650000D03*
X167400000Y-83650000D03*
X167400000Y-80350000D03*
X162500000Y-80350000D03*
X162500000Y-83650000D03*
X191400000Y-67650000D03*
X191400000Y-64350000D03*
X186500000Y-64350000D03*
X186500000Y-67650000D03*
X191400000Y-91650000D03*
X191400000Y-88350000D03*
X186500000Y-88350000D03*
X186500000Y-91650000D03*
X183400000Y-91650000D03*
X183400000Y-88350000D03*
X178500000Y-88350000D03*
X178500000Y-91650000D03*
D12*
X155812500Y-94625000D03*
X155812500Y-97575000D03*
D13*
X159400000Y-83650000D03*
X159400000Y-80350000D03*
X154500000Y-80350000D03*
X154500000Y-83650000D03*
X159400000Y-91650000D03*
X159400000Y-88350000D03*
X154500000Y-88350000D03*
X154500000Y-91650000D03*
X175400000Y-67650000D03*
X175400000Y-64350000D03*
X170500000Y-64350000D03*
X170500000Y-67650000D03*
X159400000Y-75650000D03*
X159400000Y-72350000D03*
X154500000Y-72350000D03*
X154500000Y-75650000D03*
D14*
X195500000Y-94000000D03*
D15*
X195500000Y-96540000D03*
D13*
X183400000Y-59650000D03*
X183400000Y-56350000D03*
X178500000Y-56350000D03*
X178500000Y-59650000D03*
X159400000Y-67650000D03*
X159400000Y-64350000D03*
X154500000Y-64350000D03*
X154500000Y-67650000D03*
X175400000Y-75650000D03*
X175400000Y-72350000D03*
X170500000Y-72350000D03*
X170500000Y-75650000D03*
X167400000Y-67650000D03*
X167400000Y-64350000D03*
X162500000Y-64350000D03*
X162500000Y-67650000D03*
X167400000Y-91650000D03*
X167400000Y-88350000D03*
X162500000Y-88350000D03*
X162500000Y-91650000D03*
X175400000Y-91650000D03*
X175400000Y-88350000D03*
X170500000Y-88350000D03*
X170500000Y-91650000D03*
D16*
X154575000Y-53000000D03*
X157500000Y-53000000D03*
D12*
X160656250Y-94625000D03*
X160656250Y-97575000D03*
D13*
X159400000Y-59650000D03*
X159400000Y-56350000D03*
X154500000Y-56350000D03*
X154500000Y-59650000D03*
D17*
X154500000Y-62000000D03*
X159250000Y-52750000D03*
X153000000Y-53000000D03*
X195300000Y-71800000D03*
X195300000Y-74533332D03*
X196600000Y-75900000D03*
X196600000Y-73166666D03*
X196600000Y-81333334D03*
X195300000Y-77266666D03*
X195300000Y-79966666D03*
X196600000Y-78633334D03*
X165000000Y-79000000D03*
X169000000Y-87000000D03*
X188900000Y-87000000D03*
X165000000Y-54000000D03*
X161000000Y-63000000D03*
X173000000Y-63000000D03*
X158500000Y-99000000D03*
X165000000Y-87000000D03*
X185000000Y-54000000D03*
X173000000Y-87000000D03*
X185000000Y-87000000D03*
X191500000Y-99000000D03*
X189000000Y-63000000D03*
X177000000Y-54000000D03*
X157000000Y-87000000D03*
X181000000Y-54000000D03*
X181000000Y-79000000D03*
X169000000Y-71000000D03*
X161000000Y-71000000D03*
X165000000Y-63000000D03*
X185000000Y-79000000D03*
X192000000Y-54000000D03*
X177000000Y-63000000D03*
X169000000Y-54000000D03*
X172900000Y-71000000D03*
X169000000Y-63000000D03*
X195500000Y-99000000D03*
X161000000Y-79000000D03*
X167000000Y-99000000D03*
X177000000Y-87000000D03*
X173000000Y-79000000D03*
X150000000Y-99000000D03*
X183500000Y-99000000D03*
X180900000Y-71000000D03*
X181000000Y-87000000D03*
X157000000Y-63000000D03*
X185000000Y-63000000D03*
X177000000Y-79000000D03*
X161000000Y-54000000D03*
X187500000Y-99000000D03*
X156900000Y-71000000D03*
X185000000Y-71000000D03*
X169000000Y-79000000D03*
X154250000Y-99000000D03*
X189000000Y-54000000D03*
X161000000Y-87000000D03*
X164900000Y-71000000D03*
X177000000Y-71000000D03*
X162750000Y-99000000D03*
X151000000Y-80500000D03*
X179500000Y-99000000D03*
X181000000Y-63000000D03*
X193250000Y-65250000D03*
X193250000Y-58250000D03*
X152500000Y-74500000D03*
X152500000Y-66000000D03*
X194000000Y-82000000D03*
X194000000Y-74000000D03*
X152500000Y-86500000D03*
X153500000Y-93700000D03*
X193000000Y-70000000D03*
X191500000Y-86000000D03*
X186500000Y-70000000D03*
D18*
X159250000Y-52750000D02*
X157750000Y-52750000D01*
X157750000Y-52750000D02*
X157500000Y-53000000D01*
X154500000Y-62000000D02*
X154500000Y-59650000D01*
X153000000Y-53000000D02*
X154575000Y-53000000D01*
X159400000Y-56550000D02*
X162500000Y-59650000D01*
X159400000Y-56350000D02*
X159400000Y-56550000D01*
X167400000Y-56350000D02*
X167400000Y-56550000D01*
X167400000Y-56550000D02*
X170500000Y-59650000D01*
X175400000Y-56350000D02*
X175400000Y-56550000D01*
X175400000Y-56550000D02*
X178500000Y-59650000D01*
X183400000Y-56350000D02*
X183400000Y-56550000D01*
X183400000Y-56550000D02*
X186500000Y-59650000D01*
X193250000Y-58250000D02*
X193250000Y-58200000D01*
X193250000Y-58200000D02*
X191400000Y-56350000D01*
X192390400Y-66109600D02*
X189790400Y-66109600D01*
X188200000Y-67700000D02*
X186550000Y-67700000D01*
X186550000Y-67700000D02*
X186500000Y-67650000D01*
X189790400Y-66109600D02*
X188200000Y-67700000D01*
X193250000Y-65250000D02*
X192390400Y-66109600D01*
X181300000Y-66300000D02*
X179950000Y-67650000D01*
X191300000Y-64350000D02*
X189850000Y-64350000D01*
X189850000Y-64350000D02*
X187900000Y-66300000D01*
X179950000Y-67650000D02*
X178400000Y-67650000D01*
X187900000Y-66300000D02*
X181300000Y-66300000D01*
X171950000Y-67650000D02*
X170400000Y-67650000D01*
X181850000Y-64350000D02*
X179900000Y-66300000D01*
X173300000Y-66300000D02*
X171950000Y-67650000D01*
X179900000Y-66300000D02*
X173300000Y-66300000D01*
X183300000Y-64350000D02*
X181850000Y-64350000D01*
X163950000Y-67650000D02*
X162400000Y-67650000D01*
X165300000Y-66300000D02*
X163950000Y-67650000D01*
X173850000Y-64350000D02*
X171900000Y-66300000D01*
X175300000Y-64350000D02*
X173850000Y-64350000D01*
X171900000Y-66300000D02*
X165300000Y-66300000D01*
X156150000Y-67650000D02*
X154600000Y-67650000D01*
X164100000Y-66300000D02*
X157500000Y-66300000D01*
X166050000Y-64350000D02*
X164100000Y-66300000D01*
X167500000Y-64350000D02*
X166050000Y-64350000D01*
X157500000Y-66300000D02*
X156150000Y-67650000D01*
X152500000Y-74500000D02*
X153650000Y-75650000D01*
X158150000Y-64350000D02*
X159400000Y-64350000D01*
X153650000Y-75650000D02*
X154500000Y-75650000D01*
X156500000Y-66000000D02*
X158150000Y-64350000D01*
X152500000Y-66000000D02*
X156500000Y-66000000D01*
X159400000Y-72550000D02*
X162500000Y-75650000D01*
X159400000Y-72350000D02*
X159400000Y-72550000D01*
X167400000Y-72550000D02*
X170500000Y-75650000D01*
X167400000Y-72350000D02*
X167400000Y-72550000D01*
X175400000Y-72350000D02*
X175400000Y-72550000D01*
X175400000Y-72550000D02*
X178500000Y-75650000D01*
X183400000Y-72350000D02*
X183400000Y-72550000D01*
X183400000Y-72550000D02*
X186500000Y-75650000D01*
X191400000Y-72350000D02*
X192350000Y-72350000D01*
X193500000Y-82500000D02*
X194000000Y-82000000D01*
X187850000Y-83650000D02*
X189000000Y-82500000D01*
X189000000Y-82500000D02*
X193500000Y-82500000D01*
X186500000Y-83650000D02*
X187850000Y-83650000D01*
X192350000Y-72350000D02*
X194000000Y-74000000D01*
X191400000Y-80350000D02*
X189950000Y-80350000D01*
X180050000Y-83650000D02*
X178500000Y-83650000D01*
X188000000Y-82300000D02*
X181400000Y-82300000D01*
X189950000Y-80350000D02*
X188000000Y-82300000D01*
X181400000Y-82300000D02*
X180050000Y-83650000D01*
X173400000Y-82300000D02*
X172050000Y-83650000D01*
X180000000Y-82300000D02*
X173400000Y-82300000D01*
X183400000Y-80350000D02*
X181950000Y-80350000D01*
X172050000Y-83650000D02*
X170500000Y-83650000D01*
X181950000Y-80350000D02*
X180000000Y-82300000D01*
X163950000Y-83650000D02*
X162400000Y-83650000D01*
X175300000Y-80350000D02*
X173850000Y-80350000D01*
X171900000Y-82300000D02*
X165300000Y-82300000D01*
X173850000Y-80350000D02*
X171900000Y-82300000D01*
X165300000Y-82300000D02*
X163950000Y-83650000D01*
X155950000Y-83650000D02*
X154400000Y-83650000D01*
X163900000Y-82300000D02*
X157300000Y-82300000D01*
X157300000Y-82300000D02*
X155950000Y-83650000D01*
X165850000Y-80350000D02*
X163900000Y-82300000D01*
X167300000Y-80350000D02*
X165850000Y-80350000D01*
X152500000Y-82500000D02*
X153000000Y-82000000D01*
X152500000Y-86500000D02*
X152500000Y-82500000D01*
X153500000Y-93700000D02*
X153500000Y-92650000D01*
X156500000Y-82000000D02*
X158150000Y-80350000D01*
X158150000Y-80350000D02*
X159400000Y-80350000D01*
X153000000Y-82000000D02*
X156500000Y-82000000D01*
X153500000Y-92650000D02*
X154500000Y-91650000D01*
X159400000Y-88350000D02*
X159400000Y-88550000D01*
X159400000Y-88550000D02*
X162500000Y-91650000D01*
X167400000Y-88350000D02*
X167400000Y-88550000D01*
X167400000Y-88550000D02*
X170500000Y-91650000D01*
X175400000Y-88350000D02*
X175400000Y-88550000D01*
X175400000Y-88550000D02*
X178500000Y-91650000D01*
X183400000Y-88350000D02*
X183400000Y-88550000D01*
X183400000Y-88550000D02*
X186500000Y-91650000D01*
X191400000Y-88350000D02*
X191400000Y-86100000D01*
X186500000Y-70000000D02*
X193000000Y-70000000D01*
X191400000Y-86100000D02*
X191500000Y-86000000D01*
G04 #@! TA.AperFunction,Conductor*
G36*
X160620424Y-58516000D02*
G01*
X160696075Y-58536454D01*
X160727137Y-58560344D01*
X161400356Y-59233563D01*
X161439541Y-59301434D01*
X161444700Y-59340619D01*
X161444700Y-60145580D01*
X161447661Y-60171107D01*
X161447662Y-60171109D01*
X161493766Y-60275525D01*
X161574475Y-60356234D01*
X161678891Y-60402338D01*
X161704421Y-60405300D01*
X163295578Y-60405299D01*
X163295580Y-60405299D01*
X163308343Y-60403818D01*
X163321109Y-60402338D01*
X163425525Y-60356234D01*
X163506234Y-60275525D01*
X163552338Y-60171109D01*
X163555300Y-60145579D01*
X163555299Y-59154422D01*
X163552338Y-59128891D01*
X163506234Y-59024475D01*
X163425525Y-58943766D01*
X163321110Y-58897662D01*
X163321104Y-58897661D01*
X163295581Y-58894700D01*
X163295579Y-58894700D01*
X162490619Y-58894700D01*
X162414919Y-58874416D01*
X162383563Y-58850356D01*
X162311705Y-58778498D01*
X162272520Y-58710627D01*
X162272520Y-58632257D01*
X162311705Y-58564386D01*
X162379576Y-58525201D01*
X162419094Y-58520042D01*
X168638442Y-58534018D01*
X168714093Y-58554472D01*
X168745155Y-58578362D01*
X169400356Y-59233563D01*
X169439541Y-59301434D01*
X169444700Y-59340619D01*
X169444700Y-60145580D01*
X169447661Y-60171107D01*
X169447662Y-60171109D01*
X169493766Y-60275525D01*
X169574475Y-60356234D01*
X169678891Y-60402338D01*
X169704421Y-60405300D01*
X171295578Y-60405299D01*
X171295580Y-60405299D01*
X171308343Y-60403818D01*
X171321109Y-60402338D01*
X171425525Y-60356234D01*
X171506234Y-60275525D01*
X171552338Y-60171109D01*
X171555300Y-60145579D01*
X171555299Y-59154422D01*
X171552338Y-59128891D01*
X171506234Y-59024475D01*
X171425525Y-58943766D01*
X171321110Y-58897662D01*
X171321104Y-58897661D01*
X171295581Y-58894700D01*
X171295579Y-58894700D01*
X170490619Y-58894700D01*
X170414919Y-58874416D01*
X170383563Y-58850356D01*
X170329723Y-58796516D01*
X170290538Y-58728645D01*
X170290538Y-58650275D01*
X170329723Y-58582404D01*
X170397594Y-58543219D01*
X170437111Y-58538060D01*
X176656460Y-58552036D01*
X176732111Y-58572490D01*
X176763173Y-58596380D01*
X177400356Y-59233563D01*
X177439541Y-59301434D01*
X177444700Y-59340619D01*
X177444700Y-60145580D01*
X177447661Y-60171107D01*
X177447662Y-60171109D01*
X177493766Y-60275525D01*
X177574475Y-60356234D01*
X177678891Y-60402338D01*
X177704421Y-60405300D01*
X179295578Y-60405299D01*
X179295580Y-60405299D01*
X179308343Y-60403818D01*
X179321109Y-60402338D01*
X179425525Y-60356234D01*
X179506234Y-60275525D01*
X179552338Y-60171109D01*
X179555300Y-60145579D01*
X179555299Y-59154422D01*
X179552338Y-59128891D01*
X179506234Y-59024475D01*
X179425525Y-58943766D01*
X179321110Y-58897662D01*
X179321104Y-58897661D01*
X179295581Y-58894700D01*
X179295579Y-58894700D01*
X178490619Y-58894700D01*
X178414919Y-58874416D01*
X178383563Y-58850356D01*
X178347741Y-58814534D01*
X178308556Y-58746663D01*
X178308556Y-58668293D01*
X178347741Y-58600422D01*
X178415612Y-58561237D01*
X178455129Y-58556078D01*
X184674478Y-58570055D01*
X184750129Y-58590508D01*
X184781191Y-58614398D01*
X185400356Y-59233563D01*
X185439541Y-59301434D01*
X185444700Y-59340619D01*
X185444700Y-60145580D01*
X185447661Y-60171107D01*
X185447662Y-60171109D01*
X185493766Y-60275525D01*
X185574475Y-60356234D01*
X185678891Y-60402338D01*
X185704421Y-60405300D01*
X187295578Y-60405299D01*
X187295580Y-60405299D01*
X187308343Y-60403818D01*
X187321109Y-60402338D01*
X187425525Y-60356234D01*
X187506234Y-60275525D01*
X187552338Y-60171109D01*
X187555300Y-60145579D01*
X187555299Y-59154422D01*
X187552338Y-59128891D01*
X187506234Y-59024475D01*
X187425525Y-58943766D01*
X187321110Y-58897662D01*
X187321104Y-58897661D01*
X187295581Y-58894700D01*
X187295579Y-58894700D01*
X186490619Y-58894700D01*
X186414919Y-58874416D01*
X186383563Y-58850356D01*
X186365759Y-58832552D01*
X186326574Y-58764681D01*
X186326574Y-58686311D01*
X186365759Y-58618440D01*
X186433630Y-58579255D01*
X186473147Y-58574096D01*
X192672094Y-58588027D01*
X192747744Y-58608480D01*
X192791863Y-58647259D01*
X192818292Y-58681702D01*
X192818293Y-58681703D01*
X192818295Y-58681705D01*
X192907214Y-58749935D01*
X192944738Y-58778728D01*
X193091984Y-58839720D01*
X193110366Y-58842140D01*
X193250000Y-58860523D01*
X193408015Y-58839720D01*
X193555262Y-58778728D01*
X193681705Y-58681705D01*
X193706145Y-58649853D01*
X193768315Y-58602147D01*
X193826594Y-58590621D01*
X197348443Y-58598535D01*
X197424094Y-58618989D01*
X197479386Y-58674530D01*
X197499500Y-58749935D01*
X197499500Y-94447134D01*
X197479216Y-94522834D01*
X197423800Y-94578250D01*
X197348100Y-94598534D01*
X197347760Y-94598534D01*
X196806359Y-94597317D01*
X196730704Y-94576863D01*
X196675413Y-94521322D01*
X196655299Y-94445919D01*
X196655299Y-93104422D01*
X196652338Y-93078891D01*
X196606234Y-92974475D01*
X196525525Y-92893766D01*
X196421110Y-92847662D01*
X196421104Y-92847661D01*
X196395581Y-92844700D01*
X194604419Y-92844700D01*
X194578892Y-92847661D01*
X194526683Y-92870714D01*
X194474475Y-92893766D01*
X194474474Y-92893767D01*
X194474473Y-92893767D01*
X194393766Y-92974474D01*
X194347662Y-93078889D01*
X194347661Y-93078895D01*
X194344700Y-93104418D01*
X194344700Y-94440044D01*
X194324416Y-94515744D01*
X194269000Y-94571160D01*
X194193300Y-94591444D01*
X194192960Y-94591444D01*
X153896243Y-94500890D01*
X153820589Y-94480436D01*
X153765297Y-94424895D01*
X153745183Y-94349150D01*
X153765637Y-94273496D01*
X153804417Y-94229376D01*
X153805260Y-94228728D01*
X153805262Y-94228728D01*
X153931705Y-94131705D01*
X154028728Y-94005262D01*
X154089720Y-93858015D01*
X154110523Y-93700000D01*
X154089720Y-93541985D01*
X154028728Y-93394739D01*
X154014384Y-93376045D01*
X153984395Y-93303639D01*
X153983100Y-93283881D01*
X153983100Y-92912817D01*
X154003384Y-92837117D01*
X154027441Y-92805764D01*
X154383562Y-92449642D01*
X154451433Y-92410458D01*
X154490618Y-92405299D01*
X155295580Y-92405299D01*
X155308343Y-92403818D01*
X155321109Y-92402338D01*
X155425525Y-92356234D01*
X155506234Y-92275525D01*
X155552338Y-92171109D01*
X155555300Y-92145579D01*
X155555299Y-91154422D01*
X155552338Y-91128891D01*
X155506234Y-91024475D01*
X155425525Y-90943766D01*
X155321110Y-90897662D01*
X155321104Y-90897661D01*
X155295581Y-90894700D01*
X153704418Y-90894700D01*
X153668842Y-90898827D01*
X153591309Y-90887399D01*
X153529878Y-90838736D01*
X153501008Y-90765877D01*
X153500000Y-90748435D01*
X153500000Y-90151400D01*
X153520284Y-90075700D01*
X153575700Y-90020284D01*
X153651400Y-90000000D01*
X160104081Y-90000000D01*
X160179781Y-90020284D01*
X160211137Y-90044344D01*
X161400356Y-91233563D01*
X161439541Y-91301434D01*
X161444700Y-91340619D01*
X161444700Y-92145580D01*
X161447661Y-92171107D01*
X161447662Y-92171109D01*
X161493766Y-92275525D01*
X161574475Y-92356234D01*
X161678891Y-92402338D01*
X161704421Y-92405300D01*
X163295578Y-92405299D01*
X163295580Y-92405299D01*
X163308343Y-92403818D01*
X163321109Y-92402338D01*
X163425525Y-92356234D01*
X163506234Y-92275525D01*
X163552338Y-92171109D01*
X163555300Y-92145579D01*
X163555299Y-91154422D01*
X163552338Y-91128891D01*
X163506234Y-91024475D01*
X163425525Y-90943766D01*
X163321110Y-90897662D01*
X163321104Y-90897661D01*
X163295581Y-90894700D01*
X163295579Y-90894700D01*
X162490619Y-90894700D01*
X162414919Y-90874416D01*
X162383563Y-90850356D01*
X161791663Y-90258456D01*
X161752478Y-90190585D01*
X161752478Y-90112215D01*
X161791663Y-90044344D01*
X161859534Y-90005159D01*
X161898719Y-90000000D01*
X168104081Y-90000000D01*
X168179781Y-90020284D01*
X168211137Y-90044344D01*
X169400356Y-91233563D01*
X169439541Y-91301434D01*
X169444700Y-91340619D01*
X169444700Y-92145580D01*
X169447661Y-92171107D01*
X169447662Y-92171109D01*
X169493766Y-92275525D01*
X169574475Y-92356234D01*
X169678891Y-92402338D01*
X169704421Y-92405300D01*
X171295578Y-92405299D01*
X171295580Y-92405299D01*
X171308343Y-92403818D01*
X171321109Y-92402338D01*
X171425525Y-92356234D01*
X171506234Y-92275525D01*
X171552338Y-92171109D01*
X171555300Y-92145579D01*
X171555299Y-91154422D01*
X171552338Y-91128891D01*
X171506234Y-91024475D01*
X171425525Y-90943766D01*
X171321110Y-90897662D01*
X171321104Y-90897661D01*
X171295581Y-90894700D01*
X171295579Y-90894700D01*
X170490619Y-90894700D01*
X170414919Y-90874416D01*
X170383563Y-90850356D01*
X169791663Y-90258456D01*
X169752478Y-90190585D01*
X169752478Y-90112215D01*
X169791663Y-90044344D01*
X169859534Y-90005159D01*
X169898719Y-90000000D01*
X176104081Y-90000000D01*
X176179781Y-90020284D01*
X176211137Y-90044344D01*
X177400356Y-91233563D01*
X177439541Y-91301434D01*
X177444700Y-91340619D01*
X177444700Y-92145580D01*
X177447661Y-92171107D01*
X177447662Y-92171109D01*
X177493766Y-92275525D01*
X177574475Y-92356234D01*
X177678891Y-92402338D01*
X177704421Y-92405300D01*
X179295578Y-92405299D01*
X179295580Y-92405299D01*
X179308343Y-92403818D01*
X179321109Y-92402338D01*
X179425525Y-92356234D01*
X179506234Y-92275525D01*
X179552338Y-92171109D01*
X179555300Y-92145579D01*
X179555299Y-91154422D01*
X179552338Y-91128891D01*
X179506234Y-91024475D01*
X179425525Y-90943766D01*
X179321110Y-90897662D01*
X179321104Y-90897661D01*
X179295581Y-90894700D01*
X179295579Y-90894700D01*
X178490619Y-90894700D01*
X178414919Y-90874416D01*
X178383563Y-90850356D01*
X177791663Y-90258456D01*
X177752478Y-90190585D01*
X177752478Y-90112215D01*
X177791663Y-90044344D01*
X177859534Y-90005159D01*
X177898719Y-90000000D01*
X184104081Y-90000000D01*
X184179781Y-90020284D01*
X184211137Y-90044344D01*
X185400356Y-91233563D01*
X185439541Y-91301434D01*
X185444700Y-91340619D01*
X185444700Y-92145580D01*
X185447661Y-92171107D01*
X185447662Y-92171109D01*
X185493766Y-92275525D01*
X185574475Y-92356234D01*
X185678891Y-92402338D01*
X185704421Y-92405300D01*
X187295578Y-92405299D01*
X187295580Y-92405299D01*
X187308343Y-92403818D01*
X187321109Y-92402338D01*
X187425525Y-92356234D01*
X187506234Y-92275525D01*
X187552338Y-92171109D01*
X187555300Y-92145579D01*
X187555299Y-91154422D01*
X187552338Y-91128891D01*
X187506234Y-91024475D01*
X187425525Y-90943766D01*
X187321110Y-90897662D01*
X187321104Y-90897661D01*
X187295581Y-90894700D01*
X187295579Y-90894700D01*
X186490619Y-90894700D01*
X186414919Y-90874416D01*
X186383563Y-90850356D01*
X185791663Y-90258456D01*
X185752478Y-90190585D01*
X185752478Y-90112215D01*
X185791663Y-90044344D01*
X185859534Y-90005159D01*
X185898719Y-90000000D01*
X193500000Y-90000000D01*
X193500000Y-85800000D01*
X192173491Y-85800000D01*
X192097791Y-85779716D01*
X192042375Y-85724300D01*
X192033616Y-85706539D01*
X192028728Y-85694739D01*
X191931706Y-85568296D01*
X191931703Y-85568294D01*
X191805262Y-85471272D01*
X191805261Y-85471271D01*
X191658015Y-85410279D01*
X191500000Y-85389477D01*
X191341985Y-85410280D01*
X191341983Y-85410280D01*
X191341981Y-85410281D01*
X191341980Y-85410281D01*
X191194738Y-85471272D01*
X191194736Y-85471272D01*
X191068295Y-85568294D01*
X191068294Y-85568295D01*
X190971271Y-85694739D01*
X190966384Y-85706539D01*
X190918675Y-85768714D01*
X190846270Y-85798705D01*
X190826509Y-85800000D01*
X153651400Y-85800000D01*
X153575700Y-85779716D01*
X153520284Y-85724300D01*
X153500000Y-85648600D01*
X153500000Y-84551564D01*
X153520284Y-84475864D01*
X153575700Y-84420448D01*
X153651400Y-84400164D01*
X153668848Y-84401173D01*
X153678890Y-84402337D01*
X153678891Y-84402338D01*
X153704421Y-84405300D01*
X155295578Y-84405299D01*
X155295580Y-84405299D01*
X155308343Y-84403818D01*
X155321109Y-84402338D01*
X155425525Y-84356234D01*
X155506234Y-84275525D01*
X155517471Y-84250073D01*
X155529274Y-84223346D01*
X155578406Y-84162289D01*
X155651484Y-84133979D01*
X155667773Y-84133100D01*
X156013602Y-84133100D01*
X156044318Y-84124869D01*
X156136470Y-84100178D01*
X156246631Y-84036576D01*
X157455763Y-82827444D01*
X157523634Y-82788259D01*
X157562819Y-82783100D01*
X161371885Y-82783100D01*
X161447585Y-82803384D01*
X161503001Y-82858800D01*
X161523285Y-82934500D01*
X161503001Y-83010200D01*
X161496790Y-83020061D01*
X161493767Y-83024473D01*
X161447662Y-83128889D01*
X161447661Y-83128895D01*
X161444700Y-83154418D01*
X161444700Y-84145580D01*
X161447661Y-84171107D01*
X161447662Y-84171109D01*
X161493766Y-84275525D01*
X161574475Y-84356234D01*
X161678891Y-84402338D01*
X161704421Y-84405300D01*
X163295578Y-84405299D01*
X163295580Y-84405299D01*
X163308343Y-84403818D01*
X163321109Y-84402338D01*
X163425525Y-84356234D01*
X163506234Y-84275525D01*
X163517471Y-84250073D01*
X163529274Y-84223346D01*
X163578406Y-84162289D01*
X163651484Y-84133979D01*
X163667773Y-84133100D01*
X164013602Y-84133100D01*
X164044318Y-84124869D01*
X164136470Y-84100178D01*
X164246631Y-84036576D01*
X165455763Y-82827444D01*
X165523634Y-82788259D01*
X165562819Y-82783100D01*
X169371885Y-82783100D01*
X169447585Y-82803384D01*
X169503001Y-82858800D01*
X169523285Y-82934500D01*
X169503001Y-83010200D01*
X169496790Y-83020061D01*
X169493767Y-83024473D01*
X169447662Y-83128889D01*
X169447661Y-83128895D01*
X169444700Y-83154418D01*
X169444700Y-84145580D01*
X169447661Y-84171107D01*
X169447662Y-84171109D01*
X169493766Y-84275525D01*
X169574475Y-84356234D01*
X169678891Y-84402338D01*
X169704421Y-84405300D01*
X171295578Y-84405299D01*
X171295580Y-84405299D01*
X171308343Y-84403818D01*
X171321109Y-84402338D01*
X171425525Y-84356234D01*
X171506234Y-84275525D01*
X171517471Y-84250073D01*
X171529274Y-84223346D01*
X171578406Y-84162289D01*
X171651484Y-84133979D01*
X171667773Y-84133100D01*
X172113602Y-84133100D01*
X172144318Y-84124869D01*
X172236470Y-84100178D01*
X172346631Y-84036576D01*
X173555763Y-82827444D01*
X173623634Y-82788259D01*
X173662819Y-82783100D01*
X177371885Y-82783100D01*
X177447585Y-82803384D01*
X177503001Y-82858800D01*
X177523285Y-82934500D01*
X177503001Y-83010200D01*
X177496790Y-83020061D01*
X177493767Y-83024473D01*
X177447662Y-83128889D01*
X177447661Y-83128895D01*
X177444700Y-83154418D01*
X177444700Y-84145580D01*
X177447661Y-84171107D01*
X177447662Y-84171109D01*
X177493766Y-84275525D01*
X177574475Y-84356234D01*
X177678891Y-84402338D01*
X177704421Y-84405300D01*
X179295578Y-84405299D01*
X179295580Y-84405299D01*
X179308343Y-84403818D01*
X179321109Y-84402338D01*
X179425525Y-84356234D01*
X179506234Y-84275525D01*
X179517471Y-84250073D01*
X179529274Y-84223346D01*
X179578406Y-84162289D01*
X179651484Y-84133979D01*
X179667773Y-84133100D01*
X180113602Y-84133100D01*
X180144318Y-84124869D01*
X180236470Y-84100178D01*
X180346631Y-84036576D01*
X181555763Y-82827444D01*
X181623634Y-82788259D01*
X181662819Y-82783100D01*
X185371885Y-82783100D01*
X185447585Y-82803384D01*
X185503001Y-82858800D01*
X185523285Y-82934500D01*
X185503001Y-83010200D01*
X185496790Y-83020061D01*
X185493767Y-83024473D01*
X185447662Y-83128889D01*
X185447661Y-83128895D01*
X185444700Y-83154418D01*
X185444700Y-84145580D01*
X185447661Y-84171107D01*
X185447662Y-84171109D01*
X185493766Y-84275525D01*
X185574475Y-84356234D01*
X185678891Y-84402338D01*
X185704421Y-84405300D01*
X187295578Y-84405299D01*
X187295580Y-84405299D01*
X187308343Y-84403818D01*
X187321109Y-84402338D01*
X187425525Y-84356234D01*
X187506234Y-84275525D01*
X187517471Y-84250073D01*
X187529274Y-84223346D01*
X187578406Y-84162289D01*
X187651484Y-84133979D01*
X187667773Y-84133100D01*
X187913602Y-84133100D01*
X187944318Y-84124869D01*
X188036470Y-84100178D01*
X188146631Y-84036576D01*
X189155762Y-83027443D01*
X189223633Y-82988259D01*
X189262818Y-82983100D01*
X193563602Y-82983100D01*
X193594318Y-82974869D01*
X193686470Y-82950178D01*
X193796631Y-82886576D01*
X194047363Y-82635842D01*
X194115231Y-82596659D01*
X194134658Y-82592795D01*
X194158015Y-82589720D01*
X194191862Y-82575700D01*
X194305262Y-82528728D01*
X194431705Y-82431705D01*
X194528728Y-82305262D01*
X194589720Y-82158015D01*
X194610523Y-82000000D01*
X194589720Y-81841985D01*
X194528728Y-81694739D01*
X194528727Y-81694737D01*
X194528727Y-81694736D01*
X194431706Y-81568296D01*
X194305261Y-81471271D01*
X194158015Y-81410279D01*
X194000000Y-81389477D01*
X193841985Y-81410280D01*
X193841983Y-81410280D01*
X193841981Y-81410281D01*
X193841980Y-81410281D01*
X193709339Y-81465224D01*
X193631639Y-81475454D01*
X193559234Y-81445463D01*
X193511525Y-81383288D01*
X193500000Y-81325349D01*
X193500000Y-77500000D01*
X153651400Y-77500000D01*
X153575700Y-77479716D01*
X153520284Y-77424300D01*
X153500000Y-77348600D01*
X153500000Y-76551564D01*
X153520284Y-76475864D01*
X153575700Y-76420448D01*
X153651400Y-76400164D01*
X153668848Y-76401173D01*
X153678890Y-76402337D01*
X153678891Y-76402338D01*
X153704421Y-76405300D01*
X155295578Y-76405299D01*
X155295580Y-76405299D01*
X155308343Y-76403818D01*
X155321109Y-76402338D01*
X155425525Y-76356234D01*
X155506234Y-76275525D01*
X155552338Y-76171109D01*
X155555300Y-76145579D01*
X155555299Y-75154422D01*
X155552338Y-75128891D01*
X155506234Y-75024475D01*
X155425525Y-74943766D01*
X155389107Y-74927686D01*
X155321110Y-74897662D01*
X155321104Y-74897661D01*
X155295581Y-74894700D01*
X153704418Y-74894700D01*
X153668842Y-74898827D01*
X153591309Y-74887399D01*
X153529878Y-74838736D01*
X153501008Y-74765877D01*
X153500000Y-74748435D01*
X153500000Y-74651400D01*
X153520284Y-74575700D01*
X153575700Y-74520284D01*
X153651400Y-74500000D01*
X160604081Y-74500000D01*
X160679781Y-74520284D01*
X160711137Y-74544344D01*
X161400356Y-75233563D01*
X161439541Y-75301434D01*
X161444700Y-75340619D01*
X161444700Y-76145580D01*
X161447661Y-76171107D01*
X161447662Y-76171109D01*
X161493766Y-76275525D01*
X161574475Y-76356234D01*
X161678891Y-76402338D01*
X161704421Y-76405300D01*
X163295578Y-76405299D01*
X163295580Y-76405299D01*
X163308343Y-76403818D01*
X163321109Y-76402338D01*
X163425525Y-76356234D01*
X163506234Y-76275525D01*
X163552338Y-76171109D01*
X163555300Y-76145579D01*
X163555299Y-75154422D01*
X163552338Y-75128891D01*
X163506234Y-75024475D01*
X163425525Y-74943766D01*
X163389107Y-74927686D01*
X163321110Y-74897662D01*
X163321104Y-74897661D01*
X163295581Y-74894700D01*
X163295579Y-74894700D01*
X162490619Y-74894700D01*
X162414919Y-74874416D01*
X162383563Y-74850356D01*
X162291663Y-74758456D01*
X162252478Y-74690585D01*
X162252478Y-74612215D01*
X162291663Y-74544344D01*
X162359534Y-74505159D01*
X162398719Y-74500000D01*
X168604081Y-74500000D01*
X168679781Y-74520284D01*
X168711137Y-74544344D01*
X169400356Y-75233563D01*
X169439541Y-75301434D01*
X169444700Y-75340619D01*
X169444700Y-76145580D01*
X169447661Y-76171107D01*
X169447662Y-76171109D01*
X169493766Y-76275525D01*
X169574475Y-76356234D01*
X169678891Y-76402338D01*
X169704421Y-76405300D01*
X171295578Y-76405299D01*
X171295580Y-76405299D01*
X171308343Y-76403818D01*
X171321109Y-76402338D01*
X171425525Y-76356234D01*
X171506234Y-76275525D01*
X171552338Y-76171109D01*
X171555300Y-76145579D01*
X171555299Y-75154422D01*
X171552338Y-75128891D01*
X171506234Y-75024475D01*
X171425525Y-74943766D01*
X171389107Y-74927686D01*
X171321110Y-74897662D01*
X171321104Y-74897661D01*
X171295581Y-74894700D01*
X171295579Y-74894700D01*
X170490619Y-74894700D01*
X170414919Y-74874416D01*
X170383563Y-74850356D01*
X170291663Y-74758456D01*
X170252478Y-74690585D01*
X170252478Y-74612215D01*
X170291663Y-74544344D01*
X170359534Y-74505159D01*
X170398719Y-74500000D01*
X176604081Y-74500000D01*
X176679781Y-74520284D01*
X176711137Y-74544344D01*
X177400356Y-75233563D01*
X177439541Y-75301434D01*
X177444700Y-75340619D01*
X177444700Y-76145580D01*
X177447661Y-76171107D01*
X177447662Y-76171109D01*
X177493766Y-76275525D01*
X177574475Y-76356234D01*
X177678891Y-76402338D01*
X177704421Y-76405300D01*
X179295578Y-76405299D01*
X179295580Y-76405299D01*
X179308343Y-76403818D01*
X179321109Y-76402338D01*
X179425525Y-76356234D01*
X179506234Y-76275525D01*
X179552338Y-76171109D01*
X179555300Y-76145579D01*
X179555299Y-75154422D01*
X179552338Y-75128891D01*
X179506234Y-75024475D01*
X179425525Y-74943766D01*
X179389107Y-74927686D01*
X179321110Y-74897662D01*
X179321104Y-74897661D01*
X179295581Y-74894700D01*
X179295579Y-74894700D01*
X178490619Y-74894700D01*
X178414919Y-74874416D01*
X178383563Y-74850356D01*
X178291663Y-74758456D01*
X178252478Y-74690585D01*
X178252478Y-74612215D01*
X178291663Y-74544344D01*
X178359534Y-74505159D01*
X178398719Y-74500000D01*
X184604081Y-74500000D01*
X184679781Y-74520284D01*
X184711137Y-74544344D01*
X185400356Y-75233563D01*
X185439541Y-75301434D01*
X185444700Y-75340619D01*
X185444700Y-76145580D01*
X185447661Y-76171107D01*
X185447662Y-76171109D01*
X185493766Y-76275525D01*
X185574475Y-76356234D01*
X185678891Y-76402338D01*
X185704421Y-76405300D01*
X187295578Y-76405299D01*
X187295580Y-76405299D01*
X187308343Y-76403818D01*
X187321109Y-76402338D01*
X187425525Y-76356234D01*
X187506234Y-76275525D01*
X187552338Y-76171109D01*
X187555300Y-76145579D01*
X187555299Y-75154422D01*
X187552338Y-75128891D01*
X187506234Y-75024475D01*
X187425525Y-74943766D01*
X187389107Y-74927686D01*
X187321110Y-74897662D01*
X187321104Y-74897661D01*
X187295581Y-74894700D01*
X187295579Y-74894700D01*
X186490619Y-74894700D01*
X186414919Y-74874416D01*
X186383563Y-74850356D01*
X186291663Y-74758456D01*
X186252478Y-74690585D01*
X186252478Y-74612215D01*
X186291663Y-74544344D01*
X186359534Y-74505159D01*
X186398719Y-74500000D01*
X193518732Y-74500000D01*
X193542276Y-74486406D01*
X193620646Y-74486404D01*
X193673633Y-74512534D01*
X193694734Y-74528726D01*
X193694736Y-74528726D01*
X193694738Y-74528728D01*
X193778928Y-74563601D01*
X193841984Y-74589720D01*
X193860366Y-74592140D01*
X194000000Y-74610523D01*
X194158015Y-74589720D01*
X194305262Y-74528728D01*
X194431705Y-74431705D01*
X194528728Y-74305262D01*
X194589720Y-74158015D01*
X194610523Y-74000000D01*
X194589720Y-73841985D01*
X194528728Y-73694739D01*
X194528727Y-73694737D01*
X194528727Y-73694736D01*
X194431706Y-73568296D01*
X194305261Y-73471271D01*
X194158016Y-73410280D01*
X194134650Y-73407203D01*
X194062247Y-73377209D01*
X194047362Y-73364155D01*
X193544344Y-72861137D01*
X193505159Y-72793266D01*
X193500000Y-72754081D01*
X193500000Y-70394095D01*
X193520284Y-70318395D01*
X193526623Y-70308907D01*
X193528723Y-70305267D01*
X193528728Y-70305262D01*
X193589720Y-70158015D01*
X193610523Y-70000000D01*
X193589720Y-69841985D01*
X193528728Y-69694739D01*
X193528728Y-69694738D01*
X193523767Y-69686146D01*
X193525846Y-69684945D01*
X193501293Y-69625654D01*
X193500000Y-69605906D01*
X193500000Y-69500000D01*
X193394095Y-69500000D01*
X193318395Y-69479716D01*
X193308907Y-69473376D01*
X193305262Y-69471272D01*
X193158015Y-69410279D01*
X193000000Y-69389477D01*
X192841985Y-69410280D01*
X192841983Y-69410280D01*
X192841981Y-69410281D01*
X192841980Y-69410281D01*
X192694743Y-69471269D01*
X192686151Y-69476231D01*
X192684949Y-69474149D01*
X192625666Y-69498705D01*
X192605907Y-69500000D01*
X186894095Y-69500000D01*
X186818395Y-69479716D01*
X186808907Y-69473376D01*
X186805262Y-69471272D01*
X186658015Y-69410279D01*
X186500000Y-69389477D01*
X186341985Y-69410280D01*
X186341983Y-69410280D01*
X186341981Y-69410281D01*
X186341980Y-69410281D01*
X186194743Y-69471269D01*
X186186151Y-69476231D01*
X186184949Y-69474149D01*
X186125666Y-69498705D01*
X186105907Y-69500000D01*
X153651400Y-69500000D01*
X153575700Y-69479716D01*
X153520284Y-69424300D01*
X153500000Y-69348600D01*
X153500000Y-68551564D01*
X153520284Y-68475864D01*
X153575700Y-68420448D01*
X153651400Y-68400164D01*
X153668848Y-68401173D01*
X153678890Y-68402337D01*
X153678891Y-68402338D01*
X153704421Y-68405300D01*
X155295578Y-68405299D01*
X155295580Y-68405299D01*
X155308343Y-68403818D01*
X155321109Y-68402338D01*
X155425525Y-68356234D01*
X155506234Y-68275525D01*
X155517471Y-68250073D01*
X155529274Y-68223346D01*
X155578406Y-68162289D01*
X155651484Y-68133979D01*
X155667773Y-68133100D01*
X156213602Y-68133100D01*
X156244318Y-68124869D01*
X156336470Y-68100178D01*
X156446631Y-68036576D01*
X157655763Y-66827444D01*
X157723634Y-66788259D01*
X157762819Y-66783100D01*
X161371885Y-66783100D01*
X161447585Y-66803384D01*
X161503001Y-66858800D01*
X161523285Y-66934500D01*
X161503001Y-67010200D01*
X161496790Y-67020061D01*
X161493767Y-67024473D01*
X161447662Y-67128889D01*
X161447661Y-67128895D01*
X161444700Y-67154418D01*
X161444700Y-68145580D01*
X161447661Y-68171107D01*
X161447662Y-68171109D01*
X161493766Y-68275525D01*
X161574475Y-68356234D01*
X161678891Y-68402338D01*
X161704421Y-68405300D01*
X163295578Y-68405299D01*
X163295580Y-68405299D01*
X163308343Y-68403818D01*
X163321109Y-68402338D01*
X163425525Y-68356234D01*
X163506234Y-68275525D01*
X163517471Y-68250073D01*
X163529274Y-68223346D01*
X163578406Y-68162289D01*
X163651484Y-68133979D01*
X163667773Y-68133100D01*
X164013602Y-68133100D01*
X164044318Y-68124869D01*
X164136470Y-68100178D01*
X164246631Y-68036576D01*
X165455763Y-66827444D01*
X165523634Y-66788259D01*
X165562819Y-66783100D01*
X169371885Y-66783100D01*
X169447585Y-66803384D01*
X169503001Y-66858800D01*
X169523285Y-66934500D01*
X169503001Y-67010200D01*
X169496790Y-67020061D01*
X169493767Y-67024473D01*
X169447662Y-67128889D01*
X169447661Y-67128895D01*
X169444700Y-67154418D01*
X169444700Y-68145580D01*
X169447661Y-68171107D01*
X169447662Y-68171109D01*
X169493766Y-68275525D01*
X169574475Y-68356234D01*
X169678891Y-68402338D01*
X169704421Y-68405300D01*
X171295578Y-68405299D01*
X171295580Y-68405299D01*
X171308343Y-68403818D01*
X171321109Y-68402338D01*
X171425525Y-68356234D01*
X171506234Y-68275525D01*
X171517471Y-68250073D01*
X171529274Y-68223346D01*
X171578406Y-68162289D01*
X171651484Y-68133979D01*
X171667773Y-68133100D01*
X172013602Y-68133100D01*
X172044318Y-68124869D01*
X172136470Y-68100178D01*
X172246631Y-68036576D01*
X173455763Y-66827444D01*
X173523634Y-66788259D01*
X173562819Y-66783100D01*
X177371885Y-66783100D01*
X177447585Y-66803384D01*
X177503001Y-66858800D01*
X177523285Y-66934500D01*
X177503001Y-67010200D01*
X177496790Y-67020061D01*
X177493767Y-67024473D01*
X177447662Y-67128889D01*
X177447661Y-67128895D01*
X177444700Y-67154418D01*
X177444700Y-68145580D01*
X177447661Y-68171107D01*
X177447662Y-68171109D01*
X177493766Y-68275525D01*
X177574475Y-68356234D01*
X177678891Y-68402338D01*
X177704421Y-68405300D01*
X179295578Y-68405299D01*
X179295580Y-68405299D01*
X179308343Y-68403818D01*
X179321109Y-68402338D01*
X179425525Y-68356234D01*
X179506234Y-68275525D01*
X179517471Y-68250073D01*
X179529274Y-68223346D01*
X179578406Y-68162289D01*
X179651484Y-68133979D01*
X179667773Y-68133100D01*
X180013602Y-68133100D01*
X180044318Y-68124869D01*
X180136470Y-68100178D01*
X180246631Y-68036576D01*
X181455763Y-66827444D01*
X181523634Y-66788259D01*
X181562819Y-66783100D01*
X185371885Y-66783100D01*
X185447585Y-66803384D01*
X185503001Y-66858800D01*
X185523285Y-66934500D01*
X185503001Y-67010200D01*
X185496790Y-67020061D01*
X185493767Y-67024473D01*
X185447662Y-67128889D01*
X185447661Y-67128895D01*
X185444700Y-67154418D01*
X185444700Y-68145580D01*
X185447661Y-68171107D01*
X185447662Y-68171109D01*
X185493766Y-68275525D01*
X185574475Y-68356234D01*
X185678891Y-68402338D01*
X185704421Y-68405300D01*
X187295578Y-68405299D01*
X187295580Y-68405299D01*
X187308343Y-68403818D01*
X187321109Y-68402338D01*
X187425525Y-68356234D01*
X187506234Y-68275525D01*
X187507194Y-68273349D01*
X187510754Y-68268925D01*
X187514161Y-68263952D01*
X187514544Y-68264214D01*
X187556324Y-68212292D01*
X187629402Y-68183979D01*
X187645695Y-68183100D01*
X188263602Y-68183100D01*
X188294318Y-68174869D01*
X188386470Y-68150178D01*
X188496631Y-68086576D01*
X189946163Y-66637044D01*
X190014034Y-66597859D01*
X190053219Y-66592700D01*
X192454002Y-66592700D01*
X192484718Y-66584469D01*
X192576870Y-66559778D01*
X192645275Y-66520283D01*
X192720974Y-66500000D01*
X193500000Y-66500000D01*
X193500000Y-65895794D01*
X193520284Y-65820094D01*
X193559234Y-65775680D01*
X193681705Y-65681705D01*
X193778728Y-65555262D01*
X193839720Y-65408015D01*
X193860523Y-65250000D01*
X193839720Y-65091985D01*
X193778728Y-64944739D01*
X193778727Y-64944737D01*
X193778727Y-64944736D01*
X193681705Y-64818295D01*
X193681704Y-64818294D01*
X193559234Y-64724320D01*
X193511525Y-64662145D01*
X193500000Y-64604206D01*
X193500000Y-61500000D01*
X155134500Y-61500000D01*
X155058800Y-61479716D01*
X155003384Y-61424300D01*
X154983100Y-61348600D01*
X154983100Y-60556699D01*
X155003384Y-60480999D01*
X155058800Y-60425583D01*
X155134500Y-60405299D01*
X155295580Y-60405299D01*
X155308343Y-60403818D01*
X155321109Y-60402338D01*
X155425525Y-60356234D01*
X155506234Y-60275525D01*
X155552338Y-60171109D01*
X155555300Y-60145579D01*
X155555299Y-59154422D01*
X155552338Y-59128891D01*
X155506234Y-59024475D01*
X155425525Y-58943766D01*
X155321110Y-58897662D01*
X155321104Y-58897661D01*
X155295581Y-58894700D01*
X153704418Y-58894700D01*
X153668842Y-58898827D01*
X153591309Y-58887399D01*
X153529878Y-58838736D01*
X153501008Y-58765877D01*
X153500000Y-58748435D01*
X153500000Y-58651740D01*
X153520284Y-58576040D01*
X153575700Y-58520624D01*
X153651399Y-58500340D01*
X160620424Y-58516000D01*
G37*
G04 #@! TD.AperFunction*
G04 #@! TA.AperFunction,Conductor*
G36*
X152401049Y-52520284D02*
G01*
X152456465Y-52575700D01*
X152476749Y-52651400D01*
X152465224Y-52709339D01*
X152410281Y-52841980D01*
X152410281Y-52841981D01*
X152389477Y-53000000D01*
X152410279Y-53158015D01*
X152471271Y-53305261D01*
X152471272Y-53305262D01*
X152568295Y-53431705D01*
X152661709Y-53503384D01*
X152694738Y-53528728D01*
X152841984Y-53589720D01*
X152860366Y-53592140D01*
X153000000Y-53610523D01*
X153158015Y-53589720D01*
X153305262Y-53528728D01*
X153312294Y-53523331D01*
X153323954Y-53514386D01*
X153396359Y-53484395D01*
X153416120Y-53483100D01*
X153555800Y-53483100D01*
X153631500Y-53503384D01*
X153686916Y-53558800D01*
X153707200Y-53634500D01*
X153707200Y-53668479D01*
X153717915Y-53757710D01*
X153773915Y-53899717D01*
X153826372Y-53968890D01*
X153866152Y-54021348D01*
X153935325Y-54073804D01*
X153987782Y-54113584D01*
X154035118Y-54132250D01*
X154129789Y-54169584D01*
X154129788Y-54169584D01*
X154219020Y-54180300D01*
X154219024Y-54180300D01*
X154930980Y-54180300D01*
X155002364Y-54171727D01*
X155020211Y-54169584D01*
X155162217Y-54113584D01*
X155283848Y-54021348D01*
X155376084Y-53899717D01*
X155432084Y-53757711D01*
X155442800Y-53668476D01*
X155442800Y-52651400D01*
X155463084Y-52575700D01*
X155518500Y-52520284D01*
X155594200Y-52500000D01*
X156480800Y-52500000D01*
X156556500Y-52520284D01*
X156611916Y-52575700D01*
X156632200Y-52651400D01*
X156632200Y-53668479D01*
X156642915Y-53757710D01*
X156698915Y-53899717D01*
X156751372Y-53968890D01*
X156791152Y-54021348D01*
X156860325Y-54073804D01*
X156912782Y-54113584D01*
X156960118Y-54132250D01*
X157054789Y-54169584D01*
X157054788Y-54169584D01*
X157144020Y-54180300D01*
X157144024Y-54180300D01*
X157855980Y-54180300D01*
X157927364Y-54171727D01*
X157945211Y-54169584D01*
X158087217Y-54113584D01*
X158208848Y-54021348D01*
X158301084Y-53899717D01*
X158357084Y-53757711D01*
X158367800Y-53668476D01*
X158367800Y-53384500D01*
X158388084Y-53308800D01*
X158443500Y-53253384D01*
X158519200Y-53233100D01*
X158833880Y-53233100D01*
X158909580Y-53253384D01*
X158926046Y-53264386D01*
X158944735Y-53278726D01*
X158944738Y-53278728D01*
X159017338Y-53308800D01*
X159091984Y-53339720D01*
X159110366Y-53342140D01*
X159250000Y-53360523D01*
X159408015Y-53339720D01*
X159555262Y-53278728D01*
X159681705Y-53181705D01*
X159778728Y-53055262D01*
X159839720Y-52908015D01*
X159860523Y-52750000D01*
X159850143Y-52671158D01*
X159860372Y-52593462D01*
X159908081Y-52531287D01*
X159980486Y-52501295D01*
X160000248Y-52500000D01*
X171295431Y-52500000D01*
X171371131Y-52520284D01*
X171426547Y-52575700D01*
X171458064Y-52630289D01*
X171605735Y-52822738D01*
X171777262Y-52994265D01*
X171969711Y-53141936D01*
X172179788Y-53263224D01*
X172179793Y-53263226D01*
X172179799Y-53263229D01*
X172281277Y-53305262D01*
X172403900Y-53356054D01*
X172638211Y-53418838D01*
X172847049Y-53446331D01*
X172878711Y-53450500D01*
X172878712Y-53450500D01*
X173121289Y-53450500D01*
X173149267Y-53446816D01*
X173361789Y-53418838D01*
X173596100Y-53356054D01*
X173820212Y-53263224D01*
X174030289Y-53141936D01*
X174222738Y-52994265D01*
X174394265Y-52822738D01*
X174541936Y-52630289D01*
X174573453Y-52575700D01*
X174628869Y-52520284D01*
X174704569Y-52500000D01*
X197348100Y-52500000D01*
X197423800Y-52520284D01*
X197479216Y-52575700D01*
X197499500Y-52651400D01*
X197499500Y-55348600D01*
X197479216Y-55424300D01*
X197423800Y-55479716D01*
X197348100Y-55500000D01*
X196778445Y-55500000D01*
X196702745Y-55479716D01*
X196689454Y-55471085D01*
X196631714Y-55429134D01*
X196631712Y-55429133D01*
X196462685Y-55343009D01*
X196462668Y-55343002D01*
X196282244Y-55284379D01*
X196094864Y-55254700D01*
X196094859Y-55254700D01*
X194905141Y-55254700D01*
X194905135Y-55254700D01*
X194717755Y-55284379D01*
X194537331Y-55343002D01*
X194537314Y-55343009D01*
X194368291Y-55429131D01*
X194214800Y-55540648D01*
X194080648Y-55674800D01*
X193969131Y-55828291D01*
X193883009Y-55997314D01*
X193883002Y-55997331D01*
X193824379Y-56177755D01*
X193794700Y-56365135D01*
X193794700Y-56554864D01*
X193824379Y-56742244D01*
X193883002Y-56922668D01*
X193883009Y-56922685D01*
X193969131Y-57091708D01*
X193969135Y-57091715D01*
X194080649Y-57245200D01*
X194214800Y-57379351D01*
X194368285Y-57490865D01*
X194402702Y-57508401D01*
X194460943Y-57560841D01*
X194485161Y-57635375D01*
X194468868Y-57712033D01*
X194416428Y-57770274D01*
X194341894Y-57794492D01*
X194333970Y-57794700D01*
X194054419Y-57794700D01*
X194028892Y-57797661D01*
X193982159Y-57818296D01*
X193924475Y-57843766D01*
X193924474Y-57843767D01*
X193924471Y-57843769D01*
X193920238Y-57848002D01*
X193852366Y-57887185D01*
X193773996Y-57887182D01*
X193706126Y-57847994D01*
X193693073Y-57833110D01*
X193691158Y-57830615D01*
X193681705Y-57818295D01*
X193555262Y-57721272D01*
X193555261Y-57721271D01*
X193411035Y-57661530D01*
X193361918Y-57628711D01*
X192499643Y-56766436D01*
X192460458Y-56698565D01*
X192455299Y-56659380D01*
X192455299Y-55854419D01*
X192452338Y-55828892D01*
X192452070Y-55828285D01*
X192406234Y-55724475D01*
X192325525Y-55643766D01*
X192221110Y-55597662D01*
X192221104Y-55597661D01*
X192195581Y-55594700D01*
X190604419Y-55594700D01*
X190578892Y-55597661D01*
X190526683Y-55620714D01*
X190474475Y-55643766D01*
X190474474Y-55643767D01*
X190474473Y-55643767D01*
X190393766Y-55724474D01*
X190347662Y-55828889D01*
X190347661Y-55828895D01*
X190344700Y-55854418D01*
X190344700Y-56845580D01*
X190347661Y-56871107D01*
X190347662Y-56871109D01*
X190393766Y-56975525D01*
X190474475Y-57056234D01*
X190578891Y-57102338D01*
X190604421Y-57105300D01*
X191409380Y-57105299D01*
X191485080Y-57125583D01*
X191516436Y-57149643D01*
X192108337Y-57741544D01*
X192147522Y-57809415D01*
X192147522Y-57887785D01*
X192108337Y-57955656D01*
X192040466Y-57994841D01*
X192001281Y-58000000D01*
X185595919Y-58000000D01*
X185520219Y-57979716D01*
X185488863Y-57955656D01*
X184499119Y-56965912D01*
X184459934Y-56898041D01*
X184456421Y-56850022D01*
X184455048Y-56849943D01*
X184455299Y-56845585D01*
X184455300Y-56845579D01*
X184455299Y-55854422D01*
X184452338Y-55828891D01*
X184406234Y-55724475D01*
X184325525Y-55643766D01*
X184221110Y-55597662D01*
X184221104Y-55597661D01*
X184195581Y-55594700D01*
X182604419Y-55594700D01*
X182578892Y-55597661D01*
X182526683Y-55620714D01*
X182474475Y-55643766D01*
X182474474Y-55643767D01*
X182474473Y-55643767D01*
X182393766Y-55724474D01*
X182347662Y-55828889D01*
X182347661Y-55828895D01*
X182344700Y-55854418D01*
X182344700Y-56845580D01*
X182347661Y-56871107D01*
X182347662Y-56871109D01*
X182393766Y-56975525D01*
X182474475Y-57056234D01*
X182578891Y-57102338D01*
X182604421Y-57105300D01*
X183209380Y-57105299D01*
X183285080Y-57125583D01*
X183316436Y-57149643D01*
X183908337Y-57741544D01*
X183947522Y-57809415D01*
X183947522Y-57887785D01*
X183908337Y-57955656D01*
X183840466Y-57994841D01*
X183801281Y-58000000D01*
X177595919Y-58000000D01*
X177520219Y-57979716D01*
X177488863Y-57955656D01*
X176499119Y-56965912D01*
X176459934Y-56898041D01*
X176456421Y-56850022D01*
X176455048Y-56849943D01*
X176455299Y-56845585D01*
X176455300Y-56845579D01*
X176455299Y-55854422D01*
X176452338Y-55828891D01*
X176406234Y-55724475D01*
X176325525Y-55643766D01*
X176221110Y-55597662D01*
X176221104Y-55597661D01*
X176195581Y-55594700D01*
X174604419Y-55594700D01*
X174578892Y-55597661D01*
X174526683Y-55620714D01*
X174474475Y-55643766D01*
X174474474Y-55643767D01*
X174474473Y-55643767D01*
X174393766Y-55724474D01*
X174347662Y-55828889D01*
X174347661Y-55828895D01*
X174344700Y-55854418D01*
X174344700Y-56845580D01*
X174347661Y-56871107D01*
X174347662Y-56871109D01*
X174393766Y-56975525D01*
X174474475Y-57056234D01*
X174578891Y-57102338D01*
X174604421Y-57105300D01*
X175209380Y-57105299D01*
X175285080Y-57125583D01*
X175316436Y-57149643D01*
X175908337Y-57741544D01*
X175947522Y-57809415D01*
X175947522Y-57887785D01*
X175908337Y-57955656D01*
X175840466Y-57994841D01*
X175801281Y-58000000D01*
X169595919Y-58000000D01*
X169520219Y-57979716D01*
X169488863Y-57955656D01*
X168499119Y-56965912D01*
X168459934Y-56898041D01*
X168456421Y-56850022D01*
X168455048Y-56849943D01*
X168455299Y-56845585D01*
X168455300Y-56845579D01*
X168455299Y-55854422D01*
X168452338Y-55828891D01*
X168406234Y-55724475D01*
X168325525Y-55643766D01*
X168221110Y-55597662D01*
X168221104Y-55597661D01*
X168195581Y-55594700D01*
X166604419Y-55594700D01*
X166578892Y-55597661D01*
X166526683Y-55620714D01*
X166474475Y-55643766D01*
X166474474Y-55643767D01*
X166474473Y-55643767D01*
X166393766Y-55724474D01*
X166347662Y-55828889D01*
X166347661Y-55828895D01*
X166344700Y-55854418D01*
X166344700Y-56845580D01*
X166347661Y-56871107D01*
X166347662Y-56871109D01*
X166393766Y-56975525D01*
X166474475Y-57056234D01*
X166578891Y-57102338D01*
X166604421Y-57105300D01*
X167209380Y-57105299D01*
X167285080Y-57125583D01*
X167316436Y-57149643D01*
X167908337Y-57741544D01*
X167947522Y-57809415D01*
X167947522Y-57887785D01*
X167908337Y-57955656D01*
X167840466Y-57994841D01*
X167801281Y-58000000D01*
X161595919Y-58000000D01*
X161520219Y-57979716D01*
X161488863Y-57955656D01*
X160499119Y-56965912D01*
X160459934Y-56898041D01*
X160456421Y-56850022D01*
X160455048Y-56849943D01*
X160455299Y-56845585D01*
X160455300Y-56845579D01*
X160455299Y-55854422D01*
X160452338Y-55828891D01*
X160406234Y-55724475D01*
X160325525Y-55643766D01*
X160221110Y-55597662D01*
X160221104Y-55597661D01*
X160195581Y-55594700D01*
X158604419Y-55594700D01*
X158578892Y-55597661D01*
X158526683Y-55620714D01*
X158474475Y-55643766D01*
X158474474Y-55643767D01*
X158474473Y-55643767D01*
X158393766Y-55724474D01*
X158347662Y-55828889D01*
X158347661Y-55828895D01*
X158344700Y-55854418D01*
X158344700Y-56845580D01*
X158347661Y-56871107D01*
X158347662Y-56871109D01*
X158393766Y-56975525D01*
X158474475Y-57056234D01*
X158578891Y-57102338D01*
X158604421Y-57105300D01*
X159209380Y-57105299D01*
X159285080Y-57125583D01*
X159316436Y-57149643D01*
X159908337Y-57741544D01*
X159947522Y-57809415D01*
X159947522Y-57887785D01*
X159908337Y-57955656D01*
X159840466Y-57994841D01*
X159801281Y-58000000D01*
X153000000Y-58000000D01*
X153000000Y-62500000D01*
X154105905Y-62500000D01*
X154181605Y-62520284D01*
X154191092Y-62526623D01*
X154194735Y-62528726D01*
X154194738Y-62528728D01*
X154280992Y-62564455D01*
X154341984Y-62589720D01*
X154360366Y-62592140D01*
X154500000Y-62610523D01*
X154658015Y-62589720D01*
X154805262Y-62528728D01*
X154805267Y-62528723D01*
X154813859Y-62523765D01*
X154815061Y-62525847D01*
X154874331Y-62501296D01*
X154894095Y-62500000D01*
X192848600Y-62500000D01*
X192924300Y-62520284D01*
X192979716Y-62575700D01*
X193000000Y-62651400D01*
X193000000Y-64604206D01*
X192979716Y-64679906D01*
X192940766Y-64724320D01*
X192818295Y-64818294D01*
X192818292Y-64818297D01*
X192726812Y-64937516D01*
X192664637Y-64985225D01*
X192586937Y-64995454D01*
X192514532Y-64965462D01*
X192466823Y-64903287D01*
X192455299Y-64845354D01*
X192455299Y-63854422D01*
X192452338Y-63828891D01*
X192406234Y-63724475D01*
X192325525Y-63643766D01*
X192221110Y-63597662D01*
X192221104Y-63597661D01*
X192195581Y-63594700D01*
X190604419Y-63594700D01*
X190578892Y-63597661D01*
X190526683Y-63620714D01*
X190474475Y-63643766D01*
X190474474Y-63643767D01*
X190474473Y-63643767D01*
X190393767Y-63724473D01*
X190393764Y-63724478D01*
X190370726Y-63776654D01*
X190321594Y-63837711D01*
X190248516Y-63866021D01*
X190232227Y-63866900D01*
X189786397Y-63866900D01*
X189663532Y-63899821D01*
X189663530Y-63899821D01*
X189663530Y-63899822D01*
X189553369Y-63963424D01*
X189553368Y-63963425D01*
X189553366Y-63963426D01*
X188061137Y-65455656D01*
X187993266Y-65494841D01*
X187954081Y-65500000D01*
X181748719Y-65500000D01*
X181673019Y-65479716D01*
X181617603Y-65424300D01*
X181597319Y-65348600D01*
X181617603Y-65272900D01*
X181641663Y-65241544D01*
X182005763Y-64877444D01*
X182073634Y-64838259D01*
X182112819Y-64833100D01*
X182232227Y-64833100D01*
X182307927Y-64853384D01*
X182363343Y-64908800D01*
X182370726Y-64923346D01*
X182391300Y-64969940D01*
X182393766Y-64975525D01*
X182474475Y-65056234D01*
X182578891Y-65102338D01*
X182604421Y-65105300D01*
X184195578Y-65105299D01*
X184195580Y-65105299D01*
X184208343Y-65103818D01*
X184221109Y-65102338D01*
X184325525Y-65056234D01*
X184406234Y-64975525D01*
X184452338Y-64871109D01*
X184455300Y-64845579D01*
X184455299Y-63854422D01*
X184452338Y-63828891D01*
X184406234Y-63724475D01*
X184325525Y-63643766D01*
X184221110Y-63597662D01*
X184221104Y-63597661D01*
X184195581Y-63594700D01*
X182604419Y-63594700D01*
X182578892Y-63597661D01*
X182526683Y-63620714D01*
X182474475Y-63643766D01*
X182474474Y-63643767D01*
X182474473Y-63643767D01*
X182393767Y-63724473D01*
X182393764Y-63724478D01*
X182370726Y-63776654D01*
X182321594Y-63837711D01*
X182248516Y-63866021D01*
X182232227Y-63866900D01*
X181786397Y-63866900D01*
X181663532Y-63899821D01*
X181663530Y-63899821D01*
X181663530Y-63899822D01*
X181553369Y-63963424D01*
X181553368Y-63963425D01*
X181553366Y-63963426D01*
X180061137Y-65455656D01*
X179993266Y-65494841D01*
X179954081Y-65500000D01*
X173748719Y-65500000D01*
X173673019Y-65479716D01*
X173617603Y-65424300D01*
X173597319Y-65348600D01*
X173617603Y-65272900D01*
X173641663Y-65241544D01*
X174005763Y-64877444D01*
X174073634Y-64838259D01*
X174112819Y-64833100D01*
X174232227Y-64833100D01*
X174307927Y-64853384D01*
X174363343Y-64908800D01*
X174370726Y-64923346D01*
X174391300Y-64969940D01*
X174393766Y-64975525D01*
X174474475Y-65056234D01*
X174578891Y-65102338D01*
X174604421Y-65105300D01*
X176195578Y-65105299D01*
X176195580Y-65105299D01*
X176208343Y-65103818D01*
X176221109Y-65102338D01*
X176325525Y-65056234D01*
X176406234Y-64975525D01*
X176452338Y-64871109D01*
X176455300Y-64845579D01*
X176455299Y-63854422D01*
X176452338Y-63828891D01*
X176406234Y-63724475D01*
X176325525Y-63643766D01*
X176221110Y-63597662D01*
X176221104Y-63597661D01*
X176195581Y-63594700D01*
X174604419Y-63594700D01*
X174578892Y-63597661D01*
X174526683Y-63620714D01*
X174474475Y-63643766D01*
X174474474Y-63643767D01*
X174474473Y-63643767D01*
X174393767Y-63724473D01*
X174393764Y-63724478D01*
X174370726Y-63776654D01*
X174321594Y-63837711D01*
X174248516Y-63866021D01*
X174232227Y-63866900D01*
X173786397Y-63866900D01*
X173663532Y-63899821D01*
X173663530Y-63899821D01*
X173663530Y-63899822D01*
X173553369Y-63963424D01*
X173553368Y-63963425D01*
X173553366Y-63963426D01*
X172061137Y-65455656D01*
X171993266Y-65494841D01*
X171954081Y-65500000D01*
X165948719Y-65500000D01*
X165873019Y-65479716D01*
X165817603Y-65424300D01*
X165797319Y-65348600D01*
X165817603Y-65272900D01*
X165841663Y-65241544D01*
X165991222Y-65091985D01*
X166149858Y-64933348D01*
X166217727Y-64894165D01*
X166296097Y-64894165D01*
X166363968Y-64933350D01*
X166385221Y-64964375D01*
X166385839Y-64963952D01*
X166393764Y-64975521D01*
X166393766Y-64975525D01*
X166474475Y-65056234D01*
X166578891Y-65102338D01*
X166604421Y-65105300D01*
X168195578Y-65105299D01*
X168195580Y-65105299D01*
X168208343Y-65103818D01*
X168221109Y-65102338D01*
X168325525Y-65056234D01*
X168406234Y-64975525D01*
X168452338Y-64871109D01*
X168455300Y-64845579D01*
X168455299Y-63854422D01*
X168452338Y-63828891D01*
X168406234Y-63724475D01*
X168325525Y-63643766D01*
X168221110Y-63597662D01*
X168221104Y-63597661D01*
X168195581Y-63594700D01*
X166604419Y-63594700D01*
X166578892Y-63597661D01*
X166526683Y-63620714D01*
X166474475Y-63643766D01*
X166474474Y-63643767D01*
X166474473Y-63643767D01*
X166393767Y-63724473D01*
X166393764Y-63724478D01*
X166370726Y-63776654D01*
X166321594Y-63837711D01*
X166248516Y-63866021D01*
X166232227Y-63866900D01*
X165986397Y-63866900D01*
X165863532Y-63899821D01*
X165863530Y-63899821D01*
X165863530Y-63899822D01*
X165753369Y-63963424D01*
X165753368Y-63963425D01*
X165753366Y-63963426D01*
X164261137Y-65455656D01*
X164193266Y-65494841D01*
X164154081Y-65500000D01*
X158048718Y-65500000D01*
X157973018Y-65479716D01*
X157917602Y-65424300D01*
X157897318Y-65348600D01*
X157917602Y-65272900D01*
X157941662Y-65241544D01*
X158045674Y-65137532D01*
X158193669Y-64989536D01*
X158261538Y-64950353D01*
X158339908Y-64950353D01*
X158407779Y-64989538D01*
X158474475Y-65056234D01*
X158578891Y-65102338D01*
X158604421Y-65105300D01*
X160195578Y-65105299D01*
X160195580Y-65105299D01*
X160208343Y-65103818D01*
X160221109Y-65102338D01*
X160325525Y-65056234D01*
X160406234Y-64975525D01*
X160452338Y-64871109D01*
X160455300Y-64845579D01*
X160455299Y-63854422D01*
X160452338Y-63828891D01*
X160406234Y-63724475D01*
X160325525Y-63643766D01*
X160221110Y-63597662D01*
X160221104Y-63597661D01*
X160195581Y-63594700D01*
X158604419Y-63594700D01*
X158578892Y-63597661D01*
X158526683Y-63620714D01*
X158474475Y-63643766D01*
X158474474Y-63643767D01*
X158474473Y-63643767D01*
X158393767Y-63724473D01*
X158393764Y-63724478D01*
X158370726Y-63776654D01*
X158321594Y-63837711D01*
X158248516Y-63866021D01*
X158232227Y-63866900D01*
X158086397Y-63866900D01*
X157963532Y-63899821D01*
X157963530Y-63899821D01*
X157963530Y-63899822D01*
X157853369Y-63963424D01*
X157853368Y-63963425D01*
X157853366Y-63963426D01*
X156361137Y-65455656D01*
X156293266Y-65494841D01*
X156254081Y-65500000D01*
X152979909Y-65500000D01*
X152959573Y-65511741D01*
X152920388Y-65516900D01*
X152916120Y-65516900D01*
X152840420Y-65496616D01*
X152823954Y-65485614D01*
X152805264Y-65471273D01*
X152805262Y-65471272D01*
X152658015Y-65410279D01*
X152500000Y-65389477D01*
X152341985Y-65410280D01*
X152341983Y-65410280D01*
X152341981Y-65410281D01*
X152341980Y-65410281D01*
X152194738Y-65471272D01*
X152194736Y-65471272D01*
X152068295Y-65568294D01*
X152068294Y-65568295D01*
X151971272Y-65694736D01*
X151971272Y-65694738D01*
X151910281Y-65841980D01*
X151910281Y-65841981D01*
X151910280Y-65841983D01*
X151910280Y-65841985D01*
X151900875Y-65913424D01*
X151889477Y-66000000D01*
X151910279Y-66158015D01*
X151971271Y-66305261D01*
X151971272Y-66305262D01*
X152068295Y-66431705D01*
X152189288Y-66524546D01*
X152194738Y-66528728D01*
X152341984Y-66589720D01*
X152360366Y-66592140D01*
X152500000Y-66610523D01*
X152658015Y-66589720D01*
X152790661Y-66534776D01*
X152868361Y-66524546D01*
X152940766Y-66554537D01*
X152988475Y-66616712D01*
X153000000Y-66674651D01*
X153000000Y-70500000D01*
X186105905Y-70500000D01*
X186181605Y-70520284D01*
X186191092Y-70526623D01*
X186194735Y-70528726D01*
X186194738Y-70528728D01*
X186280992Y-70564455D01*
X186341984Y-70589720D01*
X186360366Y-70592140D01*
X186500000Y-70610523D01*
X186658015Y-70589720D01*
X186805262Y-70528728D01*
X186805267Y-70528723D01*
X186813859Y-70523765D01*
X186815061Y-70525847D01*
X186874331Y-70501296D01*
X186894095Y-70500000D01*
X192605905Y-70500000D01*
X192681605Y-70520284D01*
X192691092Y-70526623D01*
X192694735Y-70528726D01*
X192694738Y-70528728D01*
X192841985Y-70589720D01*
X192868358Y-70593192D01*
X192940764Y-70623181D01*
X192988474Y-70685356D01*
X193000000Y-70743297D01*
X193000000Y-71951281D01*
X192979716Y-72026981D01*
X192924300Y-72082397D01*
X192848600Y-72102681D01*
X192772900Y-72082397D01*
X192741544Y-72058337D01*
X192646633Y-71963426D01*
X192646631Y-71963424D01*
X192536470Y-71899822D01*
X192536467Y-71899820D01*
X192527889Y-71896267D01*
X192465714Y-71848558D01*
X192447328Y-71817545D01*
X192406234Y-71724475D01*
X192325525Y-71643766D01*
X192221110Y-71597662D01*
X192221104Y-71597661D01*
X192195581Y-71594700D01*
X190604419Y-71594700D01*
X190578892Y-71597661D01*
X190526683Y-71620714D01*
X190474475Y-71643766D01*
X190474474Y-71643767D01*
X190474473Y-71643767D01*
X190393766Y-71724474D01*
X190347662Y-71828889D01*
X190347661Y-71828895D01*
X190344700Y-71854418D01*
X190344700Y-72845580D01*
X190347661Y-72871107D01*
X190347662Y-72871109D01*
X190393766Y-72975525D01*
X190474475Y-73056234D01*
X190578891Y-73102338D01*
X190604421Y-73105300D01*
X192195578Y-73105299D01*
X192195580Y-73105299D01*
X192208343Y-73103818D01*
X192221109Y-73102338D01*
X192263604Y-73083574D01*
X192341045Y-73071554D01*
X192414123Y-73099864D01*
X192431812Y-73115019D01*
X192558337Y-73241544D01*
X192597522Y-73309415D01*
X192597522Y-73387785D01*
X192558337Y-73455656D01*
X192490466Y-73494841D01*
X192451281Y-73500000D01*
X185095919Y-73500000D01*
X185020219Y-73479716D01*
X184988863Y-73455656D01*
X184499119Y-72965912D01*
X184459934Y-72898041D01*
X184456421Y-72850022D01*
X184455048Y-72849943D01*
X184455299Y-72845585D01*
X184455300Y-72845579D01*
X184455299Y-71854422D01*
X184452338Y-71828891D01*
X184406234Y-71724475D01*
X184325525Y-71643766D01*
X184321491Y-71641985D01*
X184221110Y-71597662D01*
X184221104Y-71597661D01*
X184195581Y-71594700D01*
X182604419Y-71594700D01*
X182578892Y-71597661D01*
X182526683Y-71620714D01*
X182474475Y-71643766D01*
X182474474Y-71643767D01*
X182474473Y-71643767D01*
X182393766Y-71724474D01*
X182347662Y-71828889D01*
X182347661Y-71828895D01*
X182344700Y-71854418D01*
X182344700Y-72845580D01*
X182347661Y-72871107D01*
X182347662Y-72871109D01*
X182393766Y-72975525D01*
X182474475Y-73056234D01*
X182578891Y-73102338D01*
X182604421Y-73105300D01*
X183209380Y-73105299D01*
X183285080Y-73125583D01*
X183316436Y-73149643D01*
X183408337Y-73241544D01*
X183447522Y-73309415D01*
X183447522Y-73387785D01*
X183408337Y-73455656D01*
X183340466Y-73494841D01*
X183301281Y-73500000D01*
X177095919Y-73500000D01*
X177020219Y-73479716D01*
X176988863Y-73455656D01*
X176499119Y-72965912D01*
X176459934Y-72898041D01*
X176456421Y-72850022D01*
X176455048Y-72849943D01*
X176455299Y-72845585D01*
X176455300Y-72845579D01*
X176455299Y-71854422D01*
X176452338Y-71828891D01*
X176406234Y-71724475D01*
X176325525Y-71643766D01*
X176321491Y-71641985D01*
X176221110Y-71597662D01*
X176221104Y-71597661D01*
X176195581Y-71594700D01*
X174604419Y-71594700D01*
X174578892Y-71597661D01*
X174526683Y-71620714D01*
X174474475Y-71643766D01*
X174474474Y-71643767D01*
X174474473Y-71643767D01*
X174393766Y-71724474D01*
X174347662Y-71828889D01*
X174347661Y-71828895D01*
X174344700Y-71854418D01*
X174344700Y-72845580D01*
X174347661Y-72871107D01*
X174347662Y-72871109D01*
X174393766Y-72975525D01*
X174474475Y-73056234D01*
X174578891Y-73102338D01*
X174604421Y-73105300D01*
X175209380Y-73105299D01*
X175285080Y-73125583D01*
X175316436Y-73149643D01*
X175408337Y-73241544D01*
X175447522Y-73309415D01*
X175447522Y-73387785D01*
X175408337Y-73455656D01*
X175340466Y-73494841D01*
X175301281Y-73500000D01*
X169095919Y-73500000D01*
X169020219Y-73479716D01*
X168988863Y-73455656D01*
X168499119Y-72965912D01*
X168459934Y-72898041D01*
X168456421Y-72850022D01*
X168455048Y-72849943D01*
X168455299Y-72845585D01*
X168455300Y-72845579D01*
X168455299Y-71854422D01*
X168452338Y-71828891D01*
X168406234Y-71724475D01*
X168325525Y-71643766D01*
X168321491Y-71641985D01*
X168221110Y-71597662D01*
X168221104Y-71597661D01*
X168195581Y-71594700D01*
X166604419Y-71594700D01*
X166578892Y-71597661D01*
X166526683Y-71620714D01*
X166474475Y-71643766D01*
X166474474Y-71643767D01*
X166474473Y-71643767D01*
X166393766Y-71724474D01*
X166347662Y-71828889D01*
X166347661Y-71828895D01*
X166344700Y-71854418D01*
X166344700Y-72845580D01*
X166347661Y-72871107D01*
X166347662Y-72871109D01*
X166393766Y-72975525D01*
X166474475Y-73056234D01*
X166578891Y-73102338D01*
X166604421Y-73105300D01*
X167209380Y-73105299D01*
X167285080Y-73125583D01*
X167316436Y-73149643D01*
X167408337Y-73241544D01*
X167447522Y-73309415D01*
X167447522Y-73387785D01*
X167408337Y-73455656D01*
X167340466Y-73494841D01*
X167301281Y-73500000D01*
X161095919Y-73500000D01*
X161020219Y-73479716D01*
X160988863Y-73455656D01*
X160499119Y-72965912D01*
X160459934Y-72898041D01*
X160456421Y-72850022D01*
X160455048Y-72849943D01*
X160455299Y-72845585D01*
X160455300Y-72845579D01*
X160455299Y-71854422D01*
X160452338Y-71828891D01*
X160406234Y-71724475D01*
X160325525Y-71643766D01*
X160321491Y-71641985D01*
X160221110Y-71597662D01*
X160221104Y-71597661D01*
X160195581Y-71594700D01*
X158604419Y-71594700D01*
X158578892Y-71597661D01*
X158526683Y-71620714D01*
X158474475Y-71643766D01*
X158474474Y-71643767D01*
X158474473Y-71643767D01*
X158393766Y-71724474D01*
X158347662Y-71828889D01*
X158347661Y-71828895D01*
X158344700Y-71854418D01*
X158344700Y-72845580D01*
X158347661Y-72871107D01*
X158347662Y-72871109D01*
X158393766Y-72975525D01*
X158474475Y-73056234D01*
X158578891Y-73102338D01*
X158604421Y-73105300D01*
X159209380Y-73105299D01*
X159285080Y-73125583D01*
X159316436Y-73149643D01*
X159408337Y-73241544D01*
X159447522Y-73309415D01*
X159447522Y-73387785D01*
X159408337Y-73455656D01*
X159340466Y-73494841D01*
X159301281Y-73500000D01*
X153000000Y-73500000D01*
X153000000Y-73825348D01*
X152979716Y-73901048D01*
X152924300Y-73956464D01*
X152848600Y-73976748D01*
X152790662Y-73965223D01*
X152658018Y-73910280D01*
X152658015Y-73910279D01*
X152500000Y-73889477D01*
X152341985Y-73910280D01*
X152341983Y-73910280D01*
X152341981Y-73910281D01*
X152341980Y-73910281D01*
X152194738Y-73971272D01*
X152194736Y-73971272D01*
X152068295Y-74068294D01*
X152068294Y-74068295D01*
X151971272Y-74194736D01*
X151971272Y-74194738D01*
X151910281Y-74341980D01*
X151910281Y-74341981D01*
X151889477Y-74500000D01*
X151910279Y-74658015D01*
X151971271Y-74805261D01*
X151971272Y-74805262D01*
X152068295Y-74931705D01*
X152194738Y-75028728D01*
X152194740Y-75028729D01*
X152194739Y-75028729D01*
X152341984Y-75089720D01*
X152365341Y-75092795D01*
X152437746Y-75122785D01*
X152452637Y-75135844D01*
X152785088Y-75468295D01*
X152955656Y-75638862D01*
X152994841Y-75706733D01*
X153000000Y-75745918D01*
X153000000Y-78500000D01*
X192848600Y-78500000D01*
X192924300Y-78520284D01*
X192979716Y-78575700D01*
X193000000Y-78651400D01*
X193000000Y-81348600D01*
X192979716Y-81424300D01*
X192924300Y-81479716D01*
X192848600Y-81500000D01*
X189848719Y-81500000D01*
X189773019Y-81479716D01*
X189717603Y-81424300D01*
X189697319Y-81348600D01*
X189717603Y-81272900D01*
X189741663Y-81241544D01*
X190105763Y-80877444D01*
X190173634Y-80838259D01*
X190212819Y-80833100D01*
X190232227Y-80833100D01*
X190307927Y-80853384D01*
X190363343Y-80908800D01*
X190370726Y-80923346D01*
X190393764Y-80975521D01*
X190393766Y-80975525D01*
X190474475Y-81056234D01*
X190578891Y-81102338D01*
X190604421Y-81105300D01*
X192195578Y-81105299D01*
X192195580Y-81105299D01*
X192208343Y-81103818D01*
X192221109Y-81102338D01*
X192325525Y-81056234D01*
X192406234Y-80975525D01*
X192452338Y-80871109D01*
X192455300Y-80845579D01*
X192455299Y-79854422D01*
X192452338Y-79828891D01*
X192406234Y-79724475D01*
X192325525Y-79643766D01*
X192221110Y-79597662D01*
X192221104Y-79597661D01*
X192195581Y-79594700D01*
X190604419Y-79594700D01*
X190578892Y-79597661D01*
X190526683Y-79620714D01*
X190474475Y-79643766D01*
X190474474Y-79643767D01*
X190474473Y-79643767D01*
X190393767Y-79724473D01*
X190393764Y-79724478D01*
X190370726Y-79776654D01*
X190321594Y-79837711D01*
X190248516Y-79866021D01*
X190232227Y-79866900D01*
X189886397Y-79866900D01*
X189763532Y-79899821D01*
X189763530Y-79899821D01*
X189763530Y-79899822D01*
X189653369Y-79963424D01*
X189653368Y-79963425D01*
X189653366Y-79963426D01*
X188161137Y-81455656D01*
X188093266Y-81494841D01*
X188054081Y-81500000D01*
X181848719Y-81500000D01*
X181773019Y-81479716D01*
X181717603Y-81424300D01*
X181697319Y-81348600D01*
X181717603Y-81272900D01*
X181741663Y-81241544D01*
X182105763Y-80877444D01*
X182173634Y-80838259D01*
X182212819Y-80833100D01*
X182232227Y-80833100D01*
X182307927Y-80853384D01*
X182363343Y-80908800D01*
X182370726Y-80923346D01*
X182393764Y-80975521D01*
X182393766Y-80975525D01*
X182474475Y-81056234D01*
X182578891Y-81102338D01*
X182604421Y-81105300D01*
X184195578Y-81105299D01*
X184195580Y-81105299D01*
X184208343Y-81103818D01*
X184221109Y-81102338D01*
X184325525Y-81056234D01*
X184406234Y-80975525D01*
X184452338Y-80871109D01*
X184455300Y-80845579D01*
X184455299Y-79854422D01*
X184452338Y-79828891D01*
X184406234Y-79724475D01*
X184325525Y-79643766D01*
X184221110Y-79597662D01*
X184221104Y-79597661D01*
X184195581Y-79594700D01*
X182604419Y-79594700D01*
X182578892Y-79597661D01*
X182526683Y-79620714D01*
X182474475Y-79643766D01*
X182474474Y-79643767D01*
X182474473Y-79643767D01*
X182393767Y-79724473D01*
X182393764Y-79724478D01*
X182370726Y-79776654D01*
X182321594Y-79837711D01*
X182248516Y-79866021D01*
X182232227Y-79866900D01*
X181886397Y-79866900D01*
X181763532Y-79899821D01*
X181763530Y-79899821D01*
X181763530Y-79899822D01*
X181653369Y-79963424D01*
X181653368Y-79963425D01*
X181653366Y-79963426D01*
X180161137Y-81455656D01*
X180093266Y-81494841D01*
X180054081Y-81500000D01*
X173748719Y-81500000D01*
X173673019Y-81479716D01*
X173617603Y-81424300D01*
X173597319Y-81348600D01*
X173617603Y-81272900D01*
X173641663Y-81241544D01*
X174005763Y-80877444D01*
X174073634Y-80838259D01*
X174112819Y-80833100D01*
X174232227Y-80833100D01*
X174307927Y-80853384D01*
X174363343Y-80908800D01*
X174370726Y-80923346D01*
X174393764Y-80975521D01*
X174393766Y-80975525D01*
X174474475Y-81056234D01*
X174578891Y-81102338D01*
X174604421Y-81105300D01*
X176195578Y-81105299D01*
X176195580Y-81105299D01*
X176208343Y-81103818D01*
X176221109Y-81102338D01*
X176325525Y-81056234D01*
X176406234Y-80975525D01*
X176452338Y-80871109D01*
X176455300Y-80845579D01*
X176455299Y-79854422D01*
X176452338Y-79828891D01*
X176406234Y-79724475D01*
X176325525Y-79643766D01*
X176221110Y-79597662D01*
X176221104Y-79597661D01*
X176195581Y-79594700D01*
X174604419Y-79594700D01*
X174578892Y-79597661D01*
X174526683Y-79620714D01*
X174474475Y-79643766D01*
X174474474Y-79643767D01*
X174474473Y-79643767D01*
X174393767Y-79724473D01*
X174393764Y-79724478D01*
X174370726Y-79776654D01*
X174321594Y-79837711D01*
X174248516Y-79866021D01*
X174232227Y-79866900D01*
X173786397Y-79866900D01*
X173663532Y-79899821D01*
X173663530Y-79899821D01*
X173663530Y-79899822D01*
X173553369Y-79963424D01*
X173553368Y-79963425D01*
X173553366Y-79963426D01*
X172061137Y-81455656D01*
X171993266Y-81494841D01*
X171954081Y-81500000D01*
X165748719Y-81500000D01*
X165673019Y-81479716D01*
X165617603Y-81424300D01*
X165597319Y-81348600D01*
X165617603Y-81272900D01*
X165641663Y-81241544D01*
X166005763Y-80877444D01*
X166073634Y-80838259D01*
X166112819Y-80833100D01*
X166232227Y-80833100D01*
X166307927Y-80853384D01*
X166363343Y-80908800D01*
X166370726Y-80923346D01*
X166393764Y-80975521D01*
X166393766Y-80975525D01*
X166474475Y-81056234D01*
X166578891Y-81102338D01*
X166604421Y-81105300D01*
X168195578Y-81105299D01*
X168195580Y-81105299D01*
X168208343Y-81103818D01*
X168221109Y-81102338D01*
X168325525Y-81056234D01*
X168406234Y-80975525D01*
X168452338Y-80871109D01*
X168455300Y-80845579D01*
X168455299Y-79854422D01*
X168452338Y-79828891D01*
X168406234Y-79724475D01*
X168325525Y-79643766D01*
X168221110Y-79597662D01*
X168221104Y-79597661D01*
X168195581Y-79594700D01*
X166604419Y-79594700D01*
X166578892Y-79597661D01*
X166526683Y-79620714D01*
X166474475Y-79643766D01*
X166474474Y-79643767D01*
X166474473Y-79643767D01*
X166393767Y-79724473D01*
X166393764Y-79724478D01*
X166370726Y-79776654D01*
X166321594Y-79837711D01*
X166248516Y-79866021D01*
X166232227Y-79866900D01*
X165786397Y-79866900D01*
X165663532Y-79899821D01*
X165663530Y-79899821D01*
X165663530Y-79899822D01*
X165553369Y-79963424D01*
X165553368Y-79963425D01*
X165553366Y-79963426D01*
X164061137Y-81455656D01*
X163993266Y-81494841D01*
X163954081Y-81500000D01*
X158048719Y-81500000D01*
X157973019Y-81479716D01*
X157917603Y-81424300D01*
X157897319Y-81348600D01*
X157917603Y-81272900D01*
X157941663Y-81241544D01*
X158126974Y-81056232D01*
X158193669Y-80989536D01*
X158261537Y-80950353D01*
X158339908Y-80950353D01*
X158407779Y-80989538D01*
X158474475Y-81056234D01*
X158578891Y-81102338D01*
X158604421Y-81105300D01*
X160195578Y-81105299D01*
X160195580Y-81105299D01*
X160208343Y-81103818D01*
X160221109Y-81102338D01*
X160325525Y-81056234D01*
X160406234Y-80975525D01*
X160452338Y-80871109D01*
X160455300Y-80845579D01*
X160455299Y-79854422D01*
X160452338Y-79828891D01*
X160406234Y-79724475D01*
X160325525Y-79643766D01*
X160221110Y-79597662D01*
X160221104Y-79597661D01*
X160195581Y-79594700D01*
X158604419Y-79594700D01*
X158578892Y-79597661D01*
X158526683Y-79620714D01*
X158474475Y-79643766D01*
X158474474Y-79643767D01*
X158474473Y-79643767D01*
X158393767Y-79724473D01*
X158393764Y-79724478D01*
X158370726Y-79776654D01*
X158321594Y-79837711D01*
X158248516Y-79866021D01*
X158232227Y-79866900D01*
X158086397Y-79866900D01*
X157963532Y-79899821D01*
X157963530Y-79899821D01*
X157963530Y-79899822D01*
X157853369Y-79963424D01*
X157853368Y-79963425D01*
X157853366Y-79963426D01*
X156361137Y-81455656D01*
X156293266Y-81494841D01*
X156254081Y-81500000D01*
X152980582Y-81500000D01*
X152958646Y-81512664D01*
X152939234Y-81516526D01*
X152936400Y-81516899D01*
X152813532Y-81549821D01*
X152813530Y-81549821D01*
X152813530Y-81549822D01*
X152703369Y-81613424D01*
X152703368Y-81613425D01*
X152703366Y-81613426D01*
X152622054Y-81694739D01*
X152613424Y-81703369D01*
X152613422Y-81703371D01*
X152400497Y-81916296D01*
X152182074Y-82134718D01*
X152113426Y-82203366D01*
X152113425Y-82203368D01*
X152049821Y-82313532D01*
X152016900Y-82436397D01*
X152016900Y-86083881D01*
X151996616Y-86159581D01*
X151985616Y-86176045D01*
X151971271Y-86194740D01*
X151910281Y-86341980D01*
X151910281Y-86341981D01*
X151889477Y-86500000D01*
X151910279Y-86658015D01*
X151971271Y-86805261D01*
X151971272Y-86805262D01*
X152068295Y-86931705D01*
X152194738Y-87028728D01*
X152341984Y-87089720D01*
X152360366Y-87092140D01*
X152500000Y-87110523D01*
X152658015Y-87089720D01*
X152805262Y-87028728D01*
X152931705Y-86931705D01*
X153028728Y-86805262D01*
X153089720Y-86658015D01*
X153093193Y-86631638D01*
X153123185Y-86559233D01*
X153185361Y-86511524D01*
X153243298Y-86500000D01*
X190765500Y-86500000D01*
X190841200Y-86520284D01*
X190896616Y-86575700D01*
X190916900Y-86651400D01*
X190916900Y-87443300D01*
X190896616Y-87519000D01*
X190841200Y-87574416D01*
X190765501Y-87594700D01*
X190604419Y-87594700D01*
X190578892Y-87597661D01*
X190526683Y-87620714D01*
X190474475Y-87643766D01*
X190474474Y-87643767D01*
X190474473Y-87643767D01*
X190393766Y-87724474D01*
X190347662Y-87828889D01*
X190347661Y-87828895D01*
X190344700Y-87854418D01*
X190344700Y-88845580D01*
X190347661Y-88871107D01*
X190347662Y-88871109D01*
X190393766Y-88975525D01*
X190474475Y-89056234D01*
X190578891Y-89102338D01*
X190604421Y-89105300D01*
X192195578Y-89105299D01*
X192195580Y-89105299D01*
X192208343Y-89103818D01*
X192221109Y-89102338D01*
X192325525Y-89056234D01*
X192406234Y-88975525D01*
X192452338Y-88871109D01*
X192455300Y-88845579D01*
X192455299Y-87854422D01*
X192452338Y-87828891D01*
X192406234Y-87724475D01*
X192325525Y-87643766D01*
X192221110Y-87597662D01*
X192221104Y-87597661D01*
X192195581Y-87594700D01*
X192195579Y-87594700D01*
X192034500Y-87594700D01*
X191958800Y-87574416D01*
X191903384Y-87519000D01*
X191883100Y-87443300D01*
X191883100Y-86651400D01*
X191903384Y-86575700D01*
X191958800Y-86520284D01*
X192034500Y-86500000D01*
X192848600Y-86500000D01*
X192924300Y-86520284D01*
X192979716Y-86575700D01*
X193000000Y-86651400D01*
X193000000Y-89348600D01*
X192979716Y-89424300D01*
X192924300Y-89479716D01*
X192848600Y-89500000D01*
X185095919Y-89500000D01*
X185020219Y-89479716D01*
X184988863Y-89455656D01*
X184499119Y-88965912D01*
X184459934Y-88898041D01*
X184456421Y-88850022D01*
X184455048Y-88849943D01*
X184455299Y-88845585D01*
X184455300Y-88845579D01*
X184455299Y-87854422D01*
X184452338Y-87828891D01*
X184406234Y-87724475D01*
X184325525Y-87643766D01*
X184221110Y-87597662D01*
X184221104Y-87597661D01*
X184195581Y-87594700D01*
X182604419Y-87594700D01*
X182578892Y-87597661D01*
X182526683Y-87620714D01*
X182474475Y-87643766D01*
X182474474Y-87643767D01*
X182474473Y-87643767D01*
X182393766Y-87724474D01*
X182347662Y-87828889D01*
X182347661Y-87828895D01*
X182344700Y-87854418D01*
X182344700Y-88845580D01*
X182347661Y-88871107D01*
X182347662Y-88871109D01*
X182393766Y-88975525D01*
X182474475Y-89056234D01*
X182578891Y-89102338D01*
X182604421Y-89105300D01*
X183209380Y-89105299D01*
X183285080Y-89125583D01*
X183316436Y-89149643D01*
X183408337Y-89241544D01*
X183447522Y-89309415D01*
X183447522Y-89387785D01*
X183408337Y-89455656D01*
X183340466Y-89494841D01*
X183301281Y-89500000D01*
X177095919Y-89500000D01*
X177020219Y-89479716D01*
X176988863Y-89455656D01*
X176499119Y-88965912D01*
X176459934Y-88898041D01*
X176456421Y-88850022D01*
X176455048Y-88849943D01*
X176455299Y-88845585D01*
X176455300Y-88845579D01*
X176455299Y-87854422D01*
X176452338Y-87828891D01*
X176406234Y-87724475D01*
X176325525Y-87643766D01*
X176221110Y-87597662D01*
X176221104Y-87597661D01*
X176195581Y-87594700D01*
X174604419Y-87594700D01*
X174578892Y-87597661D01*
X174526683Y-87620714D01*
X174474475Y-87643766D01*
X174474474Y-87643767D01*
X174474473Y-87643767D01*
X174393766Y-87724474D01*
X174347662Y-87828889D01*
X174347661Y-87828895D01*
X174344700Y-87854418D01*
X174344700Y-88845580D01*
X174347661Y-88871107D01*
X174347662Y-88871109D01*
X174393766Y-88975525D01*
X174474475Y-89056234D01*
X174578891Y-89102338D01*
X174604421Y-89105300D01*
X175209380Y-89105299D01*
X175285080Y-89125583D01*
X175316436Y-89149643D01*
X175408337Y-89241544D01*
X175447522Y-89309415D01*
X175447522Y-89387785D01*
X175408337Y-89455656D01*
X175340466Y-89494841D01*
X175301281Y-89500000D01*
X169095919Y-89500000D01*
X169020219Y-89479716D01*
X168988863Y-89455656D01*
X168499119Y-88965912D01*
X168459934Y-88898041D01*
X168456421Y-88850022D01*
X168455048Y-88849943D01*
X168455299Y-88845585D01*
X168455300Y-88845579D01*
X168455299Y-87854422D01*
X168452338Y-87828891D01*
X168406234Y-87724475D01*
X168325525Y-87643766D01*
X168221110Y-87597662D01*
X168221104Y-87597661D01*
X168195581Y-87594700D01*
X166604419Y-87594700D01*
X166578892Y-87597661D01*
X166526683Y-87620714D01*
X166474475Y-87643766D01*
X166474474Y-87643767D01*
X166474473Y-87643767D01*
X166393766Y-87724474D01*
X166347662Y-87828889D01*
X166347661Y-87828895D01*
X166344700Y-87854418D01*
X166344700Y-88845580D01*
X166347661Y-88871107D01*
X166347662Y-88871109D01*
X166393766Y-88975525D01*
X166474475Y-89056234D01*
X166578891Y-89102338D01*
X166604421Y-89105300D01*
X167209380Y-89105299D01*
X167285080Y-89125583D01*
X167316436Y-89149643D01*
X167408337Y-89241544D01*
X167447522Y-89309415D01*
X167447522Y-89387785D01*
X167408337Y-89455656D01*
X167340466Y-89494841D01*
X167301281Y-89500000D01*
X161095919Y-89500000D01*
X161020219Y-89479716D01*
X160988863Y-89455656D01*
X160499119Y-88965912D01*
X160459934Y-88898041D01*
X160456421Y-88850022D01*
X160455048Y-88849943D01*
X160455299Y-88845585D01*
X160455300Y-88845579D01*
X160455299Y-87854422D01*
X160452338Y-87828891D01*
X160406234Y-87724475D01*
X160325525Y-87643766D01*
X160221110Y-87597662D01*
X160221104Y-87597661D01*
X160195581Y-87594700D01*
X158604419Y-87594700D01*
X158578892Y-87597661D01*
X158526683Y-87620714D01*
X158474475Y-87643766D01*
X158474474Y-87643767D01*
X158474473Y-87643767D01*
X158393766Y-87724474D01*
X158347662Y-87828889D01*
X158347661Y-87828895D01*
X158344700Y-87854418D01*
X158344700Y-88845580D01*
X158347661Y-88871107D01*
X158347662Y-88871109D01*
X158393766Y-88975525D01*
X158474475Y-89056234D01*
X158578891Y-89102338D01*
X158604421Y-89105300D01*
X159209380Y-89105299D01*
X159285080Y-89125583D01*
X159316436Y-89149643D01*
X159408337Y-89241544D01*
X159447522Y-89309415D01*
X159447522Y-89387785D01*
X159408337Y-89455656D01*
X159340466Y-89494841D01*
X159301281Y-89500000D01*
X153000000Y-89500000D01*
X153000000Y-93305906D01*
X152979716Y-93381606D01*
X152973372Y-93391100D01*
X152971271Y-93394738D01*
X152910281Y-93541980D01*
X152910281Y-93541981D01*
X152889477Y-93700000D01*
X152910279Y-93858015D01*
X152971272Y-94005262D01*
X152976235Y-94013859D01*
X152974152Y-94015061D01*
X152998704Y-94074331D01*
X153000000Y-94094095D01*
X153000000Y-97500000D01*
X170998100Y-97500000D01*
X171073800Y-97520284D01*
X171129216Y-97575700D01*
X171149500Y-97651400D01*
X171149500Y-97721288D01*
X171181162Y-97961789D01*
X171243946Y-98196099D01*
X171243949Y-98196108D01*
X171336770Y-98420200D01*
X171336777Y-98420214D01*
X171382841Y-98500000D01*
X171458064Y-98630289D01*
X171605735Y-98822738D01*
X171777262Y-98994265D01*
X171969711Y-99141936D01*
X172179788Y-99263224D01*
X172179793Y-99263226D01*
X172179799Y-99263229D01*
X172214620Y-99277652D01*
X172403900Y-99356054D01*
X172638211Y-99418838D01*
X172847049Y-99446331D01*
X172878711Y-99450500D01*
X172878712Y-99450500D01*
X173121289Y-99450500D01*
X173149267Y-99446816D01*
X173361789Y-99418838D01*
X173596100Y-99356054D01*
X173820212Y-99263224D01*
X174030289Y-99141936D01*
X174222738Y-98994265D01*
X174394265Y-98822738D01*
X174541936Y-98630289D01*
X174663224Y-98420212D01*
X174756054Y-98196100D01*
X174818838Y-97961789D01*
X174850500Y-97721288D01*
X174850500Y-97651400D01*
X174870784Y-97575700D01*
X174926200Y-97520284D01*
X175001900Y-97500000D01*
X196448600Y-97500000D01*
X196524300Y-97520284D01*
X196579716Y-97575700D01*
X196600000Y-97651400D01*
X196600000Y-99848600D01*
X196579716Y-99924300D01*
X196524300Y-99979716D01*
X196448600Y-100000000D01*
X149241347Y-100000000D01*
X149165647Y-99979716D01*
X149141521Y-99962427D01*
X149093596Y-99920397D01*
X149079593Y-99906395D01*
X149037570Y-99858476D01*
X149002909Y-99788190D01*
X149000000Y-99758653D01*
X149000000Y-60356699D01*
X149020284Y-60280999D01*
X149075700Y-60225583D01*
X149151396Y-60205299D01*
X151945578Y-60205299D01*
X151945580Y-60205299D01*
X151958343Y-60203818D01*
X151971109Y-60202338D01*
X152075525Y-60156234D01*
X152156234Y-60075525D01*
X152202338Y-59971109D01*
X152205300Y-59945579D01*
X152205299Y-58054422D01*
X152202338Y-58028891D01*
X152156234Y-57924475D01*
X152075525Y-57843766D01*
X151971110Y-57797662D01*
X151971104Y-57797661D01*
X151945581Y-57794700D01*
X151666031Y-57794700D01*
X151590331Y-57774416D01*
X151534915Y-57719000D01*
X151514631Y-57643300D01*
X151534915Y-57567600D01*
X151590331Y-57512184D01*
X151597289Y-57508405D01*
X151631715Y-57490865D01*
X151785200Y-57379351D01*
X151919351Y-57245200D01*
X152030865Y-57091715D01*
X152116995Y-56922675D01*
X152175621Y-56742242D01*
X152205300Y-56554859D01*
X152205300Y-56365141D01*
X152175621Y-56177758D01*
X152116995Y-55997325D01*
X152116992Y-55997320D01*
X152116990Y-55997314D01*
X152030868Y-55828291D01*
X152030865Y-55828285D01*
X151919351Y-55674800D01*
X151785200Y-55540649D01*
X151631715Y-55429135D01*
X151631709Y-55429132D01*
X151631708Y-55429131D01*
X151462685Y-55343009D01*
X151462668Y-55343002D01*
X151282244Y-55284379D01*
X151094864Y-55254700D01*
X151094859Y-55254700D01*
X149905141Y-55254700D01*
X149905135Y-55254700D01*
X149717755Y-55284379D01*
X149537331Y-55343002D01*
X149537314Y-55343009D01*
X149368292Y-55429130D01*
X149240390Y-55522056D01*
X149167225Y-55550141D01*
X149089819Y-55537880D01*
X149028914Y-55488560D01*
X149000829Y-55415395D01*
X149000000Y-55399570D01*
X149000000Y-55200000D01*
X148651900Y-55200000D01*
X148576200Y-55179716D01*
X148520784Y-55124300D01*
X148500500Y-55048600D01*
X148500500Y-52651400D01*
X148520784Y-52575700D01*
X148576200Y-52520284D01*
X148651900Y-52500000D01*
X152325349Y-52500000D01*
X152401049Y-52520284D01*
G37*
G04 #@! TD.AperFunction*
G04 #@! TA.AperFunction,Conductor*
G36*
X192981739Y-65138850D02*
G01*
X193170369Y-65216305D01*
X193246184Y-65247436D01*
X193252536Y-65253748D01*
X193252563Y-65253815D01*
X193361148Y-65518258D01*
X193361121Y-65527213D01*
X193356770Y-65532467D01*
X192959427Y-65794728D01*
X192950635Y-65796425D01*
X192944709Y-65793236D01*
X192706763Y-65555290D01*
X192703336Y-65547017D01*
X192705270Y-65540575D01*
X192967534Y-65143227D01*
X192974950Y-65138212D01*
X192981739Y-65138850D01*
G37*
G04 #@! TD.AperFunction*
M02*
